<svg xmlns="http://www.w3.org/2000/svg" viewBox="0 0 416.9 406.73"><defs><style>.cls-1{fill:#ddeaf3;}.cls-2{fill:#0e477e;}</style></defs><title>Двор</title><g id="Layer_2" data-name="Layer 2"><g id="Layer_1-2" data-name="Layer 1"><path class="cls-1" d="M296.27,132.19C260.22,92.9,239.42,69.33,208.45,0c-31,69.33-51.76,92.9-87.82,132.19S0,203.37,0,203.37s84.58,31.89,120.63,71.18,56.85,62.85,87.82,132.18c31-69.33,51.77-92.9,87.82-132.18S416.9,203.37,416.9,203.37,332.32,171.48,296.27,132.19Z"/><path class="cls-2" d="M269,227.27H200.53a4.25,4.25,0,0,1-4.25-4.25V200.21a4.25,4.25,0,0,1,4.25-4.25H269a4.25,4.25,0,0,1,4.26,4.25V223A4.25,4.25,0,0,1,269,227.27Zm-64.18-8.5h59.93V204.46H204.78Z"/><path class="cls-2" d="M209.74,234.61a4.26,4.26,0,0,1-4.26-4.26V223a4.26,4.26,0,0,1,8.51,0v7.33A4.26,4.26,0,0,1,209.74,234.61Z"/><path class="cls-2" d="M165.55,253a4.25,4.25,0,0,1-4.26-4.25V189.13a4.26,4.26,0,0,1,8.51,0v59.63A4.25,4.25,0,0,1,165.55,253Z"/><path class="cls-2" d="M259.76,234.61a4.25,4.25,0,0,1-4.25-4.26V223a4.25,4.25,0,1,1,8.5,0v7.33A4.25,4.25,0,0,1,259.76,234.61Z"/><path class="cls-2" d="M201.82,253a4.25,4.25,0,0,1-4.25-4.25V234.09a4.25,4.25,0,1,1,8.5,0v14.67A4.25,4.25,0,0,1,201.82,253Z"/><path class="cls-2" d="M267.67,253a4.25,4.25,0,0,1-4.25-4.25V234.09a4.26,4.26,0,0,1,8.51,0v14.67A4.25,4.25,0,0,1,267.67,253Z"/><path class="cls-2" d="M274.58,238.34H194.92a4.25,4.25,0,1,1,0-8.5h79.66a4.25,4.25,0,0,1,0,8.5Z"/><path class="cls-2" d="M165.55,220.39a27.47,27.47,0,0,1-19.62-46.71,20.24,20.24,0,1,1,39.24,0,27.48,27.48,0,0,1-19.62,46.71Zm0-63.44a11.74,11.74,0,0,0-10.8,16.34,4.25,4.25,0,0,1-1.22,5,19,19,0,1,0,24,0,4.26,4.26,0,0,1-1.22-5A11.73,11.73,0,0,0,165.55,157Z"/></g></g></svg>