<svg xmlns="http://www.w3.org/2000/svg" viewBox="0 0 416.9 406.73"><defs><style>.cls-1{fill:#ddeaf3;}.cls-2{fill:#0e477e;}</style></defs><title>Окна</title><g id="Layer_2" data-name="Layer 2"><g id="Layer_1-2" data-name="Layer 1"><path class="cls-1" d="M296.27,132.19C260.22,92.9,239.42,69.33,208.45,0c-31,69.33-51.76,92.9-87.82,132.19S0,203.37,0,203.37s84.58,31.89,120.63,71.18,56.85,62.85,87.82,132.18c31-69.33,51.77-92.9,87.82-132.18S416.9,203.37,416.9,203.37,332.32,171.48,296.27,132.19Z"/><path class="cls-2" d="M208.45,250.39a4.25,4.25,0,0,1-4.25-4.25V145.66a4.25,4.25,0,0,1,8.5,0V246.14A4.25,4.25,0,0,1,208.45,250.39Z"/><path class="cls-2" d="M272.07,265.32H144.83a4.25,4.25,0,0,1-4.25-4.25V246.14a4.25,4.25,0,0,1,4.25-4.25H272.07a4.25,4.25,0,0,1,4.25,4.25v14.93A4.25,4.25,0,0,1,272.07,265.32Zm-123-8.5H267.82v-6.43H149.08Z"/><path class="cls-2" d="M258.69,250.39H158.21a4.25,4.25,0,0,1-4.25-4.25V145.66a4.25,4.25,0,0,1,4.25-4.25H258.69a4.25,4.25,0,0,1,4.25,4.25V246.14A4.25,4.25,0,0,1,258.69,250.39Zm-96.23-8.5h92v-92h-92Z"/></g></g></svg>