<svg xmlns="http://www.w3.org/2000/svg" viewBox="0 0 416.9 406.73"><defs><style>.cls-1{fill:#ddeaf3;}.cls-2{fill:#0e477e;}</style></defs><title>Рассветы</title><g id="Layer_2" data-name="Layer 2"><g id="Layer_1-2" data-name="Layer 1"><path class="cls-1" d="M296.27,132.19C260.22,92.9,239.42,69.33,208.45,0c-31,69.33-51.76,92.9-87.82,132.19S0,203.37,0,203.37s84.58,31.89,120.63,71.18,56.85,62.85,87.82,132.18c31-69.33,51.77-92.9,87.82-132.18S416.9,203.37,416.9,203.37,332.32,171.48,296.27,132.19Z"/><path class="cls-2" d="M208.45,272.92a4.25,4.25,0,0,1-4.25-4.25V248.3a4.25,4.25,0,0,1,8.5,0v20.37A4.25,4.25,0,0,1,208.45,272.92Z"/><path class="cls-2" d="M208.45,162.68a4.25,4.25,0,0,1-4.25-4.25V138.06a4.25,4.25,0,0,1,8.5,0v20.37A4.25,4.25,0,0,1,208.45,162.68Z"/><path class="cls-2" d="M208.45,239.51a36.15,36.15,0,1,1,36.14-36.14A36.18,36.18,0,0,1,208.45,239.51Zm0-63.78a27.64,27.64,0,1,0,27.64,27.64A27.67,27.67,0,0,0,208.45,175.73Z"/><path class="cls-2" d="M162.27,253.8a4.26,4.26,0,0,1-3-7.26l14.4-14.4a4.25,4.25,0,1,1,6,6l-14.4,14.4A4.25,4.25,0,0,1,162.27,253.8Z"/><path class="cls-2" d="M240.23,175.84a4.25,4.25,0,0,1-3-7.26l14.4-14.4a4.26,4.26,0,0,1,6,6l-14.41,14.4A4.22,4.22,0,0,1,240.23,175.84Z"/><path class="cls-2" d="M163.51,207.62H143.15a4.25,4.25,0,1,1,0-8.5h20.36a4.25,4.25,0,0,1,0,8.5Z"/><path class="cls-2" d="M273.76,207.62H253.39a4.25,4.25,0,0,1,0-8.5h20.37a4.25,4.25,0,0,1,0,8.5Z"/><path class="cls-2" d="M176.67,175.84a4.23,4.23,0,0,1-3-1.24l-14.4-14.4a4.25,4.25,0,1,1,6-6l14.4,14.4a4.25,4.25,0,0,1-3,7.26Z"/><path class="cls-2" d="M254.63,253.8a4.25,4.25,0,0,1-3-1.25l-14.4-14.4a4.25,4.25,0,1,1,6-6l14.41,14.4a4.26,4.26,0,0,1-3,7.26Z"/></g></g></svg>