<svg xmlns="http://www.w3.org/2000/svg" viewBox="0 0 416.9 406.73"><defs><style>.cls-1{fill:#ddeaf3;}.cls-2{fill:#0e477e;}</style></defs><title>Огни города</title><g id="Layer_2" data-name="Layer 2"><g id="Layer_1-2" data-name="Layer 1"><path class="cls-1" d="M296.27,132.19C260.22,92.9,239.42,69.33,208.45,0c-31,69.33-51.76,92.9-87.82,132.19S0,203.37,0,203.37s84.58,31.89,120.63,71.18,56.85,62.85,87.82,132.18c31-69.33,51.77-92.9,87.82-132.18S416.9,203.37,416.9,203.37,332.32,171.48,296.27,132.19Z"/><path class="cls-2" d="M209.86,266.42a64.31,64.31,0,0,1-28.52-121.94,4.25,4.25,0,0,1,5.94,5.1,55.84,55.84,0,0,0,53.18,72.71,55.17,55.17,0,0,0,24.74-5.77,4.25,4.25,0,0,1,5.94,5.1A64.06,64.06,0,0,1,209.86,266.42Zm-33-109.3A55.81,55.81,0,1,0,259.32,228a63.71,63.71,0,0,1-18.86,2.8,64.37,64.37,0,0,1-64.3-64.29A65,65,0,0,1,176.84,157.12Z"/><path class="cls-2" d="M243.59,194.67a4.25,4.25,0,0,1-3.88-2.52,41.24,41.24,0,0,0-9.15-13.76c-2.76-3-9.74-6.08-12-6.92a4.26,4.26,0,0,1,0-8c2.39-.9,9.21-3.91,12-6.92a41.14,41.14,0,0,0,9.15-13.76,4.24,4.24,0,0,1,3.88-2.51h0a4.24,4.24,0,0,1,3.88,2.51,41.14,41.14,0,0,0,9.15,13.76h0c2.76,3,9.58,6,12,6.92a4.26,4.26,0,0,1,0,8c-2.39.91-9.21,3.92-12,6.92a41.24,41.24,0,0,0-9.15,13.76A4.25,4.25,0,0,1,243.59,194.67ZM230,167.49a29.09,29.09,0,0,1,6.83,5.15,53.5,53.5,0,0,1,6.77,8.53,54.07,54.07,0,0,1,6.77-8.53,29.3,29.3,0,0,1,6.83-5.15,29,29,0,0,1-6.83-5.15h0a54,54,0,0,1-6.77-8.52,53.43,53.43,0,0,1-6.77,8.52A28.82,28.82,0,0,1,230,167.49Z"/></g></g></svg>