<svg width="40" height="40" viewBox="0 0 40 40" fill="none" xmlns="http://www.w3.org/2000/svg">
<g clip-path="url(#clip0_4501_2360)">
<rect width="40" height="40" fill="white"/>
<path fill-rule="evenodd" clip-rule="evenodd" d="M5.09169 21.9996H1.07451C0.52546 21.9996 0.0791016 22.4477 0.0791016 22.999C0.0791016 23.5502 0.525455 23.9983 1.07451 23.9983H24.9721C25.5211 23.9983 25.9675 23.5502 25.9675 22.999C25.9675 22.4477 25.5211 21.9996 24.9721 21.9996H7.08811C7.59796 15.2905 13.1878 9.99939 19.9988 9.99939C26.8099 9.99939 32.4013 15.2905 32.9096 21.9996H28.9783C28.4292 21.9996 27.9828 22.4477 27.9828 22.999C27.9828 23.5502 28.4292 23.9983 28.9783 23.9983H38.9233C39.4724 23.9983 39.9187 23.5502 39.9187 22.999C39.9187 22.4477 39.4724 21.9996 38.9233 21.9996H34.9061C34.3926 14.1865 27.91 7.99872 19.9988 7.99872C12.0876 7.99872 5.60374 14.1865 5.09169 21.9996Z" fill="#0D78DB"/>
<path fill-rule="evenodd" clip-rule="evenodd" d="M31.9291 27.9995H35.937C36.486 27.9995 36.9324 27.5514 36.9324 27.0002C36.9324 26.4489 36.486 26.0008 35.937 26.0008H31.9291C31.3801 26.0008 30.9337 26.4489 30.9337 27.0002C30.9337 27.5514 31.3801 27.9995 31.9291 27.9995ZM18.0005 27.9995H27.9771C28.5262 27.9995 28.9725 27.5514 28.9725 27.0002C28.9725 26.4489 28.5262 26.0008 27.9771 26.0008H18.0005C17.4514 26.0008 17.0051 26.4489 17.0051 27.0002C17.0051 27.5514 17.4514 27.9995 18.0005 27.9995ZM4.0628 27.9995H14.0227C14.5717 27.9995 15.0181 27.5514 15.0181 27.0002C15.0181 26.4489 14.5717 26.0008 14.0227 26.0008H4.0628C3.51374 26.0008 3.06738 26.4489 3.06738 27.0002C3.06738 27.5514 3.51374 27.9995 4.0628 27.9995Z" fill="#0D78DB"/>
<path fill-rule="evenodd" clip-rule="evenodd" d="M15.0292 31.999H32.9485C33.4976 31.999 33.944 31.5509 33.944 30.9996C33.944 30.4484 33.4976 30.0002 32.9485 30.0002H15.0292C14.4801 30.0002 14.0338 30.4484 14.0338 30.9996C14.0338 31.5509 14.4801 31.999 15.0292 31.999ZM7.05059 31.999H11.0192C11.5683 31.999 12.0147 31.5509 12.0147 30.9996C12.0147 30.4484 11.5683 30.0002 11.0192 30.0002H7.05059C6.50153 30.0002 6.05518 30.4484 6.05518 30.9996C6.05518 31.5509 6.50153 31.999 7.05059 31.999Z" fill="#0D78DB"/>
<path fill-rule="evenodd" clip-rule="evenodd" d="M13.0276 39.9999H18.0009C18.5499 39.9999 18.9963 39.5518 18.9963 39.0005C18.9963 38.4493 18.5499 38.0012 18.0009 38.0012H13.0276C12.4786 38.0012 12.0322 38.4493 12.0322 39.0005C12.0322 39.5518 12.4786 39.9999 13.0276 39.9999ZM21.9921 39.9999H26.973C27.522 39.9999 27.9684 39.5518 27.9684 39.0005C27.9684 38.4493 27.522 38.0012 26.973 38.0012H21.9921C21.443 38.0012 20.9967 38.4493 20.9967 39.0005C20.9967 39.5518 21.443 39.9999 21.9921 39.9999Z" fill="#0D78DB"/>
<path fill-rule="evenodd" clip-rule="evenodd" d="M25.9922 35.9984H30.9712C31.5203 35.9984 31.9666 35.5503 31.9666 34.9991C31.9666 34.4478 31.5203 33.9997 30.9712 33.9997H25.9922C25.4432 33.9997 24.9968 34.4478 24.9968 34.9991C24.9968 35.5503 25.4432 35.9984 25.9922 35.9984ZM9.02911 35.9984H21.9919C22.541 35.9984 22.9874 35.5503 22.9874 34.9991C22.9874 34.4478 22.541 33.9997 21.9919 33.9997H9.02911C8.48005 33.9997 8.03369 34.4478 8.03369 34.9991C8.03369 35.5503 8.48005 35.9984 9.02911 35.9984Z" fill="#0D78DB"/>
<path fill-rule="evenodd" clip-rule="evenodd" d="M19.0034 0.999193V4.99862C19.0034 5.54986 19.4498 5.99799 19.9988 5.99799C20.5479 5.99799 20.9942 5.54986 20.9942 4.99862V0.999193C20.9942 0.447952 20.5479 -0.000183105 19.9988 -0.000183105C19.4498 -0.000183105 19.0034 0.447947 19.0034 0.999193Z" fill="#0D78DB"/>
<path fill-rule="evenodd" clip-rule="evenodd" d="M30.1086 3.4495L28.1159 6.91266C27.8413 7.39079 28.0038 8.00204 28.4801 8.27958C28.9563 8.55521 29.567 8.39208 29.8415 7.91395L31.8343 4.45079C32.1088 3.97266 31.9463 3.36141 31.4701 3.08387C30.9939 2.80824 30.385 2.97137 30.1086 3.4495Z" fill="#0D78DB"/>
<path fill-rule="evenodd" clip-rule="evenodd" d="M38.5052 11.147L35.0557 13.1476C34.5795 13.4233 34.417 14.0364 34.6915 14.5146C34.9661 14.9927 35.5768 15.1558 36.053 14.8802L39.5025 12.8795C39.9787 12.6039 40.1412 11.9907 39.8667 11.5126C39.5921 11.0345 38.9814 10.8714 38.5052 11.147Z" fill="#0D78DB"/>
<path fill-rule="evenodd" clip-rule="evenodd" d="M0.49763 12.8795L3.94706 14.8802C4.42329 15.1558 5.03212 14.9927 5.30856 14.5146C5.58309 14.0364 5.42061 13.4252 4.94437 13.1477L1.49495 11.147C1.01871 10.8714 0.409888 11.0345 0.133448 11.5126C-0.141089 11.9907 0.0213905 12.6039 0.49763 12.8795Z" fill="#0D78DB"/>
<path fill-rule="evenodd" clip-rule="evenodd" d="M8.1642 4.45078L10.1569 7.91394C10.4315 8.39207 11.0422 8.55518 11.5184 8.27957C11.9947 8.00394 12.1571 7.39079 11.8826 6.91265L9.88988 3.44949C9.61534 2.97136 9.00462 2.80825 8.52838 3.08386C8.05215 3.35949 7.88968 3.97264 8.1642 4.45078Z" fill="#0D78DB"/>
</g>
<defs>
<clipPath id="clip0_4501_2360">
<rect width="40" height="40" fill="white"/>
</clipPath>
</defs>
</svg>
