<svg width="40" height="40" viewBox="0 0 40 40" fill="none" xmlns="http://www.w3.org/2000/svg">
<rect width="40" height="40" fill="white"/>
<rect y="21.926" width="8" height="2" rx="1" fill="#0D78DB"/>
<path d="M27.4783 21.9679H39.0476C39.3002 21.9679 39.5424 22.0682 39.721 22.2468C39.8996 22.4254 40 22.6677 40 22.9203C40 23.1729 39.8996 23.4151 39.721 23.5937C39.5424 23.7723 39.3002 23.8727 39.0476 23.8727H25.7134C25.707 23.8729 25.701 23.8751 25.6949 23.8773C25.6885 23.8796 25.6821 23.882 25.6752 23.882C25.659 23.882 25.6436 23.8752 25.6283 23.8683C25.6146 23.8623 25.601 23.8562 25.5866 23.8549C25.4592 23.8431 25.3357 23.8052 25.2236 23.7435C25.2114 23.7368 25.1982 23.7346 25.1849 23.7324C25.1698 23.7299 25.1548 23.7274 25.1413 23.7183C25.1102 23.6907 25.0811 23.661 25.0541 23.6293C24.9654 23.5502 24.8918 23.4555 24.8372 23.35C24.8148 23.3053 24.7961 23.2589 24.7814 23.2112C24.7603 23.1455 24.7467 23.0776 24.7407 23.0089C24.7332 22.9797 24.7272 22.9501 24.7228 22.9203C24.7516 22.7602 24.7983 22.6037 24.8618 22.454C24.867 22.4451 24.87 22.4357 24.873 22.4262C24.8764 22.4154 24.8798 22.4047 24.8865 22.3948L26.4211 20.131H13.577L14.8222 21.9679H21.9717C22.2243 21.9679 22.4665 22.0682 22.6451 22.2468C22.8237 22.4254 22.924 22.6677 22.924 22.9203C22.924 23.1729 22.8237 23.4151 22.6451 23.5937C22.4665 23.7723 22.2243 23.8727 21.9717 23.8727H10.385C10.1324 23.8727 9.89017 23.7723 9.71156 23.5937C9.53296 23.4151 9.43262 23.1729 9.43262 22.9203C9.43262 22.6677 9.53296 22.4254 9.71156 22.2468C9.89017 22.0682 10.1324 21.9679 10.385 21.9679H12.5197L10.9914 19.7134C10.8945 19.5701 10.8385 19.4032 10.8292 19.2304C10.82 19.0577 10.8579 18.8857 10.939 18.7329C11.02 18.5801 11.1411 18.4522 11.2893 18.3629C11.4374 18.2737 11.6071 18.2264 11.7801 18.2263H19.0458L19.0476 5.23799C19.0475 5.06113 19.0967 4.88776 19.1896 4.7373C19.2826 4.58684 19.4156 4.46524 19.5738 4.38615C19.732 4.30706 19.9091 4.27359 20.0852 4.28951C20.2613 4.30542 20.4296 4.37009 20.571 4.47625C24.0117 7.31342 26.4167 11.2096 27.4108 15.557C27.4619 15.7897 27.4243 16.0331 27.3052 16.2394C27.1861 16.4457 26.9942 16.6001 26.7672 16.6721L24.1443 17.4999C23.9035 17.5752 23.6427 17.5519 23.419 17.4351C23.1954 17.3183 23.0272 17.1176 22.9513 16.877C22.8755 16.6364 22.8981 16.3755 23.0144 16.1516C23.1306 15.9276 23.3309 15.759 23.5714 15.6825L25.3404 15.1244C24.5127 12.246 23.0081 9.60739 20.9523 7.42921L20.9506 18.2263H28.218C28.3909 18.2264 28.5606 18.2737 28.7088 18.3629C28.857 18.4522 28.9781 18.5801 29.0591 18.7329C29.1401 18.8857 29.1781 19.0577 29.1688 19.2304C29.1596 19.4032 29.1035 19.5701 29.0067 19.7134L27.4783 21.9679Z" fill="#0D78DB"/>
<path fill-rule="evenodd" clip-rule="evenodd" d="M31.9291 27.9995H35.937C36.486 27.9995 36.9324 27.5514 36.9324 27.0001C36.9324 26.4489 36.486 26.0007 35.937 26.0007H31.9291C31.3801 26.0007 30.9337 26.4489 30.9337 27.0001C30.9337 27.5513 31.3801 27.9995 31.9291 27.9995ZM18.0005 27.9995H27.9771C28.5262 27.9995 28.9725 27.5514 28.9725 27.0001C28.9725 26.4489 28.5262 26.0007 27.9771 26.0007H18.0005C17.4514 26.0007 17.0051 26.4489 17.0051 27.0001C17.0051 27.5513 17.4514 27.9995 18.0005 27.9995ZM4.0628 27.9995H14.0227C14.5717 27.9995 15.0181 27.5514 15.0181 27.0001C15.0181 26.4489 14.5717 26.0007 14.0227 26.0007H4.0628C3.51374 26.0007 3.06738 26.4489 3.06738 27.0001C3.06738 27.5513 3.51374 27.9995 4.0628 27.9995Z" fill="#0D78DB"/>
<path fill-rule="evenodd" clip-rule="evenodd" d="M15.0292 31.9989H32.9485C33.4976 31.9989 33.944 31.5508 33.944 30.9996C33.944 30.4483 33.4976 30.0002 32.9485 30.0002H15.0292C14.4801 30.0002 14.0338 30.4483 14.0338 30.9996C14.0338 31.5508 14.4801 31.9989 15.0292 31.9989ZM7.05059 31.9989H11.0192C11.5683 31.9989 12.0147 31.5508 12.0147 30.9996C12.0147 30.4483 11.5683 30.0002 11.0192 30.0002H7.05059C6.50153 30.0002 6.05518 30.4483 6.05518 30.9996C6.05518 31.5508 6.50153 31.9989 7.05059 31.9989Z" fill="#0D78DB"/>
<path fill-rule="evenodd" clip-rule="evenodd" d="M13.0272 39.9998H18.0004C18.5494 39.9998 18.9958 39.5517 18.9958 39.0004C18.9958 38.4492 18.5495 38.001 18.0004 38.001H13.0272C12.4781 38.001 12.0317 38.4492 12.0317 39.0004C12.0317 39.5517 12.4781 39.9998 13.0272 39.9998ZM21.9916 39.9998H26.9725C27.5216 39.9998 27.9679 39.5517 27.9679 39.0004C27.9679 38.4492 27.5216 38.001 26.9725 38.001H21.9916C21.4426 38.001 20.9962 38.4492 20.9962 39.0004C20.9962 39.5517 21.4425 39.9998 21.9916 39.9998Z" fill="#0D78DB"/>
<path fill-rule="evenodd" clip-rule="evenodd" d="M25.9922 35.9988H30.9712C31.5203 35.9988 31.9666 35.5506 31.9666 34.9994C31.9666 34.4481 31.5203 34 30.9712 34H25.9922C25.4432 34 24.9968 34.4481 24.9968 34.9994C24.9968 35.5506 25.4432 35.9988 25.9922 35.9988ZM9.02911 35.9988H21.9919C22.541 35.9988 22.9874 35.5506 22.9874 34.9994C22.9874 34.4481 22.541 34 21.9919 34H9.02911C8.48005 34 8.03369 34.4481 8.03369 34.9994C8.03369 35.5506 8.48005 35.9988 9.02911 35.9988Z" fill="#0D78DB"/>
</svg>
