<svg width="205" height="164" viewBox="0 0 205 164" fill="none" xmlns="http://www.w3.org/2000/svg">
<path d="M20.5306 145.249L17.7696 142.218H19.0473L22.6602 146.333V142.218H23.7179V146.333L27.3305 142.218H28.6083L25.8472 145.249L28.7599 149.31H27.5232L25.1597 146.003L23.7179 147.581V149.31H22.6602V147.581L21.2177 146.003L18.8549 149.31H17.6182L20.5306 145.249ZM179.292 142.218H180.349V144.878H182.246C183.783 144.878 185.048 145.51 185.048 147.005C185.048 148.417 183.991 149.309 182.369 149.309H179.292V142.218ZM182.274 148.376C183.331 148.376 183.976 147.924 183.976 147.033C183.976 146.208 183.318 145.783 182.233 145.783H180.349V148.376H182.274ZM186.326 142.218H187.383V149.309H186.326V142.218ZM169.856 148.376H170.623C171.202 147.32 171.573 145.839 171.573 143.452V142.219H176.628V148.376H177.698L177.534 151.079H176.654V149.309H170.913L170.72 151.079H169.856V148.376ZM175.57 148.376V143.15H172.589V144.138C172.589 145.894 172.245 147.457 171.75 148.376H175.57ZM161.585 145.771C161.585 143.767 163.151 142.066 165.296 142.066C167.424 142.066 168.989 143.739 168.989 145.771C168.989 147.773 167.41 149.474 165.268 149.474C163.138 149.474 161.585 147.8 161.585 145.771ZM167.904 145.771C167.904 144.249 166.764 143.001 165.268 143.001C163.728 143.001 162.671 144.249 162.671 145.771C162.671 147.293 163.797 148.528 165.296 148.528C166.833 148.528 167.904 147.293 167.904 145.771ZM153.838 142.218H157.272C158.688 142.218 159.594 142.918 159.594 143.987C159.594 144.919 159.002 145.373 158.413 145.619C159.263 145.854 159.978 146.374 159.978 147.374C159.978 148.568 158.96 149.309 157.395 149.309H153.838V142.218ZM157.079 145.262C157.931 145.262 158.521 144.865 158.521 144.125C158.521 143.535 158.028 143.123 157.107 143.123H154.895V145.262H157.079ZM157.258 148.404C158.275 148.404 158.893 147.95 158.893 147.21C158.893 146.525 158.275 146.113 157.121 146.113H154.895V148.404H157.258ZM140.912 151.188L141.269 150.351C141.613 150.53 141.928 150.612 142.382 150.612C143.013 150.612 143.411 150.283 143.838 149.282L140.609 142.218H141.777L144.359 148.129L146.64 142.218H147.766L144.785 149.541C144.181 151.009 143.494 151.545 142.423 151.545C141.833 151.545 141.392 151.421 140.912 151.188ZM128.643 145.771C128.643 143.767 130.209 142.066 132.284 142.066C133.63 142.066 134.468 142.63 135.128 143.329L134.453 144.041C133.891 143.452 133.231 143.001 132.269 143.001C130.827 143.001 129.729 144.221 129.729 145.771C129.729 147.306 130.855 148.528 132.339 148.528C133.244 148.528 133.919 148.061 134.481 147.457L135.182 148.103C134.468 148.897 133.617 149.474 132.284 149.474C130.209 149.474 128.643 147.787 128.643 145.771ZM121.569 142.218H122.627V146.305L126.514 142.218H127.819L124.852 145.29L127.903 149.309H126.651L124.125 146.059L122.627 147.594V149.309H121.569V142.218ZM112.86 145.771C112.86 143.713 114.302 142.066 116.265 142.066C118.367 142.066 119.576 143.739 119.576 145.825C119.576 145.922 119.576 146.03 119.563 146.196H113.93C114.081 147.69 115.18 148.554 116.43 148.554C117.407 148.554 118.094 148.157 118.67 147.554L119.329 148.144C118.615 148.938 117.75 149.474 116.404 149.474C114.451 149.474 112.86 147.979 112.86 145.771ZM118.505 145.345C118.382 144.056 117.64 142.96 116.239 142.96C115.016 142.96 114.081 143.975 113.93 145.345H118.505ZM103.573 149.309L103.696 148.404C103.833 148.446 104.081 148.5 104.204 148.5C105.056 148.5 105.77 148.13 105.77 142.808V142.219H110.797V149.309H109.74V143.15H106.773V143.316C106.773 148.843 105.77 149.419 104.425 149.419C104.191 149.419 103.792 149.365 103.573 149.309ZM96.1141 142.218H102.267V149.309H101.21V143.151H97.1714V149.309H96.1141V142.218ZM86.2916 142.218H87.2948L89.9457 145.949L92.5965 142.218H93.6127V149.309H92.5423V143.905L89.9177 147.499L87.3207 143.905V149.309H86.2916V142.218ZM76.8399 145.771C76.8399 143.767 78.4054 142.066 80.5484 142.066C82.6783 142.066 84.2436 143.739 84.2436 145.771C84.2436 147.773 82.6647 149.474 80.5222 149.474C78.3923 149.474 76.8399 147.8 76.8399 145.771ZM83.1585 145.771C83.1585 144.249 82.0186 143.001 80.5222 143.001C78.983 143.001 77.9252 144.249 77.9252 145.771C77.9252 147.293 79.052 148.528 80.5484 148.528C82.0877 148.528 83.1585 147.293 83.1585 145.771ZM69.7655 142.218H70.8232V146.305L74.7106 142.218H76.0164L73.0497 145.29L76.0989 149.309H74.8491L72.321 146.059L70.8232 147.594V149.309H69.7655V142.218ZM56.7017 142.218H57.7595V147.828L61.9773 142.218H63.007V149.309H61.9493V143.699L57.718 149.309H56.7017V142.218ZM57.8825 139.53L58.6112 139.379C58.7757 139.969 59.1472 140.34 59.82 140.34C60.4926 140.34 60.8642 139.969 61.0287 139.379L61.7572 139.53C61.5928 140.504 60.8493 141.204 59.82 141.204C58.7906 141.204 58.0472 140.504 57.8825 139.53ZM47.2503 145.771C47.2503 143.767 48.8161 142.066 50.9592 142.066C53.0885 142.066 54.6539 143.739 54.6539 145.771C54.6539 147.773 53.0736 149.474 50.9326 149.474C48.8012 149.474 47.2503 147.8 47.2503 145.771ZM53.5686 145.771C53.5686 144.249 52.429 143.001 50.9326 143.001C49.3933 143.001 48.336 144.249 48.336 145.771C48.336 147.293 49.4622 148.528 50.9592 148.528C52.4984 148.528 53.5686 147.293 53.5686 145.771ZM37.9639 149.309L38.0869 148.404C38.2254 148.446 38.4718 148.5 38.5951 148.5C39.4472 148.5 40.1623 148.13 40.1623 142.808V142.219H45.1898V149.309H44.1321V143.15H41.1641V143.316C41.1641 148.843 40.1623 149.419 38.8155 149.419C38.582 149.419 38.1838 149.365 37.9639 149.309ZM30.3527 142.218H31.4104V147.828L35.6288 142.218H36.6582V149.309H35.6009V143.699L31.3696 149.309H30.3527V142.218Z" fill="#3D3C3B"/>
<path d="M129.593 37.1232V37.1218C129.6 37.1069 129.603 37.0906 129.61 37.0723C129.634 37.0132 129.684 36.9658 129.745 36.9424C129.751 36.9392 129.758 36.9392 129.764 36.9378C131.389 36.4403 132.67 35.1625 133.175 33.5437V33.5419C133.182 33.5288 133.185 33.5107 133.192 33.4942C133.226 33.4106 133.31 33.3501 133.407 33.3501C133.504 33.3501 133.591 33.4106 133.626 33.4942C133.629 33.5107 133.636 33.5288 133.639 33.5419V33.5437C134.144 35.1625 135.428 36.4403 137.055 36.9378C137.058 36.9392 137.063 36.9392 137.065 36.941C137.129 36.9626 137.183 37.0118 137.208 37.0723C137.211 37.0906 137.217 37.1069 137.221 37.1218V37.1232C137.226 37.1366 137.227 37.1511 137.227 37.1646C137.227 37.258 137.173 37.3387 137.096 37.3744C137.073 37.3829 137.05 37.3893 137.027 37.3977C135.415 37.8985 134.16 39.1711 133.642 40.7738C133.642 40.7752 133.64 40.7784 133.64 40.7802C133.637 40.7997 133.631 40.8194 133.622 40.8393C133.585 40.9199 133.503 40.9772 133.409 40.9772C133.294 40.9772 133.197 40.8952 133.177 40.7849C132.674 39.1725 131.399 37.8985 129.786 37.3959C129.766 37.3893 129.746 37.3843 129.727 37.3776C129.646 37.3401 129.59 37.2595 129.59 37.1646C129.59 37.1511 129.59 37.1366 129.593 37.1232ZM70.556 37.1012V37.0994C70.5675 37.0747 70.5709 37.05 70.5806 37.0239C70.6198 36.9304 70.6957 36.8564 70.791 36.8218C70.8006 36.8172 70.8123 36.8154 70.8208 36.8122C73.3431 36.0385 75.3351 34.0553 76.1178 31.5426V31.5412C76.1289 31.5181 76.1341 31.4919 76.1424 31.4654C76.1983 31.3359 76.3266 31.2407 76.4776 31.2407C76.6292 31.2407 76.7624 31.3359 76.8184 31.4654C76.823 31.4919 76.8315 31.5181 76.8379 31.5412V31.5426C77.6225 34.0585 79.6173 36.0419 82.1435 36.8122C82.1467 36.8154 82.1531 36.8172 82.1577 36.8186C82.258 36.8532 82.3406 36.9272 82.3802 37.0239C82.3848 37.05 82.3933 37.0747 82.4012 37.0994V37.1012C82.4082 37.1207 82.4096 37.1441 82.4096 37.165C82.4096 37.3097 82.3275 37.4345 82.2041 37.4918C82.1694 37.5033 82.1332 37.5149 82.0986 37.528C79.5976 38.3049 77.6472 40.2803 76.8432 42.7697C76.8432 42.7729 76.8412 42.7761 76.8393 42.7793C76.8347 42.8119 76.8249 42.8418 76.8114 42.8712C76.8114 42.8712 76.8114 42.8712 76.8114 42.873C76.7522 42.9976 76.6272 43.0847 76.4794 43.0847C76.3 43.0847 76.1523 42.9568 76.1192 42.7878C75.3397 40.2835 73.36 38.3049 70.8534 37.5248C70.8254 37.5149 70.7942 37.5053 70.763 37.4968C70.638 37.4396 70.5508 37.3111 70.5508 37.165C70.5508 37.1441 70.5508 37.1207 70.556 37.1012ZM77.5279 27.3003V27.2985C77.5377 27.2758 77.5427 27.2525 77.5508 27.2278C77.5884 27.1393 77.6593 27.0704 77.7497 27.0374C77.7581 27.0328 77.768 27.031 77.7763 27.029C80.1492 26.3019 82.0223 24.4351 82.7591 22.0717V22.0705C82.7704 22.049 82.7736 22.0243 82.782 21.9978C82.8348 21.8782 82.9564 21.7879 83.0995 21.7879C83.2406 21.7879 83.3657 21.8782 83.4184 21.9978C83.4234 22.0243 83.4319 22.049 83.4383 22.0705V22.0717C84.175 24.4383 86.0512 26.3033 88.4278 27.029C88.431 27.031 88.4375 27.0328 88.4409 27.0342C88.5363 27.0654 88.6138 27.1375 88.6515 27.2278C88.6547 27.2525 88.6627 27.2758 88.6698 27.2985V27.3003C88.6762 27.318 88.6776 27.3396 88.6776 27.3609C88.6776 27.4973 88.6001 27.6137 88.4852 27.6682C88.4524 27.6779 88.4179 27.6895 88.3849 27.7008C86.0331 28.4333 84.1997 30.2919 83.4416 32.6337C83.4416 32.6351 83.4397 32.6383 83.4397 32.6415C83.4351 32.6715 83.4248 32.7006 83.4138 32.7272C83.4138 32.7286 83.4138 32.7286 83.4118 32.7286C83.3578 32.847 83.2374 32.9292 83.0995 32.9292C82.9316 32.9292 82.7919 32.8092 82.7605 32.65C82.0287 30.2939 80.1655 28.4333 77.8089 27.6994C77.7811 27.6895 77.7517 27.6811 77.7217 27.6728C77.6054 27.617 77.5228 27.4988 77.5228 27.3609C77.5228 27.3396 77.5228 27.318 77.5279 27.3003ZM87.6986 20.6936V20.6918C87.7085 20.6709 87.7117 20.6494 87.7202 20.6246C87.7564 20.5424 87.8222 20.4785 87.9062 20.4473C87.914 20.4423 87.9239 20.4409 87.9321 20.4389C90.1559 19.7575 91.9104 18.0088 92.6009 15.7954V15.7936C92.6112 15.7741 92.6144 15.7508 92.6222 15.7261C92.6718 15.6131 92.7849 15.5293 92.9184 15.5293C93.0517 15.5293 93.17 15.6131 93.2175 15.7261C93.2228 15.7508 93.2292 15.7741 93.2357 15.7936V15.7954C93.9266 18.012 95.6845 19.7595 97.9094 20.4389C97.9147 20.4409 97.9193 20.4423 97.9243 20.4455C98.0115 20.4735 98.0858 20.541 98.1202 20.6246C98.1234 20.6494 98.1315 20.6709 98.1379 20.6918V20.6936C98.143 20.7117 98.1464 20.7314 98.1464 20.7509C98.1464 20.8775 98.0721 20.9873 97.9654 21.0385C97.9342 21.0484 97.903 21.058 97.8718 21.0697C95.6664 21.7543 93.9495 23.4965 93.2391 25.6904C93.2391 25.6918 93.2377 25.6954 93.2377 25.6987C93.2324 25.7266 93.2242 25.7527 93.2129 25.7789C93.2129 25.7789 93.2129 25.7789 93.2129 25.7807C93.1602 25.8904 93.0484 25.9678 92.9184 25.9678C92.7622 25.9678 92.6307 25.8546 92.6027 25.7053C91.915 23.4979 90.1702 21.7543 87.9619 21.0679C87.9354 21.058 87.9094 21.0498 87.8814 21.0417C87.7709 20.9905 87.6954 20.8793 87.6954 20.7509C87.6954 20.7314 87.6954 20.7117 87.6986 20.6936ZM100.075 18.2732V18.2713C100.085 18.2518 100.088 18.2303 100.094 18.209C100.128 18.1322 100.19 18.0729 100.269 18.0432C100.275 18.04 100.285 18.0382 100.292 18.035C102.366 17.3995 104.004 15.7689 104.647 13.7051V13.7033C104.656 13.6852 104.66 13.6623 104.666 13.641C104.712 13.5342 104.819 13.457 104.942 13.457C105.067 13.457 105.177 13.5342 105.222 13.641C105.227 13.6623 105.233 13.6852 105.239 13.7033V13.7051C105.883 15.7723 107.523 17.4028 109.598 18.035C109.603 18.0382 109.608 18.04 109.611 18.0418C109.694 18.0679 109.761 18.1302 109.794 18.209C109.799 18.2303 109.805 18.2518 109.81 18.2713V18.2732C109.817 18.2894 109.819 18.3077 109.819 18.3258C109.819 18.4454 109.751 18.5473 109.651 18.5948C109.621 18.6032 109.592 18.6131 109.562 18.6245C107.506 19.2632 105.905 20.8872 105.244 22.9335C105.242 22.9349 105.242 22.9381 105.24 22.9413C105.235 22.9679 105.229 22.9926 105.217 23.0153V23.0171C105.17 23.1204 105.064 23.1926 104.944 23.1926C104.796 23.1926 104.675 23.0861 104.648 22.9484C104.007 20.8892 102.381 19.2632 100.32 18.6213C100.297 18.6131 100.271 18.605 100.244 18.598C100.142 18.5506 100.072 18.4472 100.072 18.3258C100.072 18.3077 100.072 18.2894 100.075 18.2732ZM112.451 20.701V20.6992C112.459 20.6811 112.462 20.6614 112.469 20.6419C112.5 20.5712 112.558 20.5139 112.63 20.4873C112.638 20.4841 112.646 20.4827 112.653 20.4809C114.577 19.8915 116.095 18.3775 116.692 16.463V16.4612C116.702 16.4429 116.705 16.4234 116.712 16.4021C116.755 16.3052 116.852 16.2312 116.967 16.2312C117.083 16.2312 117.185 16.3052 117.226 16.4021C117.23 16.4234 117.238 16.4429 117.243 16.4612V16.463C117.84 18.3793 119.361 19.8929 121.287 20.4809C121.29 20.4827 121.295 20.4841 121.3 20.4859C121.376 20.5107 121.438 20.568 121.469 20.6419C121.473 20.6614 121.479 20.6811 121.484 20.6992V20.701C121.489 20.7159 121.491 20.7336 121.491 20.7505C121.491 20.8602 121.428 20.9557 121.334 20.9999C121.308 21.0078 121.28 21.0162 121.254 21.0259C119.346 21.6189 117.859 23.1261 117.246 25.0243C117.245 25.0261 117.245 25.0295 117.243 25.0313C117.24 25.0554 117.233 25.0787 117.223 25.1016C117.221 25.1016 117.221 25.1016 117.221 25.1016C117.177 25.1983 117.08 25.2641 116.968 25.2641C116.831 25.2641 116.718 25.1672 116.694 25.0377C116.1 23.1281 114.59 21.6189 112.677 21.0245C112.656 21.0162 112.631 21.0096 112.609 21.0031C112.513 20.9589 112.447 20.862 112.447 20.7505C112.447 20.7336 112.447 20.7159 112.451 20.701ZM122.622 27.3152V27.3134C122.63 27.2971 122.633 27.279 122.638 27.2608C122.667 27.1952 122.72 27.1426 122.788 27.118C122.794 27.1146 122.801 27.1132 122.807 27.1114C124.582 26.5683 125.983 25.1722 126.534 23.4055V23.4041C126.54 23.3892 126.544 23.3709 126.55 23.3514C126.59 23.2611 126.68 23.1936 126.787 23.1936C126.892 23.1936 126.988 23.2611 127.026 23.3514C127.029 23.3709 127.035 23.3892 127.04 23.4041V23.4055C127.592 25.1736 128.994 26.5697 130.77 27.1114C130.774 27.1132 130.778 27.1146 130.782 27.1166C130.852 27.1393 130.91 27.1938 130.938 27.2608C130.941 27.279 130.948 27.2971 130.953 27.3134V27.3152C130.956 27.3297 130.958 27.3446 130.958 27.3609C130.958 27.4614 130.9 27.5498 130.815 27.5894C130.79 27.5974 130.764 27.6057 130.739 27.6155C128.981 28.1625 127.609 29.5519 127.044 31.302C127.042 31.3038 127.042 31.3072 127.042 31.3086C127.037 31.3317 127.031 31.3528 127.022 31.3727V31.3741H127.021C126.979 31.463 126.891 31.5235 126.787 31.5235C126.662 31.5235 126.557 31.4332 126.534 31.315C125.986 29.5533 124.593 28.1625 122.831 27.6141C122.811 27.6057 122.789 27.5993 122.766 27.5926C122.679 27.5532 122.619 27.4628 122.619 27.3609C122.619 27.3446 122.619 27.3297 122.622 27.3152Z" fill="#A2D9F7"/>
<path d="M67.7771 49.1029V49.1015L67.7781 49.0991C67.8004 48.9734 67.8834 48.8679 67.9957 48.8156L68.0205 48.8082L68.0265 48.8064L68.0269 48.806L68.033 48.8046L68.035 48.8036L68.0392 48.8026L68.0428 48.8012L68.0453 48.8008L68.0507 48.7994L68.0513 48.799L68.0932 48.7845C69.2554 48.4253 70.3107 47.82 71.1983 47.0316L71.277 46.9609L71.2929 46.9464L71.3712 46.8742L71.3861 46.8598L71.4636 46.7862L71.4779 46.7719L71.5685 46.6829L71.6444 46.6061L71.6579 46.5922L71.6607 46.589L71.7457 46.5005L71.8202 46.4209L71.8322 46.4075L71.9055 46.3265L71.9176 46.3128L71.9899 46.23L72.0012 46.2169L72.0728 46.1327L72.0835 46.1202L72.1539 46.0346L72.1642 46.0219L72.2337 45.9349L72.2439 45.9224L72.3124 45.834L72.3218 45.8219L72.3893 45.7315L72.3981 45.7198L72.4644 45.6287L72.4732 45.6165L72.5385 45.524L72.5465 45.5128L72.6107 45.4183L72.6188 45.407L72.6816 45.3117L72.6891 45.3005L72.7506 45.2036L72.7577 45.1929L72.8183 45.0948L72.8247 45.0846L72.8845 44.9845L72.8906 44.9746L72.9487 44.8737L72.9544 44.8639L73.0112 44.7616C73.1142 44.5734 73.2107 44.3812 73.2998 44.1852L73.3035 44.1778C73.3912 43.9836 73.4714 43.7864 73.5445 43.5852L73.5469 43.5796L73.6298 43.339L73.6316 43.3339L73.6695 43.2148V43.2129L73.6713 43.2091C73.6904 43.1199 73.7379 43.0417 73.8041 42.9852L73.807 42.9834L73.8438 42.956L73.8462 42.9546L73.8509 42.9512L73.8523 42.9508L73.8583 42.9476V42.9472L73.8643 42.9438L73.8651 42.943L73.8704 42.9406L73.8728 42.9392L73.8768 42.9373L73.8802 42.9355L73.8829 42.9341L73.8877 42.9317L73.8895 42.9309L73.8952 42.9281H73.896L73.9026 42.9253V42.9247L73.909 42.9225L73.9104 42.9215L73.9157 42.9197L73.9183 42.9187L73.9221 42.9172L73.9264 42.9158L73.9292 42.915L73.9342 42.9132L73.9356 42.9126L73.9423 42.9108L73.9426 42.9104L73.9497 42.9084H73.9501L73.9565 42.9066L73.9586 42.9062L73.9636 42.9048L73.9668 42.9044L73.9706 42.9034L73.9753 42.9024L73.9777 42.9016L73.9817 42.901L73.9837 42.9006H73.9851L73.992 42.8992L73.9994 42.8982H74.0004L74.0065 42.8973L74.0089 42.8969L74.0139 42.8963L74.0177 42.8959H74.0214L74.0266 42.8955L74.0288 42.8949H74.0349H74.0363L74.0437 42.8945H74.0512H74.0526H74.0586H74.06L74.0661 42.8949H74.0671H74.0737L74.088 42.8963H74.089L74.1029 42.8978V42.8982L74.11 42.8988V42.8992L74.117 42.9002L74.1174 42.9006L74.124 42.901L74.1244 42.9016C74.1963 42.9154 74.2605 42.9486 74.3119 42.9954L74.3133 42.9975L74.3169 43.0003L74.3183 43.0021L74.3286 43.0117L74.3314 43.0145L74.3338 43.0169L74.336 43.0194L74.3384 43.022L74.3407 43.0244L74.3431 43.0272L74.3453 43.0294L74.3477 43.0328L74.3495 43.0346L74.3505 43.0356L74.3523 43.0379L74.3537 43.0403L74.3566 43.0435L74.358 43.0453L74.3813 43.0775L74.3817 43.0789C74.393 43.0961 74.4033 43.1138 74.4111 43.1323L74.4129 43.1408C74.4232 43.1655 74.4303 43.1924 74.4345 43.22L74.4377 43.2296L74.4727 43.339L74.4774 43.353L74.5142 43.4628L74.5188 43.4759L74.5579 43.5858L74.5621 43.5979L74.6032 43.7076L74.6074 43.7189L74.6503 43.8287L74.6545 43.8389L74.6992 43.9489L74.703 43.9581L74.7499 44.0679L74.7534 44.0763C75.736 46.3279 77.6719 48.0701 80.0522 48.7975C80.0569 48.7994 80.0633 48.8026 80.0685 48.804L80.0881 48.811L80.0895 48.812L80.0965 48.8142L80.1179 48.8209C80.2433 48.88 80.3295 49.0046 80.3343 49.1513V49.1541V49.1588H80.3347V49.163V49.1658V49.1676V49.1704V49.1722V49.1751V49.1793H80.3343V49.1839V49.1867C80.3286 49.3329 80.2433 49.4581 80.1179 49.5168L80.0895 49.5256L80.0881 49.526L80.0824 49.5278L80.0782 49.5296L80.0685 49.5335C80.0633 49.5353 80.0569 49.5385 80.0522 49.5399L80.0112 49.5526L80.0041 49.5548L79.9272 49.5791L79.8801 49.5944L79.8028 49.6205L79.7575 49.6358L79.6798 49.6633L79.6355 49.6792L79.5572 49.7079L79.5562 49.7085C77.4001 50.516 75.6633 52.1722 74.7499 54.27L74.703 54.3793L74.6992 54.3892L74.6545 54.4989L74.6503 54.5092L74.6074 54.6192L74.6032 54.6302L74.5621 54.7402L74.5579 54.7522L74.5188 54.862L74.5142 54.875L74.4774 54.9844L74.4727 54.9985L74.4377 55.1082C74.4359 55.1116 74.4359 55.1149 74.4345 55.1181C74.4303 55.146 74.4238 55.1725 74.4129 55.1973L74.4111 55.2051C74.3976 55.2359 74.3795 55.2652 74.358 55.2922L74.3566 55.2946L74.3495 55.3028L74.3477 55.3052L74.3453 55.308L74.3431 55.3102L74.3407 55.3131L74.3384 55.3159L74.336 55.3183L74.3338 55.3211L74.3314 55.3229L74.33 55.3243L74.3286 55.3257L74.3268 55.3279L74.3235 55.3307L74.3221 55.3328L74.3183 55.3354L74.3169 55.3374L74.3133 55.3406L74.3119 55.342L74.308 55.3452L74.3024 55.3498L74.302 55.3508C74.2867 55.3643 74.2694 55.376 74.2521 55.3866L74.2507 55.387C74.2241 55.4029 74.1963 55.416 74.1663 55.4252L74.1645 55.4262L74.1595 55.4276L74.1581 55.428L74.1524 55.4294L74.1514 55.4298L74.1454 55.4313L74.1444 55.4319L74.1383 55.4333L74.1379 55.4337L74.1315 55.4347L74.1309 55.4351L74.1244 55.4365H74.124L74.1174 55.4375H74.117L74.11 55.4387L74.1029 55.4397L74.0961 55.4407H74.0954L74.089 55.4411L74.088 55.4415L74.0816 55.4421H74.0812L74.0745 55.4425L74.0661 55.4429H74.06L74.0512 55.4435L74.0437 55.4429H74.0363L74.0214 55.4421L74.0177 55.4415H74.0139L74.0089 55.4407H74.0065L73.992 55.4387V55.4383L73.9851 55.4375L73.9837 55.4369L73.9342 55.4244L73.9292 55.423L73.9264 55.4216L73.9104 55.416L73.909 55.4156L73.9026 55.4128L73.896 55.4099L73.8952 55.4095L73.8895 55.4071L73.8877 55.4057L73.8829 55.4039L73.8802 55.4021L73.8768 55.4007L73.8728 55.3983L73.8704 55.3973L73.8651 55.3945L73.8643 55.3941L73.8583 55.3904L73.8523 55.387L73.8509 55.3862L73.8462 55.3834L73.8438 55.3816L73.8406 55.3792L73.8374 55.3774L73.8345 55.3756L73.8303 55.3728L73.8289 55.3713L73.8237 55.3675L73.8233 55.3671L73.812 55.3587L73.8108 55.3579L73.8013 55.3498L73.7977 55.347L73.7963 55.3452L73.7917 55.3416L73.7911 55.3406L73.7808 55.3307L73.78 55.3303L73.7683 55.3183L73.7665 55.3159C73.7188 55.2642 73.6854 55.2001 73.6713 55.1287L73.6695 55.1245V55.1231L73.6316 55.0041L73.6298 54.9989L73.5901 54.8807L73.5879 54.875L73.5469 54.7583L73.5445 54.7526C73.4714 54.5516 73.3916 54.3538 73.3035 54.1602L73.2998 54.1528C73.2304 53.999 73.1557 53.8474 73.0774 53.6989L73.0724 53.6897L73.0112 53.5765L72.9544 53.474L72.9487 53.4643L72.8906 53.3632L72.8845 53.353L72.8247 53.2535L72.8183 53.2432L72.7577 53.1449L72.7506 53.1342L72.6816 53.0263L72.6188 52.9308L72.6107 52.9192L72.5465 52.8253L72.5385 52.8136L72.4732 52.7214L72.4644 52.7093L72.3981 52.618L72.3893 52.606L72.3218 52.5161L72.3124 52.5041L72.2439 52.4156L72.2337 52.403L72.1642 52.3159L72.1539 52.3035L72.0835 52.2178L72.0728 52.2048L72.0012 52.1209L71.9899 52.1075L71.9176 52.0251L71.9055 52.0116L71.8322 51.9306L71.8202 51.9171L71.7457 51.8375C70.7568 50.7888 69.5042 49.992 68.0932 49.553L68.0521 49.5385L68.0269 49.5321L68.0205 49.5292L68.0177 49.5282L68.0145 49.5274L67.9957 49.5218C67.8834 49.4701 67.8004 49.3644 67.7781 49.2388L67.7771 49.2366V49.2346L67.7729 49.197V49.1938V49.1927L67.7725 49.1793V49.1751V49.1722V49.1704V49.1676V49.1658V49.163V49.1588V49.1584V49.1541L67.7729 49.1453V49.1443V49.1407C67.7735 49.1276 67.7743 49.115 67.7771 49.1029ZM70.5565 61.237V61.239C70.568 61.2635 70.5714 61.2882 70.5811 61.3144C70.6203 61.4078 70.6962 61.4818 70.7914 61.5164C70.8011 61.5214 70.8128 61.5246 70.8212 61.526C73.3435 62.2997 75.3356 64.2832 76.1183 66.7957V66.7971C76.1294 66.8204 76.1346 66.8463 76.1428 66.8728C76.1988 67.0023 76.3271 67.0978 76.4781 67.0978C76.6296 67.0978 76.7629 67.0023 76.8189 66.8728C76.8235 66.8463 76.832 66.8204 76.8384 66.7971V66.7957C77.6229 64.2797 79.6178 62.2965 82.1439 61.526C82.1471 61.5246 82.1536 61.5214 82.1582 61.5196C82.2585 61.487 82.341 61.4111 82.3807 61.3144C82.3853 61.2882 82.3938 61.2635 82.4016 61.239V61.237C82.4087 61.2175 82.4101 61.1948 82.4101 61.1733C82.4101 61.0285 82.3279 60.9039 82.2045 60.8466C82.1699 60.8349 82.1337 60.8233 82.099 60.8102C79.5981 60.0333 77.6477 58.0583 76.8436 55.5685C76.8436 55.5653 76.8416 55.5621 76.8398 55.5589C76.8352 55.5263 76.8253 55.4966 76.8118 55.4672C76.8118 55.4672 76.8118 55.4672 76.8118 55.4652C76.7526 55.3406 76.6276 55.2536 76.4799 55.2536C76.3005 55.2536 76.1527 55.3816 76.1197 55.5511C75.3402 58.0547 73.3604 60.0333 70.8538 60.8134C70.8259 60.8233 70.7946 60.8331 70.7634 60.8414C70.6384 60.8991 70.5513 61.0253 70.5513 61.1733C70.5513 61.1948 70.5512 61.2175 70.5565 61.237ZM77.5283 71.0383V71.0397C77.5382 71.0626 77.5432 71.0859 77.5513 71.1104C77.5889 71.1989 77.6598 71.2678 77.7502 71.3008C77.7586 71.306 77.7685 71.3074 77.7767 71.3093C80.1497 72.0363 82.0227 73.9038 82.7596 76.2665V76.2683C82.7708 76.2892 82.7741 76.3139 82.7825 76.3405C82.8353 76.4601 82.9568 76.5503 83.1 76.5503C83.2411 76.5503 83.3661 76.4601 83.4189 76.3405C83.4239 76.3139 83.4324 76.2892 83.4388 76.2683V76.2665C84.1754 73.8999 86.0517 72.0349 88.4283 71.3093C88.4315 71.3074 88.4379 71.306 88.4413 71.3042C88.5368 71.2729 88.6143 71.2007 88.6519 71.1104C88.6551 71.0859 88.6632 71.0626 88.6702 71.0397V71.0383C88.6767 71.0202 88.6781 70.9989 88.6781 70.9774C88.6781 70.8411 88.6006 70.7247 88.4856 70.6702C88.4528 70.6604 88.4184 70.6487 88.3854 70.6377C86.0336 69.905 84.2002 68.0464 83.442 65.7045C83.442 65.7031 83.4402 65.6999 83.4402 65.6967C83.4356 65.667 83.4253 65.6376 83.4142 65.6111C83.4142 65.6111 83.4142 65.6097 83.4122 65.6097C83.3583 65.4915 83.2379 65.4091 83.1 65.4091C82.9321 65.4091 82.7924 65.5291 82.761 65.6883C82.0292 68.0446 80.166 69.905 77.8094 70.6391C77.7816 70.6487 77.7522 70.6572 77.7222 70.6656C77.6058 70.7213 77.5233 70.8397 77.5233 70.9774C77.5233 70.9989 77.5233 71.0202 77.5283 71.0383ZM87.6991 77.6446V77.6465C87.709 77.668 87.7122 77.6889 87.7206 77.7136C87.7569 77.796 87.8227 77.8597 87.9066 77.8909C87.9145 77.8961 87.9244 77.8979 87.9326 77.8993C90.1564 78.5808 91.9108 80.3294 92.6014 82.5432V82.5446C92.6116 82.5641 92.6149 82.5888 92.6227 82.6121C92.6722 82.7253 92.7854 82.8089 92.9189 82.8089C93.0521 82.8089 93.1705 82.7253 93.218 82.6121C93.2232 82.5888 93.2297 82.5641 93.2361 82.5446V82.5432C93.9271 80.3262 95.685 78.5794 97.9099 77.8993C97.9152 77.8979 97.9198 77.8961 97.9248 77.8927C98.012 77.8648 98.0863 77.7974 98.1207 77.7136C98.1239 77.6889 98.132 77.668 98.1384 77.6465V77.6446C98.1434 77.6266 98.1469 77.6071 98.1469 77.5874C98.1469 77.4609 98.0726 77.351 97.9659 77.2997C97.9347 77.2901 97.9035 77.2802 97.8723 77.2686C95.6668 76.5839 93.95 74.8417 93.2395 72.648C93.2395 72.6466 93.2381 72.6432 93.2381 72.64C93.2329 72.612 93.2247 72.5855 93.2134 72.5596C93.2134 72.5596 93.2134 72.5596 93.2134 72.5576C93.1606 72.4478 93.0489 72.3704 92.9189 72.3704C92.7626 72.3704 92.6312 72.4836 92.6032 72.6329C91.9155 74.8403 90.1707 76.5839 87.9624 77.2704C87.9358 77.2802 87.9099 77.2887 87.8819 77.2965C87.7714 77.3478 87.6959 77.4595 87.6959 77.5874C87.6959 77.6071 87.6959 77.6266 87.6991 77.6446ZM100.075 80.0651V80.0669C100.085 80.0866 100.088 80.1079 100.095 80.1294C100.128 80.2066 100.19 80.2657 100.269 80.295C100.276 80.2983 100.285 80.3001 100.292 80.3035C102.366 80.9387 104.004 82.5693 104.647 84.6332V84.635C104.657 84.6547 104.66 84.676 104.667 84.6975C104.713 84.804 104.82 84.8832 104.943 84.8832C105.068 84.8832 105.178 84.804 105.223 84.6975C105.227 84.676 105.234 84.6547 105.239 84.635V84.6332C105.884 82.5661 107.523 80.9355 109.599 80.3035C109.604 80.3001 109.608 80.2983 109.612 80.2968C109.694 80.2703 109.761 80.208 109.794 80.1294C109.799 80.1079 109.806 80.0866 109.811 80.0669V80.0651C109.817 80.0488 109.819 80.0307 109.819 80.0124C109.819 79.8942 109.751 79.7909 109.651 79.7435C109.621 79.735 109.592 79.7254 109.562 79.7137C107.507 79.0751 105.905 77.4511 105.244 75.4049C105.242 75.4035 105.242 75.4001 105.24 75.3983C105.236 75.3704 105.229 75.3458 105.218 75.3229V75.3211C105.17 75.2178 105.065 75.1456 104.944 75.1456C104.797 75.1456 104.675 75.2522 104.648 75.3905C104.007 77.4493 102.381 79.0751 100.32 79.7169C100.297 79.7254 100.271 79.7336 100.245 79.7402C100.143 79.7877 100.072 79.891 100.072 80.0124C100.072 80.0307 100.072 80.0488 100.075 80.0651ZM112.451 77.6376V77.639C112.459 77.6573 112.463 77.6768 112.469 77.6967C112.5 77.7671 112.558 77.8229 112.63 77.8509C112.639 77.8541 112.647 77.8559 112.653 77.8573C114.578 78.4471 116.096 79.9593 116.692 81.8758V81.8772C116.703 81.8953 116.706 81.9152 116.712 81.9363C116.755 82.0336 116.852 82.107 116.967 82.107C117.084 82.107 117.186 82.0336 117.227 81.9363C117.23 81.9152 117.239 81.8953 117.243 81.8772V81.8758C117.84 79.9575 119.362 78.4453 121.287 77.8573C121.291 77.8559 121.296 77.8541 121.3 77.8527C121.376 77.828 121.439 77.7689 121.47 77.6967C121.473 77.6768 121.48 77.6573 121.484 77.639V77.6376C121.489 77.6227 121.491 77.6047 121.491 77.5884C121.491 77.4784 121.428 77.3831 121.335 77.3389C121.309 77.3305 121.281 77.322 121.255 77.3124C119.347 76.7198 117.86 75.2122 117.246 73.314C117.245 73.3126 117.245 73.309 117.243 73.3075C117.24 73.2828 117.233 73.2601 117.224 73.2368C117.222 73.2368 117.222 73.2368 117.222 73.2368C117.177 73.1399 117.081 73.0744 116.969 73.0744C116.832 73.0744 116.719 73.1711 116.694 73.3009C116.1 75.2108 114.591 76.7198 112.678 77.3142C112.657 77.322 112.632 77.3287 112.609 77.3357C112.513 77.3799 112.448 77.4766 112.448 77.5884C112.448 77.6047 112.448 77.6227 112.451 77.6376ZM122.622 71.0234V71.0248C122.63 71.0417 122.634 71.0594 122.639 71.0775C122.668 71.143 122.721 71.1957 122.788 71.2204C122.795 71.2236 122.801 71.2254 122.808 71.2268C124.582 71.7706 125.983 73.1646 126.534 74.933V74.9348C126.541 74.9496 126.544 74.9677 126.551 74.9874C126.59 75.0777 126.681 75.1452 126.788 75.1452C126.893 75.1452 126.988 75.0777 127.026 74.9874C127.029 74.9677 127.036 74.9496 127.041 74.9348V74.933C127.592 73.1646 128.995 71.7686 130.771 71.2268C130.774 71.2254 130.779 71.2236 130.782 71.2222C130.853 71.1989 130.911 71.145 130.939 71.0775C130.942 71.0594 130.948 71.0417 130.953 71.0248V71.0234C130.956 71.0085 130.958 70.9937 130.958 70.9774C130.958 70.8773 130.9 70.7884 130.815 70.7492C130.79 70.741 130.764 70.7325 130.74 70.7227C128.982 70.1759 127.61 68.7869 127.044 67.0363C127.042 67.0349 127.042 67.0316 127.042 67.0298C127.038 67.0069 127.031 66.9856 127.023 66.9659V66.9641H127.021C126.98 66.8757 126.891 66.8148 126.788 66.8148C126.662 66.8148 126.558 66.905 126.534 67.0232C125.987 68.7851 124.594 70.1759 122.831 70.7247C122.811 70.7325 122.79 70.7396 122.767 70.746C122.68 70.7852 122.619 70.8755 122.619 70.9774C122.619 70.9937 122.619 71.0085 122.622 71.0234ZM129.594 61.2153V61.2171C129.6 61.2315 129.604 61.2482 129.611 61.2645C129.635 61.325 129.684 61.3731 129.745 61.3958C129.752 61.399 129.758 61.399 129.765 61.401C131.39 61.8985 132.671 63.1758 133.176 64.7951V64.7966C133.182 64.8094 133.186 64.8277 133.192 64.844C133.227 64.9278 133.31 64.9887 133.407 64.9887C133.504 64.9887 133.592 64.9278 133.626 64.844C133.629 64.8277 133.636 64.8094 133.64 64.7966V64.7951C134.144 63.1758 135.429 61.8985 137.055 61.401C137.059 61.399 137.063 61.399 137.065 61.3976C137.129 61.3763 137.183 61.3268 137.208 61.2645C137.211 61.2482 137.218 61.2315 137.221 61.2171V61.2153C137.226 61.2022 137.228 61.1873 137.228 61.1743C137.228 61.0806 137.173 61.0002 137.096 60.9638C137.073 60.956 137.05 60.9493 137.027 60.9411C135.416 60.4402 134.161 59.1675 133.643 57.565C133.643 57.5632 133.641 57.5598 133.641 57.5586C133.638 57.5385 133.631 57.519 133.623 57.4993C133.585 57.4171 133.503 57.3612 133.409 57.3612C133.294 57.3612 133.197 57.4436 133.177 57.5534C132.674 59.1657 131.4 60.4401 129.786 60.9425C129.767 60.9493 129.747 60.9541 129.727 60.9606C129.646 60.9984 129.59 61.0788 129.59 61.1743C129.59 61.1873 129.59 61.2022 129.594 61.2153Z" fill="#20ABE3"/>
<path d="M19.6569 121.292C19.1552 123.192 18.6783 124.221 17.8859 125.251C16.3811 127.096 13.8437 128.126 10.6711 128.126C7.79145 128.126 5.49281 127.256 3.88086 125.592C2.03115 123.668 1 120.712 1 117.308C1 113.826 2.10986 110.791 4.09163 108.811C5.67701 107.202 8.05497 106.305 10.6991 106.305C12.76 106.305 14.3188 106.701 15.7727 107.571C16.9615 108.284 17.9139 109.285 18.573 110.448C18.8905 111.001 19.0765 111.449 19.392 112.479L15.7201 113.297C15.3499 112.162 15.1112 111.661 14.5835 111.027C13.6838 109.973 12.3638 109.418 10.7257 109.418C6.97289 109.418 4.70002 112.321 4.70002 117.177C4.70002 122.005 7.02524 125.013 10.7257 125.013C12.574 125.013 14.1607 124.3 15.0063 123.06C15.4552 122.426 15.6656 121.847 15.8776 120.632L19.6569 121.292ZM204 127.889C203.048 127.757 202.202 127.705 200.59 127.705H192.345C190.76 127.705 190.046 127.731 188.989 127.784C189.148 126.728 189.201 125.858 189.201 124.301V110.025C189.201 108.652 189.148 107.861 188.989 106.621C190.046 106.674 190.733 106.7 192.345 106.7H200.326C201.646 106.7 202.52 106.647 203.735 106.516V109.998C202.73 109.867 201.885 109.815 200.326 109.815H192.715V115.25H199.137C200.512 115.25 201.41 115.197 202.572 115.065V118.521C201.489 118.363 200.776 118.337 199.137 118.337H192.689V124.565H200.617C202.097 124.565 202.864 124.511 204 124.38V127.889ZM163.99 127.704C164.15 126.755 164.202 125.778 164.202 124.3V110.341C164.202 108.732 164.15 107.755 163.99 106.701H167.849C167.69 107.702 167.637 108.785 167.637 110.341V119.208C167.637 120.316 167.558 121.9 167.451 122.928C168.034 121.847 168.879 120.474 169.514 119.552L176.199 109.497C177.098 108.153 177.574 107.361 177.81 106.701H181.933C181.775 107.781 181.723 108.732 181.723 110.103V123.719C181.723 125.514 181.802 126.834 181.933 127.704H178.075C178.209 126.755 178.287 125.514 178.287 123.719V115.092C178.287 114.484 178.34 113.297 178.366 112.796C178.447 111.819 178.447 111.819 178.473 111.449C177.838 112.689 177.177 113.826 176.676 114.617L169.858 124.882C169.091 126.043 168.616 126.808 168.165 127.704H163.99ZM137.989 126.49C137.989 125.883 137.936 125.144 137.831 124.485C138.12 124.485 138.12 124.485 138.703 124.512C139.125 124.538 139.337 124.538 139.839 124.538C140.896 121.952 141.293 120.738 141.715 118.812C142.216 116.411 142.481 113.771 142.481 111.055V110.078C142.481 108.626 142.429 107.756 142.269 106.674C143.776 106.753 144.093 106.753 145.599 106.753H154.005C155.642 106.753 156.223 106.753 157.333 106.674C157.175 107.835 157.123 108.759 157.123 110.078V124.538C157.756 124.538 158.443 124.512 159.131 124.485C159.024 125.725 158.971 126.464 158.971 126.622V128.1C158.971 129.129 158.971 129.234 159.131 130.397H155.272C155.378 129.789 155.404 129.393 155.404 128.285V127.625H141.583V128.707C141.583 129.26 141.636 129.973 141.715 130.397H137.804C137.91 129.684 137.989 128.97 137.989 128.285V126.49ZM153.607 124.538V109.866H145.943C145.864 114.142 145.733 115.909 145.308 118.259C144.886 120.66 144.49 121.952 143.408 124.538H153.607ZM120.179 121.899C120.468 122.822 120.68 123.246 121.05 123.641C121.922 124.564 123.349 125.067 125.094 125.067C128.081 125.067 129.902 123.72 129.902 121.503C129.902 120.132 129.269 119.129 128.133 118.707C127.419 118.416 126.362 118.285 124.934 118.285C123.719 118.285 123.031 118.337 122.265 118.443V115.224C123.058 115.356 123.958 115.408 124.803 115.408C126.15 115.408 127.367 115.144 128 114.695C128.794 114.142 129.215 113.296 129.215 112.24C129.215 110.369 127.736 109.234 125.278 109.234C123.772 109.234 122.53 109.656 121.737 110.447C121.341 110.843 121.129 111.239 120.866 112.111L117.113 111.475C117.641 110.025 117.985 109.392 118.646 108.705C120.152 107.069 122.346 106.278 125.411 106.278C128.635 106.278 131.119 107.308 132.228 109.153C132.705 109.918 132.915 110.764 132.915 111.846C132.915 113.613 132.281 114.933 131.039 115.777C130.432 116.199 129.929 116.437 128.926 116.728C130.802 117.149 131.647 117.572 132.44 118.443C133.233 119.313 133.603 120.447 133.603 122.083C133.603 123.561 133.048 124.907 132.07 125.884C131.41 126.517 130.67 126.991 129.876 127.282C128.449 127.81 126.837 128.101 125.199 128.101C122.767 128.101 120.496 127.546 119.174 126.65C117.801 125.725 117.166 124.776 116.425 122.664L120.179 121.899ZM110.903 127.889C109.952 127.757 109.105 127.705 107.494 127.705H99.2496C97.6628 127.705 96.951 127.731 95.8933 127.784C96.0513 126.728 96.104 125.858 96.104 124.301V110.025C96.104 108.652 96.0513 107.861 95.8933 106.621C96.951 106.674 97.6367 106.7 99.2496 106.7H107.229C108.552 106.7 109.423 106.647 110.638 106.516V109.998C109.635 109.867 108.788 109.815 107.229 109.815H99.6198V115.25H106.042C107.415 115.25 108.313 115.197 109.476 115.065V118.521C108.393 118.363 107.678 118.337 106.042 118.337H99.5937V124.565H107.52C109 124.565 109.767 124.511 110.903 124.38V127.889ZM75.8636 127.704C74.3309 127.704 73.5645 127.73 72.4806 127.783C72.6666 126.675 72.7194 125.909 72.7194 124.222V109.893C72.7194 108.679 72.6405 107.729 72.5072 106.648C73.6173 106.701 74.04 106.701 75.8376 106.701H82.0734C86.17 106.701 88.4687 108.546 88.4687 111.845C88.4687 113.428 87.9938 114.617 86.9886 115.54C86.4082 116.093 85.9315 116.332 84.9021 116.648C86.2487 116.939 86.8571 117.203 87.5708 117.862C88.6547 118.865 89.2089 120.184 89.2089 121.9C89.2089 125.62 86.7504 127.704 82.3643 127.704H75.8636ZM81.7032 115.276C83.7129 115.276 84.9021 114.22 84.9021 112.4C84.9021 111.582 84.6374 110.868 84.2144 110.474C83.6322 109.945 82.7343 109.656 81.6772 109.656H76.2072V115.276H81.7032ZM76.2072 124.722H81.8892C84.241 124.722 85.5612 123.535 85.5612 121.423C85.5612 120.369 85.2983 119.629 84.7161 119.102C84.055 118.522 83.0518 118.205 81.8367 118.205H76.2072V124.722ZM52.3177 121.899C52.609 122.822 52.8193 123.246 53.1894 123.641C54.0625 124.564 55.4886 125.067 57.2334 125.067C60.2196 125.067 62.0437 123.72 62.0437 121.503C62.0437 120.132 61.4088 119.129 60.2723 118.707C59.5587 118.416 58.5013 118.285 57.0754 118.285C55.8586 118.285 55.1711 118.337 54.4047 118.443V115.224C55.1991 115.356 56.0968 115.408 56.9419 115.408C58.2906 115.408 59.5059 115.144 60.1409 114.695C60.9332 114.142 61.3562 113.296 61.3562 112.24C61.3562 110.369 59.8761 109.234 57.4174 109.234C55.9128 109.234 54.6694 109.656 53.8771 110.447C53.4803 110.843 53.2681 111.239 53.0054 112.111L49.2526 111.475C49.7803 110.025 50.1239 109.392 50.7848 108.705C52.2915 107.069 54.4852 106.278 57.5509 106.278C60.7738 106.278 63.2591 107.308 64.3689 109.153C64.844 109.918 65.0566 110.764 65.0566 111.846C65.0566 113.613 64.4217 114.933 63.1783 115.777C62.5714 116.199 62.0699 116.437 61.0653 116.728C62.9416 117.149 63.7867 117.572 64.5791 118.443C65.3721 119.313 65.7423 120.447 65.7423 122.083C65.7423 123.561 65.1881 124.907 64.2095 125.884C63.55 126.517 62.8101 126.991 62.0157 127.282C60.5898 127.81 58.9783 128.101 57.3387 128.101C54.9082 128.101 52.6351 127.546 51.3131 126.65C49.9397 125.725 49.3049 124.776 48.5651 122.664L52.3177 121.899ZM41.0346 108.891C42.9636 110.817 43.9948 113.694 43.9948 117.122C43.9948 123.799 40.1108 128.127 34.1111 128.127C28.112 128.127 24.2542 123.825 24.2542 117.122C24.2542 113.718 25.3113 110.791 27.2669 108.891C29.0906 107.096 31.283 106.252 34.0851 106.252C36.9908 106.252 39.237 107.096 41.0346 108.891ZM40.2948 117.122C40.2948 114.459 39.5545 112.321 38.2079 110.975C37.124 109.919 35.7233 109.365 34.1377 109.365C30.332 109.365 27.926 112.374 27.926 117.149C27.926 119.789 28.6924 122.004 30.0676 123.377C31.1509 124.433 32.5523 124.986 34.1638 124.986C37.943 124.986 40.2948 121.978 40.2948 117.122Z" fill="#3D3C3B"/>
</svg>
