<svg width="44" height="54" viewBox="0 0 44 54" fill="none" xmlns="http://www.w3.org/2000/svg">
<path d="M35.0121 36.6447L36.4844 37.9982L35.0121 36.6447L22.6228 50.1215L9.61321 37.2923L8.2089 38.7163L9.6132 37.2923C7.02996 34.7449 5.22617 31.4529 4.44046 27.8287C3.65469 24.2041 3.92478 20.4197 5.21454 16.957C6.50411 13.4947 8.75188 10.5174 11.6628 8.39414C14.5729 6.27155 18.0174 5.09556 21.5605 5.00558C25.1036 4.9156 28.5983 5.91529 31.6035 7.88645C34.6097 9.85821 36.9945 12.7162 38.4457 16.1075C39.8972 19.4993 40.3464 23.265 39.7329 26.9259C39.1195 30.5864 37.4731 33.9676 35.0121 36.6447Z" fill="white" stroke="#B45FD2" stroke-width="4"/>
<path d="M22 15L11 21L15 23.18V29.18L22 33L29 29.18V23.18L31 22.09V29H33V21L22 15ZM28.82 21L22 24.72L15.18 21L22 17.28L28.82 21ZM27 28L22 30.72L17 28V24.27L22 27L27 24.27V28Z" fill="black"/>
</svg>
