<svg width="135" height="136" viewBox="0 0 135 136" fill="none" xmlns="http://www.w3.org/2000/svg">
<path d="M1.5 68C41.1 48.2 47.7 41.6 67.5 2C87.3 41.6 93.9 48.2 133.5 68C93.9 87.8 87.3 94.4 67.5 134C47.7 94.4 41.1 87.8 1.5 68Z" fill="#D7DCE1"/>
<path d="M1.5 68C41.1 48.2 47.7 41.6 67.5 2C87.3 41.6 93.9 48.2 133.5 68C93.9 87.8 87.3 94.4 67.5 134C47.7 94.4 41.1 87.8 1.5 68Z" fill="#DFE7EE"/>
<path d="M1.5 68C41.1 48.2 47.7 41.6 67.5 2C87.3 41.6 93.9 48.2 133.5 68C93.9 87.8 87.3 94.4 67.5 134C47.7 94.4 41.1 87.8 1.5 68Z" fill="#DEECF6"/>
<path d="M1.5 68C41.1 48.2 47.7 41.6 67.5 2C87.3 41.6 93.9 48.2 133.5 68C93.9 87.8 87.3 94.4 67.5 134C47.7 94.4 41.1 87.8 1.5 68Z" fill="#DEEBF3"/>
<path d="M1.5 68C41.1 48.2 47.7 41.6 67.5 2C87.3 41.6 93.9 48.2 133.5 68C93.9 87.8 87.3 94.4 67.5 134C47.7 94.4 41.1 87.8 1.5 68Z" stroke="#D7DCE1"/>
<path d="M1.5 68C41.1 48.2 47.7 41.6 67.5 2C87.3 41.6 93.9 48.2 133.5 68C93.9 87.8 87.3 94.4 67.5 134C47.7 94.4 41.1 87.8 1.5 68Z" stroke="#DFE7EE"/>
<path d="M67.3346 60.5565C69.4404 60.5565 71.4599 61.393 72.9489 62.882C74.4379 64.371 75.2744 66.3906 75.2744 68.4964C75.2744 70.6021 74.4379 72.6217 72.9489 74.1107C71.4599 75.5997 69.4404 76.4362 67.3346 76.4362C65.2288 76.4362 63.2093 75.5997 61.7203 74.1107C60.2313 72.6217 59.3947 70.6021 59.3947 68.4964C59.3947 66.3906 60.2313 64.371 61.7203 62.882C63.2093 61.393 65.2288 60.5565 67.3346 60.5565ZM67.3346 48.6467C80.5677 48.6467 91.8687 56.8777 96.4474 68.4964C91.8687 80.115 80.5677 88.346 67.3346 88.346C54.1015 88.346 42.8004 80.115 38.2218 68.4964C42.8004 56.8777 54.1015 48.6467 67.3346 48.6467ZM43.9914 68.4964C46.1306 72.8641 49.4522 76.544 53.5787 79.1179C57.7053 81.6918 62.4712 83.0562 67.3346 83.0562C72.198 83.0562 76.9639 81.6918 81.0904 79.1179C85.217 76.544 88.5386 72.8641 90.6777 68.4964C88.5386 64.1286 85.217 60.4487 81.0904 57.8748C76.9639 55.301 72.198 53.9365 67.3346 53.9365C62.4712 53.9365 57.7053 55.301 53.5787 57.8748C49.4522 60.4487 46.1306 64.1286 43.9914 68.4964Z" fill="#0C487F"/>
</svg>
