<svg width="44" height="54" viewBox="0 0 44 54" fill="none" xmlns="http://www.w3.org/2000/svg">
<path d="M35.0121 36.6447L36.4844 37.9982L35.0121 36.6447L22.6228 50.1215L9.61321 37.2923L8.2089 38.7163L9.6132 37.2923C7.02996 34.7449 5.22617 31.4529 4.44046 27.8287C3.65469 24.2041 3.92478 20.4197 5.21454 16.957C6.50411 13.4947 8.75188 10.5174 11.6628 8.39414C14.5729 6.27155 18.0174 5.09556 21.5605 5.00558C25.1036 4.9156 28.5983 5.91529 31.6035 7.88645C34.6097 9.85821 36.9945 12.7162 38.4457 16.1075C39.8972 19.4993 40.3464 23.265 39.7329 26.9259C39.1195 30.5864 37.4731 33.9676 35.0121 36.6447Z" fill="white" stroke="#0D9866" stroke-width="4"/>
<path d="M15.6 28.8C16.35 28.2167 16.9377 27.5083 17.363 26.675C17.7883 25.8417 18.0007 24.95 18 24C17.9993 23.05 17.7867 22.1583 17.362 21.325C16.9373 20.4917 16.35 19.7833 15.6 19.2C15.0833 19.9 14.6877 20.6583 14.413 21.475C14.1383 22.2917 14.0007 23.1333 14 24C13.9993 24.8667 14.137 25.7083 14.413 26.525C14.689 27.3417 15.0847 28.1 15.6 28.8ZM22 32C22.9167 32 23.8043 31.8543 24.663 31.563C25.5217 31.2717 26.3007 30.834 27 30.25C26.05 29.4833 25.3127 28.5543 24.788 27.463C24.2633 26.3717 24.0007 25.2173 24 24C23.9993 22.7827 24.262 21.6283 24.788 20.537C25.314 19.4457 26.0513 18.5167 27 17.75C26.3 17.1667 25.521 16.7293 24.663 16.438C23.805 16.1467 22.9173 16.0007 22 16C21.0827 15.9993 20.1953 16.1453 19.338 16.438C18.4807 16.7307 17.7013 17.168 17 17.75C17.95 18.5167 18.6877 19.446 19.213 20.538C19.7383 21.63 20.0007 22.784 20 24C19.9993 25.216 19.7367 26.3703 19.212 27.463C18.6873 28.5557 17.95 29.4847 17 30.25C17.7 30.8333 18.4793 31.271 19.338 31.563C20.1967 31.855 21.084 32.0007 22 32ZM28.4 28.8C28.9167 28.1 29.3127 27.3417 29.588 26.525C29.8633 25.7083 30.0007 24.8667 30 24C29.9993 23.1333 29.8617 22.2917 29.587 21.475C29.3123 20.6583 28.9167 19.9 28.4 19.2C27.65 19.7833 27.0623 20.4917 26.637 21.325C26.2117 22.1583 25.9993 23.05 26 24C26.0007 24.95 26.2133 25.8417 26.638 26.675C27.0627 27.5083 27.65 28.2167 28.4 28.8ZM22 34C20.6167 34 19.3167 33.7373 18.1 33.212C16.8833 32.6867 15.825 31.9743 14.925 31.075C14.025 30.1757 13.3127 29.1173 12.788 27.9C12.2633 26.6827 12.0007 25.3827 12 24C11.9993 22.6173 12.262 21.3173 12.788 20.1C13.314 18.8827 14.0263 17.8243 14.925 16.925C15.8237 16.0257 16.882 15.3133 18.1 14.788C19.318 14.2627 20.618 14 22 14C23.382 14 24.682 14.2627 25.9 14.788C27.118 15.3133 28.1763 16.0257 29.075 16.925C29.9737 17.8243 30.6863 18.8827 31.213 20.1C31.7397 21.3173 32.002 22.6173 32 24C31.998 25.3827 31.7353 26.6827 31.212 27.9C30.6887 29.1173 29.9763 30.1757 29.075 31.075C28.1737 31.9743 27.1153 32.687 25.9 33.213C24.6847 33.739 23.3847 34.0013 22 34Z" fill="black"/>
</svg>
