<svg width="135" height="136" viewBox="0 0 135 136" fill="none" xmlns="http://www.w3.org/2000/svg">
<path d="M1.5 68C41.1 48.2 47.7 41.6 67.5 2C87.3 41.6 93.9 48.2 133.5 68C93.9 87.8 87.3 94.4 67.5 134C47.7 94.4 41.1 87.8 1.5 68Z" fill="#D7DCE1"/>
<path d="M1.5 68C41.1 48.2 47.7 41.6 67.5 2C87.3 41.6 93.9 48.2 133.5 68C93.9 87.8 87.3 94.4 67.5 134C47.7 94.4 41.1 87.8 1.5 68Z" fill="#DFE7EE"/>
<path d="M1.5 68C41.1 48.2 47.7 41.6 67.5 2C87.3 41.6 93.9 48.2 133.5 68C93.9 87.8 87.3 94.4 67.5 134C47.7 94.4 41.1 87.8 1.5 68Z" fill="#DEECF6"/>
<path d="M1.5 68C41.1 48.2 47.7 41.6 67.5 2C87.3 41.6 93.9 48.2 133.5 68C93.9 87.8 87.3 94.4 67.5 134C47.7 94.4 41.1 87.8 1.5 68Z" fill="#DEEBF3"/>
<path d="M1.5 68C41.1 48.2 47.7 41.6 67.5 2C87.3 41.6 93.9 48.2 133.5 68C93.9 87.8 87.3 94.4 67.5 134C47.7 94.4 41.1 87.8 1.5 68Z" stroke="#D7DCE1"/>
<path d="M1.5 68C41.1 48.2 47.7 41.6 67.5 2C87.3 41.6 93.9 48.2 133.5 68C93.9 87.8 87.3 94.4 67.5 134C47.7 94.4 41.1 87.8 1.5 68Z" stroke="#DFE7EE"/>
<g clip-path="url(#clip0_378_4486)">
<path fill-rule="evenodd" clip-rule="evenodd" d="M61.6893 40.5654C62.4787 38.7254 64.516 37.0561 67.0867 37.5521C71.0173 38.3068 75.1907 41.2881 75.484 46.1228L75.5 46.6668V53.3334H81.9133C83.4317 53.3334 84.9326 53.6574 86.3157 54.284C87.6987 54.9106 88.9321 55.8252 89.9332 56.9668C90.9344 58.1083 91.6803 59.4504 92.1211 60.9034C92.562 62.3564 92.6875 63.8867 92.4893 65.3921L92.4093 65.9094L89.9827 79.2428C89.5524 81.6109 88.3339 83.7639 86.5252 85.3518C84.7165 86.9398 82.4239 87.8693 80.02 87.9894L79.4893 88.0001H51.5C49.4594 88.0002 47.496 87.2206 46.0113 85.8207C44.5266 84.4208 43.633 82.5065 43.5133 80.4694L43.5 80.0001V64.0001C43.4999 61.9595 44.2795 59.9961 45.6794 58.5114C47.0793 57.0267 48.9936 56.1331 51.0307 56.0134L51.5 56.0001H55.0733L61.6893 40.5654ZM54.1667 61.3334H51.5C50.7928 61.3334 50.1145 61.6144 49.6144 62.1145C49.1143 62.6146 48.8333 63.2929 48.8333 64.0001V80.0001C48.8333 80.7073 49.1143 81.3856 49.6144 81.8857C50.1145 82.3858 50.7928 82.6668 51.5 82.6668H54.1667V61.3334ZM66.5 42.8801L59.716 58.7121C59.6212 58.9326 59.5566 59.1649 59.524 59.4028L59.5 59.7601V82.6668H79.4893C80.6652 82.6669 81.8081 82.2784 82.7403 81.5617C83.6726 80.8451 84.3418 79.8404 84.644 78.7041L84.7373 78.2881L87.164 64.9548C87.2981 64.2187 87.2758 63.4628 87.0987 62.7359C86.9215 62.0091 86.5934 61.3276 86.1357 60.7358C85.678 60.1441 85.1009 59.6552 84.4419 59.3011C83.7829 58.9469 83.0568 58.7353 82.3107 58.6801L81.9133 58.6668H75.5C74.1545 58.6672 72.8585 58.159 71.8719 57.2441C70.8853 56.3292 70.2809 55.0752 70.18 53.7334L70.1667 53.3334V46.6668C70.1667 45.1921 69.0093 43.6908 66.9533 43.0134L66.5 42.8801Z" fill="#0C487F"/>
</g>
<defs>
<clipPath id="clip0_378_4486">
<rect width="64" height="64" fill="white" transform="translate(35.5 32)"/>
</clipPath>
</defs>
</svg>
