<svg width="44" height="54" viewBox="0 0 44 54" fill="none" xmlns="http://www.w3.org/2000/svg">
<path d="M35.0121 36.6447L36.4844 37.9982L35.0121 36.6447L22.6228 50.1215L9.61321 37.2923L8.2089 38.7163L9.6132 37.2923C7.02996 34.7449 5.22617 31.4529 4.44046 27.8287C3.65469 24.2041 3.92478 20.4197 5.21454 16.957C6.50411 13.4947 8.75188 10.5174 11.6628 8.39414C14.5729 6.27155 18.0174 5.09556 21.5605 5.00558C25.1036 4.9156 28.5983 5.91529 31.6035 7.88645C34.6097 9.85821 36.9945 12.7162 38.4457 16.1075C39.8972 19.4993 40.3464 23.265 39.7329 26.9259C39.1195 30.5864 37.4731 33.9676 35.0121 36.6447Z" fill="white" stroke="#0D78DB" stroke-width="4"/>
<path d="M12 15H13.386C13.896 15 14.341 15.343 14.473 15.835L14.856 17.272M14.856 17.272C20.4267 17.1144 25.9922 17.7347 31.392 19.113C30.568 21.566 29.589 23.95 28.468 26.25H17.25M14.856 17.272L17.25 26.25M17.25 26.25C16.4544 26.25 15.6913 26.5661 15.1287 27.1287C14.5661 27.6913 14.25 28.4544 14.25 29.25H30M15.75 32.25C15.75 32.4489 15.671 32.6397 15.5303 32.7803C15.3897 32.921 15.1989 33 15 33C14.8011 33 14.6103 32.921 14.4697 32.7803C14.329 32.6397 14.25 32.4489 14.25 32.25C14.25 32.0511 14.329 31.8603 14.4697 31.7197C14.6103 31.579 14.8011 31.5 15 31.5C15.1989 31.5 15.3897 31.579 15.5303 31.7197C15.671 31.8603 15.75 32.0511 15.75 32.25ZM28.5 32.25C28.5 32.4489 28.421 32.6397 28.2803 32.7803C28.1397 32.921 27.9489 33 27.75 33C27.5511 33 27.3603 32.921 27.2197 32.7803C27.079 32.6397 27 32.4489 27 32.25C27 32.0511 27.079 31.8603 27.2197 31.7197C27.3603 31.579 27.5511 31.5 27.75 31.5C27.9489 31.5 28.1397 31.579 28.2803 31.7197C28.421 31.8603 28.5 32.0511 28.5 32.25Z" stroke="black" stroke-width="1.5" stroke-linecap="round" stroke-linejoin="round"/>
</svg>
