<svg width="1870" height="85" viewBox="0 0 1870 85" fill="none" xmlns="http://www.w3.org/2000/svg">
<g opacity="0.2">
<path d="M0 1.19718H44.5062V71.0329H36.1107V8.77934H8.39548V71.0329H0V1.19718Z" fill="white" fill-opacity="0.89"/>
<path d="M61.7136 1.19718H85.9897C91.9913 1.19718 96.7453 2.99295 100.252 6.58451C103.758 10.1095 105.512 14.865 105.512 20.8509C105.512 26.7703 103.758 31.4593 100.252 34.9178C96.7453 38.3099 91.9913 40.0059 85.9897 40.0059H69.8056V71.0329H61.7136V1.19718ZM84.9782 32.723C88.8219 32.723 91.8227 31.6921 93.9806 29.6303C96.2059 27.502 97.3185 24.5755 97.3185 20.8509C97.3185 16.9268 96.2059 13.8341 93.9806 11.5728C91.7552 9.31142 88.7545 8.18075 84.9782 8.18075H69.8056V32.723H84.9782Z" fill="white" fill-opacity="0.89"/>
<path d="M116.611 1.19718H157.375V8.97887H124.501V32.2242H155.655V40.0059H124.501V63.2512H157.375V71.0329H116.611V1.19718Z" fill="white" fill-opacity="0.89"/>
<path d="M171.509 1.19718H179.905V47.6878L178.792 54.3721V54.4718C178.792 54.7379 178.859 54.9707 178.994 55.1702C179.129 55.3032 179.264 55.3697 179.399 55.3697C179.736 55.3697 179.972 55.2034 180.107 54.8709L210.553 1.19718H217.937V71.0329H209.542V24.5423L210.553 18.0575V17.7582C210.553 17.2261 210.385 16.9601 210.047 16.9601C209.778 16.9601 209.474 17.2261 209.137 17.7582L178.893 71.0329H171.509V1.19718Z" fill="white" fill-opacity="0.89"/>
<path d="M235.1 1.19718H242.18L258.971 32.5235C259.308 33.1221 259.679 33.4214 260.084 33.4214C260.556 33.4214 260.927 33.1221 261.196 32.5235L277.987 1.19718H285.068V71.0329H276.976V25.5399L277.987 19.2547V19.0552C277.987 18.5896 277.819 18.3568 277.482 18.3568C277.279 18.3568 277.01 18.5563 276.672 18.9554L262.612 44.5951H257.555L243.495 18.9554C243.293 18.5563 243.057 18.3568 242.787 18.3568C242.585 18.3568 242.416 18.4566 242.281 18.6561C242.146 18.7891 242.113 18.9887 242.18 19.2547L243.192 25.5399V71.0329H235.1V1.19718Z" fill="white" fill-opacity="0.89"/>
<path d="M307.202 72.23C303.966 72.23 301.167 71.4319 298.807 69.8357L301.639 63.1514C303.527 64.2821 305.415 64.8474 307.304 64.8474C309.529 64.8474 311.316 64.2156 312.664 62.9519C314.081 61.6882 315.193 59.8592 316.002 57.4648L294.66 1.19718H303.258L318.228 42.0012L319.543 49.0845C319.678 49.4171 319.914 49.5833 320.251 49.5833C320.386 49.5833 320.521 49.5501 320.655 49.4836C320.858 49.3505 320.959 49.2175 320.959 49.0845L322.274 42.0012L334.816 1.19718H343.414L324.297 57.4648C322.409 62.9186 320.15 66.743 317.52 68.9378C314.89 71.1326 311.451 72.23 307.202 72.23Z" fill="white" fill-opacity="0.89"/>
<path d="M421.991 63.4507V85H414.607V71.0329H352.501V1.19718H360.897V63.4507H379.508V1.19718H387.904V63.4507H406.515V1.19718H414.911L414.607 63.4507H421.991Z" fill="white" fill-opacity="0.89"/>
<path d="M433.082 1.19718H473.845V8.97887H440.971V32.2242H472.126V40.0059H440.971V63.2512H473.845V71.0329H433.082V1.19718Z" fill="white" fill-opacity="0.89"/>
<path d="M509.524 72.23C502.377 72.23 496.746 70.3345 492.632 66.5434C488.519 62.7523 486.159 57.1322 485.552 49.6831C485.147 44.4953 484.945 39.9726 484.945 36.115C484.945 32.2574 485.147 27.7347 485.552 22.5469C486.159 15.0978 488.519 9.4777 492.632 5.68662C496.746 1.89554 502.377 0 509.524 0C512.424 0 515.256 0.53208 518.021 1.59624C520.786 2.59389 523.348 4.09037 525.709 6.08568L523.18 13.0692C519.066 9.54421 514.515 7.78169 509.524 7.78169C504.669 7.78169 500.893 9.11189 498.196 11.7723C495.566 14.4327 494.082 18.3568 493.745 23.5446C493.408 28.8654 493.239 33.0556 493.239 36.115C493.239 39.1745 493.408 43.3646 493.745 48.6854C494.015 53.8732 495.498 57.7973 498.196 60.4577C500.893 63.1182 504.669 64.4484 509.524 64.4484C514.515 64.4484 519.066 62.6858 523.18 59.1608L525.709 66.1444C523.348 68.1397 520.786 69.6694 518.021 70.7336C515.256 71.7312 512.424 72.23 509.524 72.23Z" fill="white" fill-opacity="0.89"/>
<path d="M549.168 8.97887H531.77V1.19718H575.063V8.97887H557.564V71.0329H549.168V8.97887Z" fill="white" fill-opacity="0.89"/>
<path d="M586.218 1.19718H608.167C614.304 1.19718 619.058 2.85993 622.43 6.18544C625.869 9.44444 627.588 14.1002 627.588 20.1526C627.588 23.7441 626.745 26.8701 625.06 29.5305C623.374 32.1909 621.013 34.2195 617.979 35.6162C621.351 36.8134 624.014 38.8752 625.97 41.8016C627.993 44.7281 629.004 48.1534 629.004 52.0775C629.004 58.1299 627.184 62.8189 623.542 66.1444C619.901 69.4034 614.776 71.0329 608.167 71.0329H586.218V1.19718ZM608.269 32.5235C611.91 32.5235 614.708 31.4593 616.664 29.331C618.687 27.1361 619.699 24.0767 619.699 20.1526C619.699 16.428 618.687 13.5016 616.664 11.3732C614.708 9.24491 611.91 8.18075 608.269 8.18075H594.107V32.5235H608.269ZM608.269 64.0493C612.315 64.0493 615.45 63.0184 617.676 60.9566C619.968 58.8282 621.115 55.8685 621.115 52.0775C621.115 48.0869 620.002 44.9941 617.777 42.7993C615.551 40.6045 612.382 39.507 608.269 39.507H594.107V64.0493H608.269Z" fill="white" fill-opacity="0.89"/>
<path d="M674.57 52.3768H649.89L644.731 71.0329H636.133L653.936 8.48004H644.529V1.19718H668.198L688.327 71.0329H679.729L674.57 52.3768ZM672.446 44.9941L663.747 13.7676L662.938 8.48004C662.938 8.08098 662.736 7.88145 662.331 7.88145C661.994 7.88145 661.758 8.08098 661.623 8.48004L660.713 13.7676L652.014 44.9941H672.446Z" fill="white" fill-opacity="0.89"/>
<path d="M723.747 1.19718H732.041V32.3239H739.627L756.722 1.19718H765.825L746.506 35.5164L766.028 71.0329H756.924L739.627 39.8063H732.041V71.0329H723.747V1.19718Z" fill="white" fill-opacity="0.89"/>
<path d="M796.732 72.23C789.449 72.23 783.751 70.135 779.638 65.9448C777.21 63.5505 775.356 60.1585 774.075 55.7688C772.793 51.3791 772.153 44.8279 772.153 36.115C772.153 27.4022 772.793 20.8509 774.075 16.4613C775.356 12.0716 777.21 8.67957 779.638 6.28521C783.751 2.09507 789.449 0 796.732 0C804.015 0 809.713 2.09507 813.827 6.28521C816.254 8.67957 818.109 12.0716 819.39 16.4613C820.671 20.8509 821.312 27.4022 821.312 36.115C821.312 44.8279 820.671 51.3791 819.39 55.7688C818.109 60.1585 816.254 63.5505 813.827 65.9448C809.713 70.135 804.015 72.23 796.732 72.23ZM796.732 64.4484C801.655 64.4484 805.431 63.1514 808.061 60.5575C810.691 57.9636 812.141 54.3388 812.411 49.6831C812.815 43.8967 813.017 39.374 813.017 36.115C813.017 32.856 812.815 28.3333 812.411 22.5469C812.141 17.8912 810.691 14.2664 808.061 11.6725C805.431 9.07864 801.655 7.78169 796.732 7.78169C791.81 7.78169 788.033 9.07864 785.403 11.6725C782.773 14.2664 781.324 17.8912 781.054 22.5469C780.649 28.3333 780.447 32.856 780.447 36.115C780.447 39.374 780.649 43.8967 781.054 49.6831C781.324 54.3388 782.773 57.9636 785.403 60.5575C788.033 63.1514 791.81 64.4484 796.732 64.4484Z" fill="white" fill-opacity="0.89"/>
<path d="M858.051 72.23C850.903 72.23 845.272 70.3345 841.159 66.5434C837.045 62.7523 834.685 57.1322 834.078 49.6831C833.673 44.4953 833.471 39.9726 833.471 36.115C833.471 32.2574 833.673 27.7347 834.078 22.5469C834.685 15.0978 837.045 9.4777 841.159 5.68662C845.272 1.89554 850.903 0 858.051 0C860.95 0 863.783 0.53208 866.547 1.59624C869.312 2.59389 871.875 4.09037 874.235 6.08568L871.706 13.0692C867.593 9.54421 863.041 7.78169 858.051 7.78169C853.195 7.78169 849.419 9.11189 846.722 11.7723C844.092 14.4327 842.608 18.3568 842.271 23.5446C841.934 28.8654 841.766 33.0556 841.766 36.115C841.766 39.1745 841.934 43.3646 842.271 48.6854C842.541 53.8732 844.025 57.7973 846.722 60.4577C849.419 63.1182 853.195 64.4484 858.051 64.4484C863.041 64.4484 867.593 62.6858 871.706 59.1608L874.235 66.1444C871.875 68.1397 869.312 69.6694 866.547 70.7336C863.783 71.7312 860.95 72.23 858.051 72.23Z" fill="white" fill-opacity="0.89"/>
<path d="M886.366 1.19718H893.446L910.237 32.5235C910.574 33.1221 910.945 33.4214 911.35 33.4214C911.822 33.4214 912.193 33.1221 912.463 32.5235L929.253 1.19718H936.334V71.0329H928.242V25.5399L929.253 19.2547V19.0552C929.253 18.5896 929.085 18.3568 928.748 18.3568C928.545 18.3568 928.276 18.5563 927.938 18.9554L913.879 44.5951H908.821L894.761 18.9554C894.559 18.5563 894.323 18.3568 894.053 18.3568C893.851 18.3568 893.682 18.4566 893.547 18.6561C893.413 18.7891 893.379 18.9887 893.446 19.2547L894.458 25.5399V71.0329H886.366V1.19718Z" fill="white" fill-opacity="0.89"/>
<path d="M953.512 1.19718H961.908V47.6878L960.795 54.3721V54.4718C960.795 54.7379 960.862 54.9707 960.997 55.1702C961.132 55.3032 961.267 55.3697 961.402 55.3697C961.739 55.3697 961.975 55.2034 962.11 54.8709L992.556 1.19718H999.94V71.0329H991.545V24.5423L992.556 18.0575V17.7582C992.556 17.2261 992.388 16.9601 992.05 16.9601C991.781 16.9601 991.477 17.2261 991.14 17.7582L960.896 71.0329H953.512V1.19718Z" fill="white" fill-opacity="0.89"/>
<path d="M1048.96 41.7019C1048.96 41.2363 1048.86 40.9038 1048.66 40.7042C1048.46 40.4382 1048.19 40.3052 1047.85 40.3052C1047.65 40.3052 1047.35 40.3717 1046.94 40.5047L1041.78 42.7993C1040.91 43.0653 1039.69 43.2649 1038.14 43.3979C1036.59 43.5309 1035.17 43.5974 1033.89 43.5974C1028.36 43.5974 1023.68 42.1009 1019.83 39.108C1015.99 36.115 1014.07 31.4593 1014.07 25.1408V1.19718H1022.46V24.243C1022.46 32.1577 1026.58 36.115 1034.8 36.115C1037.64 36.115 1040.3 35.849 1042.79 35.3169C1045.36 34.7848 1047.41 34.0865 1048.96 33.2218V1.19718H1057.46V71.0329H1048.96V41.7019Z" fill="white" fill-opacity="0.89"/>
<path d="M1074.67 1.19718H1115.43V8.97887H1082.56V32.2242H1113.71V40.0059H1082.56V63.2512H1115.43V71.0329H1074.67V1.19718Z" fill="white" fill-opacity="0.89"/>
<path d="M1151.11 72.23C1143.96 72.23 1138.33 70.3345 1134.22 66.5434C1130.1 62.7523 1127.74 57.1322 1127.14 49.6831C1126.73 44.4953 1126.53 39.9726 1126.53 36.115C1126.53 32.2574 1126.73 27.7347 1127.14 22.5469C1127.74 15.0978 1130.1 9.4777 1134.22 5.68662C1138.33 1.89554 1143.96 0 1151.11 0C1154.01 0 1156.84 0.53208 1159.61 1.59624C1162.37 2.59389 1164.93 4.09037 1167.29 6.08568L1164.77 13.0692C1160.65 9.54421 1156.1 7.78169 1151.11 7.78169C1146.26 7.78169 1142.48 9.11189 1139.78 11.7723C1137.15 14.4327 1135.67 18.3568 1135.33 23.5446C1134.99 28.8654 1134.82 33.0556 1134.82 36.115C1134.82 39.1745 1134.99 43.3646 1135.33 48.6854C1135.6 53.8732 1137.08 57.7973 1139.78 60.4577C1142.48 63.1182 1146.26 64.4484 1151.11 64.4484C1156.1 64.4484 1160.65 62.6858 1164.77 59.1608L1167.29 66.1444C1164.93 68.1397 1162.37 69.6694 1159.61 70.7336C1156.84 71.7312 1154.01 72.23 1151.11 72.23Z" fill="white" fill-opacity="0.89"/>
<path d="M1179.43 1.19718H1187.72V32.3239H1195.31L1212.4 1.19718H1221.5L1202.18 35.5164L1221.71 71.0329H1212.6L1195.31 39.8063H1187.72V71.0329H1179.43V1.19718Z" fill="white" fill-opacity="0.89"/>
<path d="M1252.41 72.23C1245.13 72.23 1239.43 70.135 1235.32 65.9448C1232.89 63.5505 1231.03 60.1585 1229.75 55.7688C1228.47 51.3791 1227.83 44.8279 1227.83 36.115C1227.83 27.4022 1228.47 20.8509 1229.75 16.4613C1231.03 12.0716 1232.89 8.67957 1235.32 6.28521C1239.43 2.09507 1245.13 0 1252.41 0C1259.69 0 1265.39 2.09507 1269.51 6.28521C1271.93 8.67957 1273.79 12.0716 1275.07 16.4613C1276.35 20.8509 1276.99 27.4022 1276.99 36.115C1276.99 44.8279 1276.35 51.3791 1275.07 55.7688C1273.79 60.1585 1271.93 63.5505 1269.51 65.9448C1265.39 70.135 1259.69 72.23 1252.41 72.23ZM1252.41 64.4484C1257.33 64.4484 1261.11 63.1514 1263.74 60.5575C1266.37 57.9636 1267.82 54.3388 1268.09 49.6831C1268.49 43.8967 1268.7 39.374 1268.7 36.115C1268.7 32.856 1268.49 28.3333 1268.09 22.5469C1267.82 17.8912 1266.37 14.2664 1263.74 11.6725C1261.11 9.07864 1257.33 7.78169 1252.41 7.78169C1247.49 7.78169 1243.71 9.07864 1241.08 11.6725C1238.45 14.2664 1237 17.8912 1236.73 22.5469C1236.33 28.3333 1236.13 32.856 1236.13 36.115C1236.13 39.374 1236.33 43.8967 1236.73 49.6831C1237 54.3388 1238.45 57.9636 1241.08 60.5575C1243.71 63.1514 1247.49 64.4484 1252.41 64.4484Z" fill="white" fill-opacity="0.89"/>
<path d="M1291.2 1.19718H1324.78V8.97887H1299.59V71.0329H1291.2V1.19718Z" fill="white" fill-opacity="0.89"/>
<path d="M1351.34 72.23C1344.06 72.23 1338.36 70.135 1334.25 65.9448C1331.82 63.5505 1329.96 60.1585 1328.68 55.7688C1327.4 51.3791 1326.76 44.8279 1326.76 36.115C1326.76 27.4022 1327.4 20.8509 1328.68 16.4613C1329.96 12.0716 1331.82 8.67957 1334.25 6.28521C1338.36 2.09507 1344.06 0 1351.34 0C1358.62 0 1364.32 2.09507 1368.43 6.28521C1370.86 8.67957 1372.72 12.0716 1374 16.4613C1375.28 20.8509 1375.92 27.4022 1375.92 36.115C1375.92 44.8279 1375.28 51.3791 1374 55.7688C1372.72 60.1585 1370.86 63.5505 1368.43 65.9448C1364.32 70.135 1358.62 72.23 1351.34 72.23ZM1351.34 64.4484C1356.26 64.4484 1360.04 63.1514 1362.67 60.5575C1365.3 57.9636 1366.75 54.3388 1367.02 49.6831C1367.42 43.8967 1367.63 39.374 1367.63 36.115C1367.63 32.856 1367.42 28.3333 1367.02 22.5469C1366.75 17.8912 1365.3 14.2664 1362.67 11.6725C1360.04 9.07864 1356.26 7.78169 1351.34 7.78169C1346.42 7.78169 1342.64 9.07864 1340.01 11.6725C1337.38 14.2664 1335.93 17.8912 1335.66 22.5469C1335.26 28.3333 1335.06 32.856 1335.06 36.115C1335.06 39.374 1335.26 43.8967 1335.66 49.6831C1335.93 54.3388 1337.38 57.9636 1340.01 60.5575C1342.64 63.1514 1346.42 64.4484 1351.34 64.4484Z" fill="white" fill-opacity="0.89"/>
<path d="M1415.39 1.19718H1422.47L1439.26 32.5235C1439.6 33.1221 1439.97 33.4214 1440.37 33.4214C1440.85 33.4214 1441.22 33.1221 1441.49 32.5235L1458.28 1.19718H1465.36V71.0329H1457.27V25.5399L1458.28 19.2547V19.0552C1458.28 18.5896 1458.11 18.3568 1457.77 18.3568C1457.57 18.3568 1457.3 18.5563 1456.96 18.9554L1442.9 44.5951H1437.85L1423.79 18.9554C1423.58 18.5563 1423.35 18.3568 1423.08 18.3568C1422.88 18.3568 1422.71 18.4566 1422.57 18.6561C1422.44 18.7891 1422.4 18.9887 1422.47 19.2547L1423.48 25.5399V71.0329H1415.39V1.19718Z" fill="white" fill-opacity="0.89"/>
<path d="M1514.9 52.3768H1490.22L1485.07 71.0329H1476.47L1494.27 8.48004H1484.86V1.19718H1508.53L1528.66 71.0329H1520.06L1514.9 52.3768ZM1512.78 44.9941L1504.08 13.7676L1503.27 8.48004C1503.27 8.08098 1503.07 7.88145 1502.67 7.88145C1502.33 7.88145 1502.09 8.08098 1501.96 8.48004L1501.05 13.7676L1492.35 44.9941H1512.78Z" fill="white" fill-opacity="0.89"/>
<path d="M1559.37 72.23C1552.23 72.23 1546.6 70.3345 1542.48 66.5434C1538.37 62.7523 1536.01 57.1322 1535.4 49.6831C1535 44.4953 1534.79 39.9726 1534.79 36.115C1534.79 32.2574 1535 27.7347 1535.4 22.5469C1536.01 15.0978 1538.37 9.4777 1542.48 5.68662C1546.6 1.89554 1552.23 0 1559.37 0C1562.27 0 1565.11 0.53208 1567.87 1.59624C1570.64 2.59389 1573.2 4.09037 1575.56 6.08568L1573.03 13.0692C1568.92 9.54421 1564.36 7.78169 1559.37 7.78169C1554.52 7.78169 1550.74 9.11189 1548.05 11.7723C1545.42 14.4327 1543.93 18.3568 1543.59 23.5446C1543.26 28.8654 1543.09 33.0556 1543.09 36.115C1543.09 39.1745 1543.26 43.3646 1543.59 48.6854C1543.86 53.8732 1545.35 57.7973 1548.05 60.4577C1550.74 63.1182 1554.52 64.4484 1559.37 64.4484C1564.36 64.4484 1568.92 62.6858 1573.03 59.1608L1575.56 66.1444C1573.2 68.1397 1570.64 69.6694 1567.87 70.7336C1565.11 71.7312 1562.27 72.23 1559.37 72.23Z" fill="white" fill-opacity="0.89"/>
<path d="M1587.69 1.19718H1596.08V63.4507H1614.7V1.19718H1623.09V63.4507H1641.7V1.19718H1650.1V71.0329H1587.69V1.19718Z" fill="white" fill-opacity="0.89"/>
<path d="M1678.61 8.97887H1661.21V1.19718H1704.51V8.97887H1687.01V71.0329H1678.61V8.97887Z" fill="white" fill-opacity="0.89"/>
<path d="M1743.98 52.3768H1719.3L1714.14 71.0329H1705.54L1723.34 8.48004H1713.94V1.19718H1737.61L1757.74 71.0329H1749.14L1743.98 52.3768ZM1741.85 44.9941L1733.16 13.7676L1732.35 8.48004C1732.35 8.08098 1732.14 7.88145 1731.74 7.88145C1731.4 7.88145 1731.17 8.08098 1731.03 8.48004L1730.12 13.7676L1721.42 44.9941H1741.85Z" fill="white" fill-opacity="0.89"/>
<path d="M1767.89 1.19718H1805.52V8.97887H1775.78V30.5282H1788.93C1795.88 30.5282 1801.24 32.3905 1805.01 36.115C1808.79 39.7731 1810.68 44.7613 1810.68 51.0798C1810.68 57.4648 1808.72 62.3865 1804.81 65.8451C1800.9 69.3036 1795.57 71.0329 1788.83 71.0329H1767.89V1.19718ZM1788.93 64.0493C1793.11 64.0493 1796.45 62.9186 1798.94 60.6573C1801.51 58.3959 1802.79 55.2034 1802.79 51.0798C1802.79 46.7567 1801.51 43.4311 1798.94 41.1033C1796.45 38.7089 1793.11 37.5117 1788.93 37.5117H1775.78V64.0493H1788.93Z" fill="white" fill-opacity="0.89"/>
<path d="M1856.24 52.3768H1831.56L1826.4 71.0329H1817.81L1835.61 8.48004H1826.2V1.19718H1849.87L1870 71.0329H1861.4L1856.24 52.3768ZM1854.12 44.9941L1845.42 13.7676L1844.61 8.48004C1844.61 8.08098 1844.41 7.88145 1844 7.88145C1843.67 7.88145 1843.43 8.08098 1843.3 8.48004L1842.39 13.7676L1833.69 44.9941H1854.12Z" fill="white" fill-opacity="0.89"/>
</g>
</svg>
