<svg width="596" height="38" viewBox="0 0 596 38" fill="none" xmlns="http://www.w3.org/2000/svg">
<g clip-path="url(#clip0_3127_2)">
<path opacity="0.2" d="M2.88 7.6L16.96 7.6L16.96 30H14.304L14.304 10.032H5.536L5.536 30H2.88L2.88 7.6ZM22.4038 7.6H30.0838C31.9824 7.6 33.4864 8.176 34.5958 9.328C35.7051 10.4587 36.2598 11.984 36.2598 13.904C36.2598 15.8027 35.7051 17.3067 34.5958 18.416C33.4864 19.504 31.9824 20.048 30.0838 20.048L24.9638 20.048L24.9638 30H22.4038L22.4038 7.6ZM29.7638 17.712C30.9798 17.712 31.9291 17.3813 32.6118 16.72C33.3158 16.0373 33.6678 15.0987 33.6678 13.904C33.6678 12.6453 33.3158 11.6533 32.6118 10.928C31.9078 10.2027 30.9584 9.84 29.7638 9.84H24.9638V17.712L29.7638 17.712ZM39.7713 7.6L52.6673 7.6V10.096L42.2673 10.096V17.552H52.1233V20.048H42.2673V27.504H52.6673V30H39.7713V7.6ZM57.1388 7.6H59.7948V22.512L59.4428 24.656V24.688C59.4428 24.7733 59.4641 24.848 59.5068 24.912C59.5494 24.9547 59.5921 24.976 59.6348 24.976C59.7414 24.976 59.8161 24.9227 59.8588 24.816L69.4908 7.6H71.8268V30H69.1708V15.088L69.4908 13.008V12.912C69.4908 12.7413 69.4374 12.656 69.3308 12.656C69.2454 12.656 69.1494 12.7413 69.0428 12.912L59.4748 30H57.1388V7.6ZM77.2563 7.6H79.4963L84.8083 17.648C84.9149 17.84 85.0323 17.936 85.1603 17.936C85.3096 17.936 85.4269 17.84 85.5123 17.648L90.8243 7.6H93.0643V30H90.5043V15.408L90.8243 13.392V13.328C90.8243 13.1787 90.7709 13.104 90.6643 13.104C90.6003 13.104 90.5149 13.168 90.4083 13.296L85.9603 21.52H84.3603L79.9123 13.296C79.8483 13.168 79.7736 13.104 79.6883 13.104C79.6243 13.104 79.5709 13.136 79.5283 13.2C79.4856 13.2427 79.4749 13.3067 79.4963 13.392L79.8163 15.408V30H77.2563V7.6ZM100.067 30.384C99.0428 30.384 98.1574 30.128 97.4108 29.616L98.3068 27.472C98.9041 27.8347 99.5014 28.016 100.099 28.016C100.803 28.016 101.368 27.8133 101.795 27.408C102.243 27.0027 102.595 26.416 102.851 25.648L96.0988 7.6H98.8188L103.555 20.688L103.971 22.96C104.013 23.0667 104.088 23.12 104.195 23.12C104.237 23.12 104.28 23.1093 104.323 23.088C104.387 23.0453 104.419 23.0027 104.419 22.96L104.835 20.688L108.803 7.6H111.523L105.475 25.648C104.877 27.3973 104.163 28.624 103.331 29.328C102.499 30.032 101.411 30.384 100.067 30.384ZM136.382 27.568V34.48H134.046V30H114.398V7.6H117.054V27.568H122.942V7.6L125.598 7.6V27.568H131.486V7.6H134.142L134.046 27.568H136.382ZM139.89 7.6L152.786 7.6V10.096H142.386V17.552L152.242 17.552V20.048L142.386 20.048V27.504L152.786 27.504V30L139.89 30V7.6ZM164.074 30.384C161.812 30.384 160.031 29.776 158.73 28.56C157.428 27.344 156.682 25.5413 156.49 23.152C156.362 21.488 156.298 20.0373 156.298 18.8C156.298 17.5627 156.362 16.112 156.49 14.448C156.682 12.0587 157.428 10.256 158.73 9.04C160.031 7.824 161.812 7.216 164.074 7.216C164.991 7.216 165.887 7.38667 166.762 7.728C167.636 8.048 168.447 8.528 169.194 9.168L168.394 11.408C167.092 10.2773 165.652 9.712 164.074 9.712C162.538 9.712 161.343 10.1387 160.49 10.992C159.658 11.8453 159.188 13.104 159.082 14.768C158.975 16.4747 158.922 17.8187 158.922 18.8C158.922 19.7813 158.975 21.1253 159.082 22.832C159.167 24.496 159.636 25.7547 160.49 26.608C161.343 27.4613 162.538 27.888 164.074 27.888C165.652 27.888 167.092 27.3227 168.394 26.192L169.194 28.432C168.447 29.072 167.636 29.5627 166.762 29.904C165.887 30.224 164.991 30.384 164.074 30.384ZM176.615 10.096H171.111V7.6L184.807 7.6V10.096H179.271V30H176.615V10.096ZM188.336 7.6H195.28C197.222 7.6 198.726 8.13333 199.792 9.2C200.88 10.2453 201.424 11.7387 201.424 13.68C201.424 14.832 201.158 15.8347 200.624 16.688C200.091 17.5413 199.344 18.192 198.384 18.64C199.451 19.024 200.294 19.6853 200.912 20.624C201.552 21.5627 201.872 22.6613 201.872 23.92C201.872 25.8613 201.296 27.3653 200.144 28.432C198.992 29.4773 197.371 30 195.28 30H188.336V7.6ZM195.312 17.648C196.464 17.648 197.35 17.3067 197.968 16.624C198.608 15.92 198.928 14.9387 198.928 13.68C198.928 12.4853 198.608 11.5467 197.968 10.864C197.35 10.1813 196.464 9.84 195.312 9.84H190.832V17.648H195.312ZM195.312 27.76C196.592 27.76 197.584 27.4293 198.288 26.768C199.014 26.0853 199.376 25.136 199.376 23.92C199.376 22.64 199.024 21.648 198.32 20.944C197.616 20.24 196.614 19.888 195.312 19.888H190.832V27.76H195.312ZM216.287 24.016H208.479L206.847 30H204.127L209.759 9.936H206.783V7.6L214.271 7.6L220.639 30H217.919L216.287 24.016ZM215.615 21.648L212.863 11.632L212.607 9.936C212.607 9.808 212.543 9.744 212.415 9.744C212.309 9.744 212.234 9.808 212.191 9.936L211.903 11.632L209.151 21.648H215.615ZM231.845 7.6H234.469V17.584H236.869L242.277 7.6H245.157L239.045 18.608L245.221 30H242.341L236.869 19.984H234.469V30H231.845V7.6ZM254.935 30.384C252.631 30.384 250.828 29.712 249.527 28.368C248.759 27.6 248.172 26.512 247.767 25.104C247.361 23.696 247.159 21.5947 247.159 18.8C247.159 16.0053 247.361 13.904 247.767 12.496C248.172 11.088 248.759 10 249.527 9.232C250.828 7.888 252.631 7.216 254.935 7.216C257.239 7.216 259.041 7.888 260.343 9.232C261.111 10 261.697 11.088 262.103 12.496C262.508 13.904 262.711 16.0053 262.711 18.8C262.711 21.5947 262.508 23.696 262.103 25.104C261.697 26.512 261.111 27.6 260.343 28.368C259.041 29.712 257.239 30.384 254.935 30.384ZM254.935 27.888C256.492 27.888 257.687 27.472 258.519 26.64C259.351 25.808 259.809 24.6453 259.895 23.152C260.023 21.296 260.087 19.8453 260.087 18.8C260.087 17.7547 260.023 16.304 259.895 14.448C259.809 12.9547 259.351 11.792 258.519 10.96C257.687 10.128 256.492 9.712 254.935 9.712C253.377 9.712 252.183 10.128 251.351 10.96C250.519 11.792 250.06 12.9547 249.975 14.448C249.847 16.304 249.783 17.7547 249.783 18.8C249.783 19.8453 249.847 21.296 249.975 23.152C250.06 24.6453 250.519 25.808 251.351 26.64C252.183 27.472 253.377 27.888 254.935 27.888ZM274.334 30.384C272.072 30.384 270.291 29.776 268.99 28.56C267.688 27.344 266.942 25.5413 266.75 23.152C266.622 21.488 266.558 20.0373 266.558 18.8C266.558 17.5627 266.622 16.112 266.75 14.448C266.942 12.0587 267.688 10.256 268.99 9.04C270.291 7.824 272.072 7.216 274.334 7.216C275.251 7.216 276.147 7.38667 277.022 7.728C277.896 8.048 278.707 8.528 279.454 9.168L278.654 11.408C277.352 10.2773 275.912 9.712 274.334 9.712C272.798 9.712 271.603 10.1387 270.75 10.992C269.918 11.8453 269.448 13.104 269.342 14.768C269.235 16.4747 269.182 17.8187 269.182 18.8C269.182 19.7813 269.235 21.1253 269.342 22.832C269.427 24.496 269.896 25.7547 270.75 26.608C271.603 27.4613 272.798 27.888 274.334 27.888C275.912 27.888 277.352 27.3227 278.654 26.192L279.454 28.432C278.707 29.072 277.896 29.5627 277.022 29.904C276.147 30.224 275.251 30.384 274.334 30.384ZM283.291 7.6H285.531L290.843 17.648C290.95 17.84 291.067 17.936 291.195 17.936C291.345 17.936 291.462 17.84 291.547 17.648L296.859 7.6L299.099 7.6V30H296.539V15.408L296.859 13.392V13.328C296.859 13.1787 296.806 13.104 296.699 13.104C296.635 13.104 296.55 13.168 296.443 13.296L291.995 21.52H290.395L285.947 13.296C285.883 13.168 285.809 13.104 285.723 13.104C285.659 13.104 285.606 13.136 285.563 13.2C285.521 13.2427 285.51 13.3067 285.531 13.392L285.851 15.408V30H283.291V7.6ZM304.534 7.6H307.19V22.512L306.838 24.656V24.688C306.838 24.7733 306.859 24.848 306.902 24.912C306.944 24.9547 306.987 24.976 307.03 24.976C307.136 24.976 307.211 24.9227 307.254 24.816L316.886 7.6H319.222V30L316.566 30V15.088L316.886 13.008V12.912C316.886 12.7413 316.832 12.656 316.726 12.656C316.64 12.656 316.544 12.7413 316.438 12.912L306.87 30H304.534V7.6ZM334.731 20.592C334.731 20.4427 334.699 20.336 334.635 20.272C334.571 20.1867 334.486 20.144 334.379 20.144C334.315 20.144 334.219 20.1653 334.091 20.208L332.459 20.944C332.182 21.0293 331.798 21.0933 331.307 21.136C330.817 21.1787 330.369 21.2 329.963 21.2C328.214 21.2 326.731 20.72 325.515 19.76C324.299 18.8 323.691 17.3067 323.691 15.28V7.6H326.347V14.992C326.347 17.5307 327.649 18.8 330.251 18.8C331.147 18.8 331.99 18.7147 332.779 18.544C333.59 18.3733 334.241 18.1493 334.731 17.872V7.6H337.419V30H334.731V20.592ZM342.863 7.6L355.759 7.6V10.096H345.359V17.552H355.215V20.048H345.359V27.504H355.759V30H342.863V7.6ZM367.046 30.384C364.785 30.384 363.003 29.776 361.702 28.56C360.401 27.344 359.654 25.5413 359.462 23.152C359.334 21.488 359.27 20.0373 359.27 18.8C359.27 17.5627 359.334 16.112 359.462 14.448C359.654 12.0587 360.401 10.256 361.702 9.04C363.003 7.824 364.785 7.216 367.046 7.216C367.963 7.216 368.859 7.38667 369.734 7.728C370.609 8.048 371.419 8.528 372.166 9.168L371.366 11.408C370.065 10.2773 368.625 9.712 367.046 9.712C365.51 9.712 364.315 10.1387 363.462 10.992C362.63 11.8453 362.161 13.104 362.054 14.768C361.947 16.4747 361.894 17.8187 361.894 18.8C361.894 19.7813 361.947 21.1253 362.054 22.832C362.139 24.496 362.609 25.7547 363.462 26.608C364.315 27.4613 365.51 27.888 367.046 27.888C368.625 27.888 370.065 27.3227 371.366 26.192L372.166 28.432C371.419 29.072 370.609 29.5627 369.734 29.904C368.859 30.224 367.963 30.384 367.046 30.384ZM376.004 7.6H378.628V17.584H381.028L386.436 7.6H389.316L383.204 18.608L389.38 30H386.5L381.028 19.984H378.628V30L376.004 30V7.6ZM399.093 30.384C396.789 30.384 394.987 29.712 393.685 28.368C392.917 27.6 392.331 26.512 391.925 25.104C391.52 23.696 391.317 21.5947 391.317 18.8C391.317 16.0053 391.52 13.904 391.925 12.496C392.331 11.088 392.917 10 393.685 9.232C394.987 7.888 396.789 7.216 399.093 7.216C401.397 7.216 403.2 7.888 404.501 9.232C405.269 10 405.856 11.088 406.261 12.496C406.667 13.904 406.869 16.0053 406.869 18.8C406.869 21.5947 406.667 23.696 406.261 25.104C405.856 26.512 405.269 27.6 404.501 28.368C403.2 29.712 401.397 30.384 399.093 30.384ZM399.093 27.888C400.651 27.888 401.845 27.472 402.677 26.64C403.509 25.808 403.968 24.6453 404.053 23.152C404.181 21.296 404.245 19.8453 404.245 18.8C404.245 17.7547 404.181 16.304 404.053 14.448C403.968 12.9547 403.509 11.792 402.677 10.96C401.845 10.128 400.651 9.712 399.093 9.712C397.536 9.712 396.341 10.128 395.509 10.96C394.677 11.792 394.219 12.9547 394.133 14.448C394.005 16.304 393.941 17.7547 393.941 18.8C393.941 19.8453 394.005 21.296 394.133 23.152C394.219 24.6453 394.677 25.808 395.509 26.64C396.341 27.472 397.536 27.888 399.093 27.888ZM411.364 7.6L421.988 7.6V10.096L414.02 10.096V30H411.364V7.6ZM430.391 30.384C428.087 30.384 426.284 29.712 424.983 28.368C424.215 27.6 423.628 26.512 423.223 25.104C422.818 23.696 422.615 21.5947 422.615 18.8C422.615 16.0053 422.818 13.904 423.223 12.496C423.628 11.088 424.215 10 424.983 9.232C426.284 7.888 428.087 7.216 430.391 7.216C432.695 7.216 434.498 7.888 435.799 9.232C436.567 10 437.154 11.088 437.559 12.496C437.964 13.904 438.167 16.0053 438.167 18.8C438.167 21.5947 437.964 23.696 437.559 25.104C437.154 26.512 436.567 27.6 435.799 28.368C434.498 29.712 432.695 30.384 430.391 30.384ZM430.391 27.888C431.948 27.888 433.143 27.472 433.975 26.64C434.807 25.808 435.266 24.6453 435.351 23.152C435.479 21.296 435.543 19.8453 435.543 18.8C435.543 17.7547 435.479 16.304 435.351 14.448C435.266 12.9547 434.807 11.792 433.975 10.96C433.143 10.128 431.948 9.712 430.391 9.712C428.834 9.712 427.639 10.128 426.807 10.96C425.975 11.792 425.516 12.9547 425.431 14.448C425.303 16.304 425.239 17.7547 425.239 18.8C425.239 19.8453 425.303 21.296 425.431 23.152C425.516 24.6453 425.975 25.808 426.807 26.64C427.639 27.472 428.834 27.888 430.391 27.888ZM450.654 7.6H452.894L458.206 17.648C458.312 17.84 458.43 17.936 458.558 17.936C458.707 17.936 458.824 17.84 458.91 17.648L464.222 7.6H466.462V30H463.902V15.408L464.222 13.392V13.328C464.222 13.1787 464.168 13.104 464.062 13.104C463.998 13.104 463.912 13.168 463.806 13.296L459.358 21.52H457.758L453.31 13.296C453.246 13.168 453.171 13.104 453.086 13.104C453.022 13.104 452.968 13.136 452.926 13.2C452.883 13.2427 452.872 13.3067 452.894 13.392L453.214 15.408V30H450.654V7.6ZM482.136 24.016H474.328L472.696 30H469.976L475.608 9.936H472.632V7.6H480.12L486.488 30H483.768L482.136 24.016ZM481.464 21.648L478.712 11.632L478.456 9.936C478.456 9.808 478.392 9.744 478.264 9.744C478.158 9.744 478.083 9.808 478.04 9.936L477.752 11.632L475 21.648H481.464ZM496.205 30.384C493.943 30.384 492.162 29.776 490.861 28.56C489.559 27.344 488.813 25.5413 488.621 23.152C488.493 21.488 488.429 20.0373 488.429 18.8C488.429 17.5627 488.493 16.112 488.621 14.448C488.813 12.0587 489.559 10.256 490.861 9.04C492.162 7.824 493.943 7.216 496.205 7.216C497.122 7.216 498.018 7.38667 498.893 7.728C499.767 8.048 500.578 8.528 501.325 9.168L500.525 11.408C499.223 10.2773 497.783 9.712 496.205 9.712C494.669 9.712 493.474 10.1387 492.621 10.992C491.789 11.8453 491.319 13.104 491.213 14.768C491.106 16.4747 491.053 17.8187 491.053 18.8C491.053 19.7813 491.106 21.1253 491.213 22.832C491.298 24.496 491.767 25.7547 492.621 26.608C493.474 27.4613 494.669 27.888 496.205 27.888C497.783 27.888 499.223 27.3227 500.525 26.192L501.325 28.432C500.578 29.072 499.767 29.5627 498.893 29.904C498.018 30.224 497.122 30.384 496.205 30.384ZM505.163 7.6H507.819V27.568H513.707V7.6L516.363 7.6V27.568H522.251V7.6H524.907V30H505.163V7.6ZM533.927 10.096H528.423V7.6L542.119 7.6V10.096L536.583 10.096V30H533.927V10.096ZM554.606 24.016L546.798 24.016L545.166 30H542.446L548.078 9.936H545.102V7.6H552.59L558.958 30H556.238L554.606 24.016ZM553.934 21.648L551.182 11.632L550.926 9.936C550.926 9.808 550.862 9.744 550.734 9.744C550.628 9.744 550.553 9.808 550.51 9.936L550.222 11.632L547.47 21.648L553.934 21.648ZM562.171 7.6L574.075 7.6V10.096L564.667 10.096V17.008H568.827C571.025 17.008 572.721 17.6053 573.915 18.8C575.11 19.9733 575.707 21.5733 575.707 23.6C575.707 25.648 575.089 27.2267 573.851 28.336C572.614 29.4453 570.929 30 568.795 30H562.171V7.6ZM568.827 27.76C570.15 27.76 571.206 27.3973 571.995 26.672C572.806 25.9467 573.211 24.9227 573.211 23.6C573.211 22.2133 572.806 21.1467 571.995 20.4C571.206 19.632 570.15 19.248 568.827 19.248H564.667V27.76H568.827ZM590.123 24.016H582.315L580.683 30H577.963L583.595 9.936H580.619V7.6L588.107 7.6L594.475 30H591.755L590.123 24.016ZM589.451 21.648L586.699 11.632L586.443 9.936C586.443 9.808 586.379 9.744 586.251 9.744C586.144 9.744 586.069 9.808 586.027 9.936L585.739 11.632L582.987 21.648H589.451Z" fill="#484848" fill-opacity="0.89"/>
</g>
<defs>
<clipPath id="clip0_3127_2">
<rect width="596" height="38" fill="white"/>
</clipPath>
</defs>
</svg>
