<svg width="44" height="54" viewBox="0 0 44 54" fill="none" xmlns="http://www.w3.org/2000/svg">
<path d="M35.0121 36.6447L36.4844 37.9982L35.0121 36.6447L22.6228 50.1215L9.61321 37.2923L8.2089 38.7163L9.6132 37.2923C7.02996 34.7449 5.22617 31.4529 4.44046 27.8287C3.65469 24.2041 3.92478 20.4197 5.21454 16.957C6.50411 13.4947 8.75188 10.5174 11.6628 8.39414C14.5729 6.27155 18.0174 5.09556 21.5605 5.00558C25.1036 4.9156 28.5983 5.91529 31.6035 7.88645C34.6097 9.85821 36.9945 12.7162 38.4457 16.1075C39.8972 19.4993 40.3464 23.265 39.7329 26.9259C39.1195 30.5864 37.4731 33.9676 35.0121 36.6447Z" fill="white" stroke="#EB5757" stroke-width="4"/>
<path d="M22 21.0001V27.0001M19 24.0001H25M29.463 15.9941C26.781 14.3491 24.44 15.0111 23.034 16.0671C22.458 16.5001 22.17 16.7171 22 16.7171C21.83 16.7171 21.542 16.5001 20.966 16.0671C19.56 15.0111 17.219 14.3501 14.537 15.9941C11.018 18.1521 10.222 25.2741 18.34 31.2831C19.886 32.4271 20.659 32.9991 22 32.9991C23.341 32.9991 24.114 32.4271 25.66 31.2831C33.778 25.2741 32.982 18.1541 29.463 15.9941Z" stroke="black" stroke-width="1.5" stroke-linecap="round" stroke-linejoin="round"/>
</svg>
