<svg width="260" height="46" viewBox="0 0 260 46" fill="none" xmlns="http://www.w3.org/2000/svg">
<g clip-path="url(#clip0_4116_1509)">
<path d="M15.3477 26.7573V31.5558C15.3477 39.53 21.86 46 29.9021 46C30.3162 46 30.653 45.6657 30.653 45.2548V13.0653H29.1442C21.5302 13.0653 15.3477 19.194 15.3477 26.7573Z" fill="url(#paint0_linear_4116_1509)"/>
<path d="M32.2458 0H1.25615C0.561407 0 0 0.557152 0 1.24663V11.8186C0 12.5081 0.561407 13.0652 1.25615 13.0652H15.3475C15.3475 13.0652 16.6948 0 32.2458 0Z" fill="url(#paint1_linear_4116_1509)"/>
<path d="M32.246 0C16.695 0 15.3477 13.0652 15.3477 13.0652V26.7572C15.3477 19.1939 21.5231 13.0652 29.1442 13.0652H30.653H44.7443C45.4391 13.0652 46.0005 12.5081 46.0005 11.8186V1.24663C46.0005 0.557152 45.4391 0 44.7443 0H32.246Z" fill="url(#paint2_linear_4116_1509)"/>
<path d="M152.104 39.7139C152.104 39.8279 152.097 39.9917 152.09 40.2196C152.087 40.3195 152.082 40.418 152.077 40.5164C152.07 40.6425 152.062 40.7683 152.054 40.8963C152.047 41.0063 152.041 41.1048 152.035 41.1915L152.034 41.1952C152.028 41.2866 152.022 41.3651 152.019 41.4305L156.064 35.1198H157.582L157.567 42.6556H156.413L156.421 38.211V38.2097C156.421 38.0602 156.421 37.8613 156.428 37.6199L156.449 36.8933C156.455 36.7084 156.464 36.5607 156.471 36.4474L156.472 36.4457L156.472 36.4413C156.474 36.4087 156.476 36.3789 156.478 36.352L152.46 42.6485H150.929L150.943 35.1126H152.111L152.104 39.7139Z" fill="#3C3C3C"/>
<path d="M157.047 32C156.983 32.7051 156.741 33.2322 156.335 33.5955C155.929 33.9588 155.274 34.1368 154.383 34.1368C153.465 34.1368 152.816 33.9588 152.439 33.6026C152.061 33.2465 151.848 32.7123 151.798 32H152.952C153.002 32.5057 153.13 32.8476 153.351 33.0185C153.571 33.1895 153.92 33.2821 154.412 33.2821C154.839 33.2821 155.181 33.1895 155.431 33.0114C155.68 32.8333 155.829 32.4915 155.872 32.0071L157.047 32Z" fill="#3C3C3C"/>
<path d="M63.4474 42.6629C62.7779 42.6629 62.1867 42.5205 61.6667 42.2498C61.1468 41.9791 60.7408 41.5518 60.4416 40.9819C60.1496 40.4121 60 39.6785 60 38.7881C60 37.8622 60.1567 37.1072 60.4701 36.5231C60.7835 35.939 61.2037 35.5188 61.7308 35.2481C62.2579 34.9775 62.8633 34.8421 63.54 34.8421C63.9246 34.8421 64.295 34.8849 64.6511 34.9632C65.0073 35.0416 65.2993 35.1413 65.5201 35.2553L65.1426 36.2809C64.9147 36.1955 64.6511 36.1171 64.352 36.0388C64.0528 35.9604 63.7679 35.9248 63.5115 35.9248C62.03 35.9248 61.2892 36.8721 61.2821 38.7739C61.2821 39.6856 61.4602 40.3765 61.8234 40.8609C62.1867 41.3452 62.7209 41.5874 63.4332 41.5874C63.8463 41.5874 64.2095 41.5446 64.5229 41.4592C64.8363 41.3737 65.1284 41.274 65.3848 41.1529V42.2498C65.1355 42.378 64.8506 42.4777 64.5514 42.5489C64.2451 42.6273 63.8748 42.6629 63.4474 42.6629Z" fill="#3C3C3C"/>
<path d="M72.3865 36.0387L69.9291 36.0316L69.922 42.5275H68.6969L68.704 36.0316H66.268V34.9917L72.3865 34.9988V36.0387Z" fill="#3C3C3C"/>
<path fill-rule="evenodd" clip-rule="evenodd" d="M79.7087 35.8392C79.1389 35.191 78.391 34.8634 77.465 34.8634C76.8596 34.8634 76.3681 34.9702 75.9977 35.2052C75.6345 35.426 75.3425 35.7038 75.1145 36.0315H75.0575L74.8937 35.0058H73.8823L73.868 45.9179H75.1074L75.1145 42.8266C75.1145 42.6486 75.1074 42.4348 75.086 42.1927C75.0803 42.1276 75.0751 42.0652 75.0701 42.0057C75.0565 41.8432 75.0447 41.7019 75.0291 41.5872H75.1145C75.3282 41.8792 75.6274 42.1356 76.0049 42.3565C76.3824 42.5773 76.8596 42.6912 77.4437 42.6912C78.3839 42.6912 79.1318 42.3565 79.7016 41.694C80.2714 41.0245 80.5563 40.0487 80.5563 38.7666C80.5563 37.4632 80.2714 36.4874 79.7087 35.8392ZM75.6131 36.5514C75.9265 36.117 76.4678 35.9033 77.2371 35.9033C77.9351 35.9033 78.448 36.1597 78.7827 36.6868C79.1175 37.1996 79.2813 37.8905 79.2813 38.7524C79.2813 39.3151 79.203 39.8137 79.0605 40.2481C78.9181 40.6826 78.6973 41.0245 78.3981 41.281C78.099 41.5302 77.7214 41.6585 77.2656 41.6585C76.4394 41.6585 75.8767 41.4092 75.5704 40.9034C75.2641 40.4049 75.1145 39.6855 75.1145 38.7595V38.5173C75.1288 37.6412 75.2997 36.9788 75.6131 36.5514Z" fill="#3C3C3C"/>
<path fill-rule="evenodd" clip-rule="evenodd" d="M89.075 38.7739C89.075 40.0204 88.7545 40.9891 88.1206 41.6729C87.4867 42.3567 86.6319 42.6985 85.5493 42.6985C84.8869 42.6985 84.2885 42.5419 83.7686 42.2355C83.2486 41.9293 82.8426 41.4877 82.5435 40.8965C82.2443 40.3124 82.0948 39.6002 82.0948 38.7668C82.0948 37.5203 82.4153 36.5587 83.0421 35.8821C83.6689 35.2055 84.5236 34.8707 85.6063 34.8707C86.2901 34.8707 86.8955 35.0273 87.4154 35.3265C87.9354 35.6328 88.3414 36.0744 88.6406 36.6513C88.9326 37.2354 89.075 37.9406 89.075 38.7739ZM83.3768 38.7668C83.3768 39.6571 83.5478 40.3623 83.9039 40.8823C84.2529 41.4022 84.8156 41.6658 85.5849 41.6658C86.347 41.6658 86.9026 41.4093 87.2587 40.8894C87.6149 40.3694 87.7929 39.6642 87.8001 38.7739C87.8001 37.8836 87.622 37.1856 87.2659 36.6798C86.9097 36.1741 86.347 35.9177 85.5778 35.9177C84.8085 35.9177 84.2529 36.167 83.9039 36.6727C83.5549 37.1784 83.384 37.8764 83.3768 38.7668Z" fill="#3C3C3C"/>
<path d="M92.1806 40.127C92.1877 39.8991 92.1948 39.7353 92.1948 39.6213L92.2019 35.0272H91.0338L91.0196 42.563H92.551L96.5682 36.2665L96.5657 36.3073L96.5623 36.3601L96.562 36.3642C96.5591 36.4083 96.5559 36.4575 96.5528 36.5119C96.5478 36.5973 96.543 36.6957 96.5397 36.8078L96.5183 37.5344C96.5112 37.7758 96.5112 37.9748 96.5112 38.1242V38.1255L96.5041 42.5701H97.658L97.6722 35.0343H96.1551L92.1093 41.3379C92.1165 41.2097 92.1307 41.0316 92.145 40.8037L92.1474 40.7657C92.1608 40.5511 92.1738 40.3423 92.1806 40.127Z" fill="#3C3C3C"/>
<path d="M105.279 36.0887H102.822L102.815 42.5846H101.59L101.597 36.0887H99.1608V35.0487L105.279 35.0559V36.0887Z" fill="#3C3C3C"/>
<path fill-rule="evenodd" clip-rule="evenodd" d="M111.213 35.3407C110.75 35.0558 110.194 34.9133 109.546 34.9133C108.876 34.9062 108.292 35.07 107.808 35.3976C107.309 35.7111 106.918 36.1669 106.64 36.7581C106.362 37.3493 106.22 38.0545 106.22 38.8807C106.22 39.714 106.369 40.4192 106.675 40.9961C106.975 41.5731 107.402 42.0076 107.95 42.2996C108.492 42.5916 109.126 42.7412 109.838 42.7412C110.358 42.7484 110.799 42.7056 111.177 42.6272C111.555 42.5489 111.932 42.4278 112.317 42.2569V41.1742C111.925 41.3452 111.54 41.4734 111.17 41.5588C110.799 41.6443 110.372 41.687 109.895 41.687C109.14 41.687 108.556 41.4662 108.143 41.0175C107.73 40.5688 107.509 39.9206 107.495 39.0659L112.651 39.073V38.3251C112.651 37.6413 112.53 37.043 112.281 36.5302C112.032 36.0173 111.676 35.6185 111.213 35.3407ZM108.121 36.4946C108.47 36.1099 108.933 35.9247 109.525 35.9247C110.158 35.9247 110.614 36.1242 110.899 36.5302C111.191 36.9291 111.341 37.4419 111.348 38.0829L107.509 38.0758C107.573 37.3991 107.779 36.8721 108.121 36.4946Z" fill="#3C3C3C"/>
<path d="M120.287 42.6058H119.033L119.04 36.0956H116.818C116.697 37.684 116.526 38.959 116.305 39.9277C116.084 40.8963 115.8 41.6015 115.443 42.0431C115.087 42.4847 114.639 42.7055 114.09 42.7055C113.969 42.7055 113.848 42.6984 113.734 42.6841C113.62 42.6699 113.52 42.6414 113.442 42.6058V41.6799C113.499 41.7013 113.556 41.7154 113.627 41.7226C113.691 41.7297 113.755 41.7368 113.827 41.7368C114.332 41.7368 114.738 41.2026 115.045 40.12C115.351 39.0444 115.586 37.3634 115.75 35.0699L120.294 35.0771L120.287 42.6058Z" fill="#3C3C3C"/>
<path fill-rule="evenodd" clip-rule="evenodd" d="M129.091 40.3123C129.091 38.8877 128.115 38.1683 126.156 38.1683L123.919 38.1612L123.927 35.0699H122.687L122.673 42.6058L126.092 42.6129C127.132 42.6129 127.894 42.4064 128.371 41.9932C128.848 41.573 129.091 41.0174 129.091 40.3123ZM127.374 39.4504C127.695 39.6143 127.858 39.9277 127.858 40.3835C127.858 40.8323 127.687 41.1527 127.353 41.3451C127.011 41.5303 126.576 41.6228 126.049 41.6228H123.927V39.2011H126.021C126.598 39.2011 127.053 39.2866 127.374 39.4504Z" fill="#3C3C3C"/>
<path d="M132.282 35.0842L132.275 38.2182L136.37 38.2254L136.377 35.0913H137.617L137.602 42.6272H136.363L136.37 39.2652L132.275 39.2581L132.267 42.62H131.028L131.042 35.0842H132.282Z" fill="#3C3C3C"/>
<path fill-rule="evenodd" clip-rule="evenodd" d="M140.003 35.0985L139.988 42.6343H143.122C144.155 42.6414 144.903 42.4278 145.359 42.0146C145.822 41.5944 146.05 41.0388 146.05 40.3337C146.057 39.6214 145.822 39.0872 145.352 38.731C144.882 38.3678 144.162 38.1898 143.187 38.1898H141.235L141.242 35.0985H140.003ZM144.326 41.3736C143.984 41.5517 143.55 41.6442 143.016 41.6442L141.235 41.6513V39.2296H143.037C143.614 39.2296 144.063 39.3151 144.369 39.479C144.675 39.6428 144.832 39.9562 144.832 40.412C144.832 40.8679 144.661 41.1884 144.326 41.3736Z" fill="#3C3C3C"/>
<path d="M147.318 35.1127L147.303 42.6486H148.543L148.557 35.1127H147.318Z" fill="#3C3C3C"/>
<path d="M162.824 35.1341L165.424 38.8237L162.689 42.6771H164.078L166.164 39.6713L168.216 42.6842H169.619L166.884 38.8237L169.491 35.1412H168.102L166.172 37.9761L164.234 35.1341H162.824Z" fill="#3C3C3C"/>
<path fill-rule="evenodd" clip-rule="evenodd" d="M177.347 38.9092C177.347 40.1557 177.027 41.1244 176.393 41.8082C175.759 42.492 174.904 42.8338 173.821 42.8338C173.152 42.8338 172.561 42.6772 172.041 42.3708C171.521 42.0646 171.108 41.6159 170.816 41.0318C170.516 40.4477 170.367 39.7355 170.367 38.9021C170.367 37.6556 170.687 36.694 171.314 36.0174C171.941 35.3407 172.796 35.0059 173.878 35.0059C174.562 35.0059 175.168 35.1626 175.688 35.4689C176.208 35.7752 176.614 36.2168 176.906 36.7938C177.205 37.3707 177.347 38.0758 177.347 38.9092ZM171.649 38.9021C171.649 39.7924 171.82 40.4976 172.176 41.0175C172.525 41.5375 173.088 41.8011 173.857 41.8011C174.619 41.8011 175.175 41.5446 175.531 41.0247C175.887 40.5047 176.065 39.7995 176.072 38.9092C176.072 38.0189 175.894 37.3208 175.538 36.8151C175.182 36.3094 174.619 36.053 173.85 36.053C173.081 36.053 172.525 36.3023 172.176 36.808C171.827 37.3137 171.656 38.0117 171.649 38.9021Z" fill="#3C3C3C"/>
<path d="M183.779 42.7056H185.033L185.047 35.1698L180.503 35.1626C180.339 37.4561 180.104 39.1371 179.797 40.2127C179.491 41.2953 179.085 41.8295 178.579 41.8295C178.546 41.8295 178.514 41.8279 178.483 41.8255C178.465 41.8241 178.447 41.8225 178.43 41.8206L178.38 41.8152C178.309 41.8081 178.252 41.7939 178.195 41.7726V42.6985C178.266 42.7341 178.366 42.7626 178.48 42.7768C178.594 42.7911 178.715 42.7982 178.836 42.7982C179.384 42.8053 179.833 42.5846 180.189 42.143C180.545 41.7013 180.83 40.9962 181.051 40.0275C181.272 39.0588 181.443 37.7838 181.564 36.1954H183.786L183.779 42.7056Z" fill="#3C3C3C"/>
<path fill-rule="evenodd" clip-rule="evenodd" d="M193.032 35.1769L193.024 41.6728H194.121L194.114 45.3268H192.918L192.925 42.7127L187.682 42.7056V45.3197H186.5L186.507 41.6657H187.113C187.761 40.7754 188.245 39.7639 188.573 38.6243C188.9 37.4846 189.064 36.3379 189.078 35.1698L193.032 35.1769ZM190.161 36.1456C190.125 36.7866 190.026 37.4419 189.862 38.1186C189.698 38.7953 189.499 39.4434 189.249 40.0631C189 40.6828 188.708 41.217 188.38 41.6657L191.828 41.6728L191.835 36.1456H190.161Z" fill="#3C3C3C"/>
<path d="M196.75 40.291C196.757 40.0631 196.764 39.8993 196.764 39.7853L196.771 35.184H195.603L195.589 42.7198H197.12L201.137 36.4234C201.136 36.4477 201.134 36.4742 201.132 36.5031L201.131 36.5166C201.124 36.6302 201.114 36.7785 201.109 36.9647L201.087 37.6912C201.08 37.9334 201.08 38.1328 201.08 38.2824L201.073 42.727H202.227L202.241 35.1911H200.724L196.678 41.5019C196.682 41.4364 196.687 41.3579 196.694 41.2663L196.694 41.265L196.701 41.1656L196.705 41.0984C196.708 41.0568 196.711 41.0132 196.714 40.9677L196.716 40.9386C196.724 40.809 196.732 40.6815 196.738 40.5535C196.743 40.4665 196.747 40.3793 196.75 40.291Z" fill="#3C3C3C"/>
<path d="M205.888 35.1983L205.881 38.3323L209.976 38.3394L209.984 35.2054H211.223L211.209 42.7412H209.969L209.976 39.3793L205.881 39.3722L205.874 42.7341H204.634L204.649 35.1983H205.888Z" fill="#3C3C3C"/>
<path d="M218.203 36.2596V35.2197L213.609 35.2125L213.595 42.7484H214.834L214.841 36.2525L218.203 36.2596Z" fill="#3C3C3C"/>
<path fill-rule="evenodd" clip-rule="evenodd" d="M167.753 24.2316C165.965 24.2316 164.348 23.9182 162.952 23.3056C161.563 22.7002 160.367 21.8454 159.398 20.7699C158.436 19.7015 157.681 18.4194 157.161 16.9664C156.641 15.5133 156.385 13.9178 156.385 12.2297C156.385 10.5203 156.649 8.8963 157.168 7.40767C157.688 5.919 158.436 4.61552 159.405 3.51864C160.367 2.42884 161.563 1.55988 162.959 0.940207C164.348 0.320532 165.965 0 167.753 0C169.519 0 171.129 0.313402 172.532 0.940207C173.935 1.55988 175.139 2.42884 176.101 3.51864C177.069 4.60839 177.817 5.919 178.337 7.40767C178.857 8.8963 179.121 10.5203 179.121 12.2297C179.121 13.9178 178.857 15.5133 178.344 16.9664C177.824 18.4194 177.077 19.7015 176.108 20.7699C175.146 21.8383 173.943 22.693 172.539 23.3056C171.129 23.9182 169.519 24.2316 167.753 24.2316ZM167.753 3.67531C166.514 3.67531 165.445 3.91751 164.569 4.40898C163.693 4.89332 162.974 5.55573 162.439 6.36773C161.905 7.1726 161.513 8.09142 161.271 9.10997C161.029 10.1143 160.908 11.1685 160.908 12.2369C160.908 13.2625 161.029 14.2811 161.271 15.2498C161.513 16.2327 161.905 17.1302 162.439 17.9208C162.981 18.7186 163.693 19.3739 164.569 19.8582C165.445 20.3425 166.514 20.5847 167.753 20.5847C168.992 20.5847 170.068 20.3425 170.937 19.8582C171.813 19.3739 172.525 18.7186 173.066 17.9208C173.601 17.1302 173.999 16.2256 174.242 15.2427C174.484 14.274 174.605 13.2625 174.605 12.2297C174.605 11.1542 174.484 10.1072 174.242 9.10288C173.999 8.08429 173.608 7.16547 173.074 6.3606C172.532 5.5486 171.813 4.88619 170.944 4.40185C170.068 3.91751 168.992 3.67531 167.753 3.67531Z" fill="#3C3C3C"/>
<path d="M67.1583 4.24517V23.6902H71.6671V4.24517H78.8183V0.562724H60V4.24517H67.1583Z" fill="#3C3C3C"/>
<path d="M83.0563 0.562724V23.6902H100.436V20.0149H87.565V13.4335H99.1323V10.093H87.565V4.24517H100.165V0.562724H83.0563Z" fill="#3C3C3C"/>
<path fill-rule="evenodd" clip-rule="evenodd" d="M104.674 23.6902V0.562724H115.066C116.498 0.562724 117.737 0.776398 118.734 1.1824C119.731 1.59553 120.543 2.14395 121.163 2.81349C121.783 3.48303 122.238 4.26656 122.523 5.13551C122.808 6.01872 122.958 6.93046 122.958 7.84214C122.958 8.78235 122.815 9.70121 122.523 10.5702C122.238 11.432 121.783 12.2084 121.163 12.8779C120.55 13.5475 119.731 14.0959 118.734 14.5091C117.737 14.9221 116.505 15.1359 115.066 15.1359H109.183V23.6902H104.674ZM109.183 11.7953H113.627C114.24 11.7953 114.845 11.7454 115.422 11.66C116.02 11.5674 116.562 11.375 117.025 11.0902C117.502 10.7981 117.887 10.385 118.179 9.86502C118.463 9.34507 118.606 8.66128 118.606 7.84927C118.606 7.03731 118.463 6.36065 118.179 5.83357C117.894 5.31358 117.509 4.90049 117.025 4.60844C116.562 4.33064 116.02 4.13835 115.422 4.03862C114.838 3.94603 114.233 3.90329 113.627 3.90329H109.183V11.7953Z" fill="#3C3C3C"/>
<path d="M147.98 6.78086V23.6902H152.154V0.562724H145.409L140.06 16.9735H139.525L133.948 0.562724H127.189V23.6902H131.37V6.9518H132.061L137.916 23.6902H141.434L147.346 6.78086H147.98Z" fill="#3C3C3C"/>
<path fill-rule="evenodd" clip-rule="evenodd" d="M181.215 20.0149V23.6902H205.667V20.0149H203.06V0.562724H186.486V3.90329C186.486 5.66259 186.45 7.3222 186.372 8.83222C186.3 10.3494 186.137 11.781 185.901 13.0916C185.659 14.4022 185.317 15.6273 184.876 16.7385C184.434 17.8568 183.85 18.9109 183.145 19.8653L183.038 20.0149H181.215ZM190.66 9.43767C190.738 8.07721 190.773 6.56719 190.773 4.94323H190.766V4.14548H198.551V20.0221H187.867L188.174 19.4736C188.701 18.5405 189.135 17.5576 189.47 16.5462C189.805 15.5347 190.075 14.4307 190.261 13.2626C190.446 12.0873 190.581 10.8052 190.66 9.43767Z" fill="#3C3C3C"/>
<path fill-rule="evenodd" clip-rule="evenodd" d="M219.82 24.2316C218.032 24.2316 216.415 23.9182 215.019 23.3056C213.623 22.693 212.434 21.8454 211.472 20.7699C210.511 19.7015 209.756 18.4194 209.236 16.9664C208.716 15.5133 208.459 13.9178 208.459 12.2297C208.459 10.5203 208.723 8.8963 209.243 7.40767C209.763 5.919 210.518 4.60839 211.479 3.51864C212.441 2.42884 213.637 1.55988 215.026 0.940207C216.415 0.320532 218.032 0 219.82 0C221.586 0 223.196 0.313402 224.599 0.940207C226.003 1.55988 227.206 2.42884 228.168 3.51864C229.129 4.61552 229.884 5.919 230.404 7.40767C230.924 8.8963 231.188 10.5203 231.188 12.2297C231.188 13.9178 230.924 15.5133 230.412 16.9664C229.892 18.4194 229.144 19.7015 228.175 20.7699C227.213 21.8383 226.01 22.693 224.606 23.3056C223.196 23.9182 221.586 24.2316 219.82 24.2316ZM219.82 3.67531C218.581 3.67531 217.512 3.91751 216.636 4.40898C215.76 4.89332 215.041 5.55573 214.506 6.36773C213.972 7.1726 213.58 8.09142 213.338 9.10997C213.096 10.1143 212.975 11.1685 212.975 12.2369C212.975 13.2625 213.096 14.2811 213.338 15.2498C213.58 16.2327 213.972 17.1302 214.506 17.9208C215.048 18.7186 215.76 19.3739 216.636 19.8582C217.512 20.3425 218.581 20.5847 219.82 20.5847C221.059 20.5847 222.135 20.3425 223.004 19.8582C223.88 19.3739 224.592 18.7186 225.134 17.9208C225.668 17.1302 226.067 16.2256 226.309 15.2427C226.551 14.274 226.672 13.2625 226.672 12.2297C226.672 11.1542 226.551 10.1072 226.309 9.10288C226.067 8.08429 225.675 7.16547 225.141 6.3606C224.599 5.5486 223.88 4.88619 223.011 4.40185C222.135 3.91751 221.059 3.67531 219.82 3.67531Z" fill="#3C3C3C"/>
<path d="M256.089 6.78086V23.6902H260.263V0.562724H253.511L248.311 16.7171L248.169 16.9735H247.634L242.05 0.562724H235.298V23.6902H239.479V6.9518H240.17L246.018 23.6902H249.543L255.455 6.78086H256.089Z" fill="#3C3C3C"/>
</g>
<defs>
<linearGradient id="paint0_linear_4116_1509" x1="23.0032" y1="46.0022" x2="23.0032" y2="13.0651" gradientUnits="userSpaceOnUse">
<stop stop-color="#F39200"/>
<stop offset="1" stop-color="#E73336"/>
</linearGradient>
<linearGradient id="paint1_linear_4116_1509" x1="0.00322809" y1="6.5338" x2="32.2437" y2="6.5338" gradientUnits="userSpaceOnUse">
<stop stop-color="#F39200"/>
<stop offset="0.6145" stop-color="#E73336"/>
</linearGradient>
<linearGradient id="paint2_linear_4116_1509" x1="15.3502" y1="13.3814" x2="46.003" y2="13.3814" gradientUnits="userSpaceOnUse">
<stop stop-color="#F39200"/>
<stop offset="1" stop-color="#E73336"/>
</linearGradient>
<clipPath id="clip0_4116_1509">
<rect width="260" height="46" fill="white"/>
</clipPath>
</defs>
</svg>
