<svg width="80" height="80" viewBox="0 0 80 80" fill="none" xmlns="http://www.w3.org/2000/svg">
<path d="M9.45136 47.0665C9.45136 46.8386 9.68769 46.7246 9.92403 46.7246C10.1604 46.7246 10.3967 46.8386 10.3967 47.1805C11.342 49.802 13.4691 51.8535 16.1869 52.7653C16.4232 52.7653 16.5414 52.9933 16.5414 53.2213C16.5414 53.4492 16.4232 53.5632 16.1869 53.6772C13.4691 54.589 11.342 56.6405 10.3967 59.262C10.3967 59.4899 10.1604 59.6039 9.92403 59.6039C9.68769 59.6039 9.56952 59.4899 9.45136 59.262C8.50602 56.6405 6.379 54.589 3.66114 53.5632C3.42481 53.5632 3.30664 53.3352 3.30664 53.1073C3.30664 52.8793 3.42481 52.7654 3.66114 52.6514C6.379 51.7396 8.50602 49.688 9.45136 47.0665Z" fill="#0D78DB"/>
<path d="M75.6281 49.1207C75.5099 49.1207 75.3917 49.2347 75.2736 49.3487C74.6827 51.0583 73.2647 52.3121 71.4922 52.9959C71.374 52.9959 71.2559 53.1099 71.2559 53.3378C71.2559 53.4518 71.374 53.5658 71.4922 53.6798C73.2647 54.2497 74.5646 55.6174 75.2736 57.327C75.2736 57.441 75.3917 57.555 75.6281 57.555C75.7462 57.555 75.8644 57.441 75.9826 57.327C76.5734 55.6174 77.9914 54.3636 79.7639 53.6798C79.8821 53.6798 80.0003 53.5658 80.0003 53.3378C80.0003 53.2239 79.8821 53.1099 79.7639 52.9959C77.9914 52.426 76.6916 51.0583 75.9826 49.3487C75.8644 49.2347 75.7462 49.1207 75.6281 49.1207Z" fill="#0D78DB"/>
<path d="M42.8928 68.6024C42.6564 68.6024 42.5383 68.7163 42.4201 68.9443C41.5929 71.2238 39.7022 73.0474 37.3389 73.8453C37.1025 73.9592 36.9844 74.0732 36.9844 74.3012C36.9844 74.5291 37.1025 74.6431 37.3389 74.7571C39.7022 75.5549 41.5929 77.3785 42.4201 79.6581C42.5383 79.886 42.6564 80 42.8928 80C43.1291 80 43.2473 79.886 43.3654 79.6581C44.1926 77.3785 46.0833 75.5549 48.4466 74.7571C48.683 74.6431 48.8011 74.5291 48.8011 74.3012C48.8011 74.0732 48.683 73.9592 48.4466 73.8453C46.0833 73.0474 44.1926 71.2238 43.3654 68.9443C43.2473 68.7163 43.0109 68.6024 42.8928 68.6024Z" fill="#0D78DB"/>
<path d="M17.6037 57.8718C17.3674 57.8718 17.2492 57.9858 17.131 58.2138C16.1857 60.7212 14.1768 62.6588 11.5772 63.5706C11.3408 63.6846 11.2227 63.7986 11.2227 64.0265C11.2227 64.2545 11.3408 64.3685 11.5772 64.4824C14.1768 65.3943 16.1857 67.3319 17.131 69.8393C17.2492 70.0673 17.3674 70.1813 17.6037 70.1813C17.84 70.1813 17.9582 70.0673 18.0764 69.8393C19.0217 67.3319 21.0306 65.3943 23.6303 64.4824C23.8666 64.3685 23.9848 64.2545 23.9848 64.0265C23.9848 63.7986 23.8666 63.6846 23.6303 63.5706C21.0306 62.6588 19.0217 60.7212 18.0764 58.2138C17.9582 57.9858 17.7219 57.8718 17.6037 57.8718Z" fill="#0D78DB"/>
<path d="M28.5929 66.3398C28.7111 66.1118 28.8293 65.9979 29.0656 65.9979C29.1838 65.9979 29.4201 66.1118 29.5383 66.3398C30.3655 68.7333 32.2561 70.5569 34.7377 71.3547C34.974 71.4687 35.0922 71.5827 35.0922 71.8106C35.0922 72.0386 34.974 72.1526 34.7377 72.2666C32.2561 73.0644 30.3655 74.888 29.5383 77.2815C29.4201 77.5095 29.3019 77.6234 29.0656 77.6234C28.8293 77.6234 28.7111 77.5095 28.5929 77.2815C27.7658 74.888 25.8751 73.0644 23.3936 72.2666C23.1572 72.1526 23.0391 72.0386 23.0391 71.8106C23.0391 71.5827 23.1572 71.4687 23.3936 71.3547C25.8751 70.5569 27.7658 68.7333 28.5929 66.3398Z" fill="#0D78DB"/>
<path d="M56.7218 66.4146C56.4855 66.4146 56.3673 66.5286 56.3673 66.6426C55.6583 68.6941 54.004 70.2898 51.877 70.9737C51.7588 70.9737 51.6406 71.2016 51.6406 71.3156C51.6406 71.5435 51.7588 71.6575 51.877 71.6575C54.004 72.3414 55.6583 73.937 56.3673 75.9886C56.3673 76.1026 56.6037 76.2166 56.7218 76.2166C56.9582 76.2166 57.0763 76.1026 57.0763 75.9886C57.7853 73.937 59.4397 72.3414 61.5667 71.6575C61.6849 71.6575 61.803 71.4296 61.803 71.3156C61.803 71.0876 61.6849 70.9737 61.5667 70.9737C59.4397 70.2898 57.7853 68.6941 57.0763 66.6426C57.0763 66.5286 56.9582 66.4146 56.7218 66.4146Z" fill="#0D78DB"/>
<path d="M67.4708 59.6104C67.4708 59.4964 67.7072 59.3824 67.8253 59.3824C68.0617 59.3824 68.1798 59.4964 68.1798 59.6104C68.8889 61.548 70.425 63.0297 72.4339 63.7135C72.552 63.7135 72.6702 63.9415 72.6702 64.0555C72.6702 64.1695 72.552 64.3974 72.4339 64.3974C70.425 65.0813 68.8889 66.563 68.1798 68.5005C68.1798 68.6145 67.9435 68.7285 67.8253 68.7285C67.7072 68.7285 67.4708 68.6145 67.4708 68.5005C66.7618 66.563 65.2257 65.0813 63.2168 64.3974C63.0986 64.3974 62.9805 64.1695 62.9805 64.0555C62.9805 63.9415 63.0986 63.7135 63.2168 63.7135C65.2257 63.0297 66.7618 61.548 67.4708 59.6104Z" fill="#0D78DB"/>
<path d="M43.367 11.0557C43.2488 11.2836 43.1306 11.3976 42.8943 11.3976C42.658 11.3976 42.4216 11.2836 42.4216 11.0557C41.5945 8.77617 39.7038 6.95255 37.3404 6.15472C37.1041 6.04074 36.9859 5.92676 36.9859 5.69881C36.9859 5.47086 37.1041 5.35688 37.3404 5.24291C39.7038 4.44507 41.5945 2.62145 42.4216 0.341929C42.5398 0.113976 42.658 0 42.8943 0C43.0125 0 43.2488 0.113976 43.367 0.341929C44.1941 2.62145 46.0848 4.44507 48.4482 5.24291C48.6845 5.35688 48.8027 5.47086 48.8027 5.69881C48.8027 5.92676 48.6845 6.04074 48.4482 6.15472C46.0848 6.95255 44.1941 8.77617 43.367 11.0557Z" fill="#2997FF"/>
<path d="M75.9835 30.5528C75.8654 30.6668 75.7472 30.7808 75.629 30.7808C75.5109 30.7808 75.2745 30.6668 75.2745 30.5528C74.5655 28.8432 73.2657 27.4755 71.4932 26.9056C71.375 26.7916 71.2568 26.6777 71.2568 26.5637C71.2568 26.3357 71.375 26.2218 71.4932 26.2218C73.2657 25.5379 74.6837 24.2842 75.2745 22.5745C75.3927 22.4605 75.5109 22.3466 75.629 22.3466C75.8654 22.3466 75.9835 22.4605 75.9835 22.5745C76.6926 24.2842 77.9924 25.6519 79.7649 26.2218C79.8831 26.3357 80.0012 26.4497 80.0012 26.5637C80.0012 26.7916 79.8831 26.9056 79.7649 26.9056C77.9924 27.5895 76.5744 28.8432 75.9835 30.5528Z" fill="#2997FF"/>
<path d="M9.925 33.2887C10.1613 33.2887 10.3977 33.1748 10.3977 32.9468C11.343 30.3254 13.47 28.2738 16.1879 27.362C16.4242 27.248 16.5424 27.134 16.5424 26.9061C16.5424 26.6781 16.4242 26.4502 16.1879 26.4502C13.47 25.5384 11.343 23.4868 10.3977 20.8653C10.2795 20.6374 10.1613 20.5234 9.925 20.5234C9.68867 20.5234 9.45233 20.6374 9.45233 20.8653C8.50699 23.4868 6.37998 25.5384 3.66212 26.4502C3.42578 26.5642 3.30762 26.6781 3.30762 26.9061C3.30762 27.134 3.42578 27.362 3.66212 27.362C6.37998 28.2738 8.50699 30.3254 9.45233 32.9468C9.48019 32.9737 9.50804 33.0069 9.53744 33.0419C9.63274 33.1555 9.74446 33.2887 9.925 33.2887Z" fill="#2997FF"/>
<path d="M18.0778 21.7604C17.9597 21.9884 17.8415 22.1023 17.6052 22.1023C17.3688 22.1023 17.1325 21.9884 17.1325 21.7604C16.1872 19.2529 14.1783 17.3153 11.5786 16.4035C11.3423 16.2895 11.2241 16.1756 11.2241 15.9476C11.2241 15.7197 11.3423 15.6057 11.5786 15.4917C14.1783 14.5799 16.1872 12.6423 17.1325 10.1348C17.2507 9.90688 17.3688 9.7929 17.6052 9.7929C17.8415 9.7929 17.9597 9.90688 18.0778 10.1348C19.0232 12.6423 21.032 14.5799 23.6317 15.4917C23.8681 15.6057 23.9862 15.7197 23.9862 15.9476C23.9862 16.1756 23.8681 16.2895 23.6317 16.4035C21.032 17.3153 19.0232 19.2529 18.0778 21.7604Z" fill="#2997FF"/>
<path d="M29.0671 14.0217C29.3034 14.0217 29.4216 13.9077 29.5397 13.6798C30.3669 11.2863 32.2576 9.46266 34.7391 8.66482C34.9755 8.55085 35.0936 8.43687 35.0936 8.20892C35.0936 7.98097 34.9755 7.86699 34.7391 7.75301C32.2576 6.95518 30.3669 5.13156 29.5397 2.73806C29.4216 2.51011 29.3034 2.39613 29.0671 2.39613C28.8307 2.39613 28.7126 2.51011 28.5944 2.73806C27.7672 5.13156 25.8765 6.95518 23.395 7.75301C23.1587 7.86699 23.0405 7.98097 23.0405 8.20892C23.0405 8.43687 23.1587 8.55085 23.395 8.66482C25.8765 9.46266 27.7672 11.2863 28.5944 13.6798C28.7126 13.9077 28.8307 14.0217 29.0671 14.0217Z" fill="#2997FF"/>
<path d="M57.0768 13.2203C57.0768 13.3343 56.9587 13.4482 56.7223 13.4482C56.6042 13.4482 56.486 13.3343 56.3678 13.2203C55.6588 11.1687 54.0045 9.57305 51.8774 8.88919C51.7593 8.88919 51.6411 8.77522 51.6411 8.54727C51.6411 8.43329 51.7593 8.20534 51.8774 8.20534C54.0045 7.52148 55.6588 5.92581 56.3678 3.87424C56.3678 3.76026 56.486 3.64629 56.7223 3.64629C56.8405 3.64629 57.0768 3.76026 57.0768 3.87424C57.7858 5.92581 59.4402 7.52148 61.5672 8.20534C61.6854 8.20534 61.8035 8.31931 61.8035 8.54727C61.8035 8.66124 61.6854 8.88919 61.5672 8.88919C59.4402 9.57305 57.7858 11.1687 57.0768 13.2203Z" fill="#2997FF"/>
<path d="M67.8268 20.4933C67.945 20.4933 68.1813 20.3793 68.1813 20.2653C68.8903 18.3277 70.4265 16.846 72.4353 16.1622C72.5535 16.1622 72.6717 15.9342 72.6717 15.8203C72.6717 15.7063 72.5535 15.4783 72.4353 15.4783C70.4265 14.7945 68.8903 13.3128 68.1813 11.3752C68.1813 11.2612 67.945 11.1472 67.8268 11.1472C67.7086 11.1472 67.4723 11.2612 67.4723 11.3752C66.7633 13.3128 65.2271 14.7945 63.2183 15.4783C63.1001 15.4783 62.9819 15.7063 62.9819 15.8203C62.9819 15.9342 63.1001 16.1622 63.2183 16.1622C65.2271 16.846 66.7633 18.3277 67.4723 20.2653C67.5905 20.3793 67.7086 20.4933 67.8268 20.4933Z" fill="#2997FF"/>
<path d="M6.49922 33.5232C6.61739 33.2952 6.85372 33.1813 7.09006 33.1813C7.32639 33.1813 7.56273 33.2952 7.6809 33.5232C8.62624 36.2586 10.8714 38.5382 13.8256 39.45C14.0619 39.5639 14.1801 39.7919 14.1801 40.0198C14.1801 40.3618 14.0619 40.4758 13.8256 40.5897C10.9896 41.5015 8.62624 43.6671 7.6809 46.5165C7.56273 46.7444 7.32639 46.8584 7.09006 46.8584C6.85372 46.8584 6.61739 46.7444 6.49922 46.5165C5.55388 43.7811 3.30869 41.5015 0.354503 40.5897C0.118168 40.4758 0 40.2478 0 40.0198C0 39.7919 0.118168 39.5639 0.354503 39.45C3.19053 38.5382 5.55388 36.3726 6.49922 33.5232Z" fill="#2997FF"/>
</svg>
