<svg xmlns="http://www.w3.org/2000/svg">

    <symbol viewBox="0 0 32 10" id="burger-link">
        <line y1="1" x2="32" y2="1" stroke-width="2" />
        <line y1="9" x2="32" y2="9" stroke-width="2" />
    </symbol>

    <symbol viewBox="0 0 32 32" id="burger-close">
        <line x1="5.39314" y1="3.97844" x2="28.0206" y2="26.6059" stroke-width="2" />
        <line x1="4.97942" y1="26.6054" x2="27.6068" y2="3.97798" stroke-width="2" />
    </symbol>

    <symbol viewBox="0 0 48 48" id="icon-video">
        <circle cx="24" cy="24" r="23.5" />
        <path d="M18.5 33V15L33 24L18.5 33Z" fill="#FFFFFF" />
    </symbol>

    <symbol viewBox="0 0 32 32" id="icon-header-phone">
        <path d="M5 10.0769C5 19.423 12.577 27 21.9231 27H24.4615C25.1348 27 25.7804 26.7326 26.2565 26.2565C26.7326 25.7804 27 25.1348 27 24.4615V22.9136C27 22.3315 26.604 21.8238 26.0388 21.6828L21.0487 20.435C20.5523 20.3109 20.0311 20.497 19.7253 20.9054L18.631 22.3642C18.3128 22.7884 17.7634 22.9757 17.2658 22.7929C15.419 22.1136 13.7419 21.041 12.3504 19.6496C10.959 18.2581 9.88645 16.581 9.20708 14.7342C9.02431 14.2366 9.21159 13.6872 9.6358 13.369L11.0946 12.2747C11.5041 11.9689 11.6891 11.4466 11.565 10.9513L10.3172 5.96123C10.2486 5.68673 10.0901 5.44305 9.86714 5.26889C9.64413 5.09474 9.36932 5.00009 9.08636 5H7.53846C6.86522 5 6.21955 5.26744 5.7435 5.7435C5.26744 6.21955 5 6.86522 5 7.53846V10.0769Z" stroke-width="1.5" stroke-linecap="round" stroke-linejoin="round" />
    </symbol>

    <symbol viewBox="0 0 24 25" id="icon-star">
        <path d="M0 12.5C7.2 8.9 8.4 7.7 12 0.5C15.6 7.7 16.8 8.9 24 12.5C16.8 16.1 15.6 17.3 12 24.5C8.4 17.3 7.2 16.1 0 12.5Z" />
    </symbol>

    <symbol viewBox="0 0 64 65" id="slider-arrow">
        <path d="M28 52.5L8 32.5M8 32.5L28 12.5M8 32.5L56 32.5" stroke-width="1.5" stroke-linecap="round" stroke-linejoin="round" />
    </symbol>

    <symbol viewBox="0 0 25 26" id="icon-plus">
        <path d="M12.5 0V26M0 13H25" stroke-width="2" />
    </symbol>

    <symbol viewBox="0 0 25 27" id="icon-minus">
        <path d="M0 13.3125H25" stroke-width="2" />
    </symbol>

    <symbol viewBox="0 0 231 404" id="text-6">
        <path d="M91.2 435.201C67.6 435.201 46.9 431.101 29.1 422.901C11.3 414.701 -3.59999 403.201 -15.6 388.401C-27.4 373.601 -36.3 356.401 -42.3 336.801C-48.1 317.001 -51 295.601 -51 272.601C-51 229.401 -42.2 189.001 -24.6 151.401C-7 113.601 18.3 81.5008 51.3 55.1008C84.5 28.5008 124.4 10.4008 171 0.800781V47.0008C146.2 52.8008 122.8 62.9008 100.8 77.3008C78.8 91.5008 59.9 109.101 44.1 130.101C28.5 151.101 17.8 174.401 12 200.001C21 189.801 33.4 181.601 49.2 175.401C65 169.001 83.2 165.801 103.8 165.801C128 165.801 149.7 171.801 168.9 183.801C188.1 195.601 203.2 211.501 214.2 231.501C225.4 251.501 231 273.601 231 297.801C231 324.401 224.9 348.101 212.7 368.901C200.5 389.501 183.8 405.701 162.6 417.501C141.6 429.301 117.8 435.201 91.2 435.201ZM90.6 386.001C108 386.001 123.3 382.501 136.5 375.501C149.9 368.301 160.3 358.301 167.7 345.501C175.1 332.701 178.8 317.801 178.8 300.801C178.8 274.601 170.7 253.701 154.5 238.101C138.3 222.301 117 214.401 90.6 214.401C73.4 214.401 58.1 218.001 44.7 225.201C31.3 232.201 20.8 242.201 13.2 255.201C5.6 268.201 1.8 283.401 1.8 300.801C1.8 317.801 5.7 332.701 13.5 345.501C21.3 358.301 31.9 368.301 45.3 375.501C58.7 382.501 73.8 386.001 90.6 386.001Z" />
    </symbol>

    <symbol viewBox="0 0 48 48" id="gallery-prev">
        <path d="M22.0833 37L10 25L22.0833 13" stroke-width="1.5" stroke-linecap="round" stroke-linejoin="round" />
    </symbol>

    <symbol viewBox="0 0 48 48" id="gallery-next">
        <path d="M25.9167 13L38 25L25.9167 37" stroke-width="1.5" stroke-linecap="round" stroke-linejoin="round" />
    </symbol>

    <symbol viewBox="0 0 690 120" id="footer-title">
        <path d="M34.4199 101.68C24.5266 101.68 16.7332 99.0198 11.0399 93.6998C5.34657 88.3798 2.0799 80.4932 1.2399 70.0398C0.679902 62.7598 0.399902 56.4132 0.399902 50.9998C0.399902 45.5865 0.679902 39.2398 1.2399 31.9598C2.0799 21.5065 5.34657 13.6198 11.0399 8.29982C16.7332 2.97982 24.5266 0.319824 34.4199 0.319824C38.4332 0.319824 42.3532 1.06649 46.1799 2.55982C50.0066 3.95982 53.5532 6.05982 56.8199 8.85982L53.3199 18.6598C47.6266 13.7132 41.3266 11.2398 34.4199 11.2398C27.6999 11.2398 22.4732 13.1065 18.7399 16.8398C15.0999 20.5732 13.0466 26.0798 12.5799 33.3598C12.1132 40.8265 11.8799 46.7065 11.8799 50.9998C11.8799 55.2932 12.1132 61.1732 12.5799 68.6398C12.9532 75.9198 15.0066 81.4265 18.7399 85.1598C22.4732 88.8932 27.6999 90.7598 34.4199 90.7598C41.3266 90.7598 47.6266 88.2865 53.3199 83.3398L56.8199 93.1398C53.5532 95.9398 50.0066 98.0865 46.1799 99.5798C42.3532 100.98 38.4332 101.68 34.4199 101.68Z" />
        <path d="M103.463 101.68C93.3829 101.68 85.4962 98.7398 79.8029 92.8598C76.4429 89.4998 73.8762 84.7398 72.1029 78.5798C70.3295 72.4198 69.4429 63.2265 69.4429 50.9998C69.4429 38.7732 70.3295 29.5798 72.1029 23.4198C73.8762 17.2598 76.4429 12.4998 79.8029 9.13982C85.4962 3.25982 93.3829 0.319824 103.463 0.319824C113.543 0.319824 121.43 3.25982 127.123 9.13982C130.483 12.4998 133.05 17.2598 134.823 23.4198C136.596 29.5798 137.483 38.7732 137.483 50.9998C137.483 63.2265 136.596 72.4198 134.823 78.5798C133.05 84.7398 130.483 89.4998 127.123 92.8598C121.43 98.7398 113.543 101.68 103.463 101.68ZM103.463 90.7598C110.276 90.7598 115.503 88.9398 119.143 85.2998C122.783 81.6598 124.79 76.5732 125.163 70.0398C125.723 61.9198 126.003 55.5732 126.003 50.9998C126.003 46.4265 125.723 40.0798 125.163 31.9598C124.79 25.4265 122.783 20.3398 119.143 16.6998C115.503 13.0598 110.276 11.2398 103.463 11.2398C96.6495 11.2398 91.4229 13.0598 87.7829 16.6998C84.1429 20.3398 82.1362 25.4265 81.7629 31.9598C81.2029 40.0798 80.9229 46.4265 80.9229 50.9998C80.9229 55.5732 81.2029 61.9198 81.7629 70.0398C82.1362 76.5732 84.1429 81.6598 87.7829 85.2998C91.4229 88.9398 96.6495 90.7598 103.463 90.7598Z" />
        <path d="M176.391 100.84C170.791 100.84 165.611 99.9998 160.851 98.3198C156.184 96.6398 151.704 94.0732 147.411 90.6198L151.471 80.9598C154.458 83.6665 158.098 85.8598 162.391 87.5398C166.778 89.2198 170.931 90.0598 174.851 90.0598C182.411 90.0598 188.011 88.5665 191.651 85.5798C195.384 82.4998 197.251 78.1132 197.251 72.4198C197.251 61.4998 190.438 56.0398 176.811 56.0398H161.131V45.3998H176.811C182.971 45.3998 187.544 43.8598 190.531 40.7798C193.518 37.6998 195.011 33.3598 195.011 27.7598C195.011 22.8132 193.471 18.9398 190.391 16.1398C187.311 13.3398 183.018 11.9398 177.511 11.9398C173.591 11.9398 169.484 12.4998 165.191 13.6198C160.898 14.7398 157.304 16.3265 154.411 18.3798L150.631 8.71982C155.018 6.10649 159.404 4.19316 163.791 2.97982C168.178 1.76649 172.891 1.15982 177.931 1.15982C182.411 1.15982 186.798 2.04649 191.091 3.81982C195.478 5.59315 199.118 8.48649 202.011 12.4998C204.904 16.4198 206.351 21.5065 206.351 27.7598C206.351 33.3598 204.904 38.1198 202.011 42.0398C199.118 45.9598 195.664 48.4798 191.651 49.5998C196.224 50.8132 200.191 53.4732 203.551 57.5798C207.004 61.6865 208.731 66.6332 208.731 72.4198C208.731 82.3132 205.651 89.5465 199.491 94.1198C193.331 98.5998 185.631 100.84 176.391 100.84Z" />
        <path d="M228.272 1.99982H258.652C267.145 1.99982 273.725 4.33315 278.392 8.99982C283.152 13.5732 285.532 20.1065 285.532 28.5998C285.532 33.6398 284.365 38.0265 282.032 41.7598C279.698 45.4932 276.432 48.3398 272.232 50.2998C276.898 51.9798 280.585 54.8732 283.292 58.9798C286.092 63.0865 287.492 67.8932 287.492 73.3998C287.492 81.8932 284.972 88.4732 279.932 93.1398C274.892 97.7132 267.798 99.9998 258.652 99.9998H228.272V1.99982ZM258.792 45.9598C263.832 45.9598 267.705 44.4665 270.412 41.4798C273.212 38.3998 274.612 34.1065 274.612 28.5998C274.612 23.3732 273.212 19.2665 270.412 16.2798C267.705 13.2932 263.832 11.7998 258.792 11.7998H239.192V45.9598H258.792ZM258.792 90.1998C264.392 90.1998 268.732 88.7532 271.812 85.8598C274.985 82.8732 276.572 78.7198 276.572 73.3998C276.572 67.7998 275.032 63.4598 271.952 60.3798C268.872 57.2998 264.485 55.7598 258.792 55.7598H239.192V90.1998H258.792Z" />
        <path d="M307.159 1.99982H363.578V12.9198H318.078V45.5398H361.198V56.4598H318.078V89.0798H363.578V99.9998H307.159V1.99982Z" />
        <path d="M405.121 100.84C399.521 100.84 394.341 99.9998 389.581 98.3198C384.915 96.6398 380.435 94.0732 376.141 90.6198L380.201 80.9598C383.188 83.6665 386.828 85.8598 391.121 87.5398C395.508 89.2198 399.661 90.0598 403.581 90.0598C411.141 90.0598 416.741 88.5665 420.381 85.5798C424.115 82.4998 425.981 78.1132 425.981 72.4198C425.981 61.4998 419.168 56.0398 405.541 56.0398H389.861V45.3998H405.541C411.701 45.3998 416.275 43.8598 419.261 40.7798C422.248 37.6998 423.741 33.3598 423.741 27.7598C423.741 22.8132 422.201 18.9398 419.121 16.1398C416.041 13.3398 411.748 11.9398 406.241 11.9398C402.321 11.9398 398.215 12.4998 393.921 13.6198C389.628 14.7398 386.035 16.3265 383.141 18.3798L379.361 8.71982C383.748 6.10649 388.135 4.19316 392.521 2.97982C396.908 1.76649 401.621 1.15982 406.661 1.15982C411.141 1.15982 415.528 2.04649 419.821 3.81982C424.208 5.59315 427.848 8.48649 430.741 12.4998C433.635 16.4198 435.081 21.5065 435.081 27.7598C435.081 33.3598 433.635 38.1198 430.741 42.0398C427.848 45.9598 424.395 48.4798 420.381 49.5998C424.955 50.8132 428.921 53.4732 432.281 57.5798C435.735 61.6865 437.461 66.6332 437.461 72.4198C437.461 82.3132 434.381 89.5465 428.221 94.1198C422.061 98.5998 414.361 100.84 405.121 100.84Z" />
        <path d="M526.615 89.3598V119.6H516.395V99.9998H456.055V119.6H445.835V89.3598H451.295C454.095 87.3998 456.382 84.4598 458.155 80.5398C459.928 76.6198 461.095 71.7198 461.655 65.8398C462.962 51.1865 463.755 29.9065 464.035 1.99982H516.815L516.395 89.3598H526.615ZM505.195 12.9198H474.955C474.675 35.7865 473.928 53.6132 472.715 66.3998C472.435 69.0132 471.688 73.4465 470.475 79.6998L466.135 86.8398C465.855 87.2132 465.715 87.6332 465.715 88.0998C465.715 88.4732 465.855 88.7998 466.135 89.0798C466.508 89.2665 466.975 89.3598 467.535 89.3598H505.195V12.9198Z" />
        <path d="M543.409 1.99982H555.029V67.2398L553.489 76.6198V76.7598C553.489 77.1332 553.582 77.4598 553.768 77.7398C553.955 77.9265 554.142 78.0198 554.328 78.0198C554.795 78.0198 555.122 77.7865 555.308 77.3198L597.448 1.99982H607.669V99.9998H596.049V34.7598L597.448 25.6598V25.2398C597.448 24.4932 597.215 24.1198 596.748 24.1198C596.375 24.1198 595.955 24.4932 595.489 25.2398L553.628 99.9998H543.409V1.99982Z" />
        <path d="M632.823 1.99982H689.243V12.9198H643.743V45.5398H686.863V56.4598H643.743V89.0798H689.243V99.9998H632.823V1.99982Z" />
    </symbol>

    <symbol viewBox="0 0 24 25" id="map-link">
        <path d="M9 7.29288V15.5429M15 9.54288V17.7929M15.503 21.2919L20.378 18.8539C20.759 18.6639 21 18.2739 21 17.8479V5.36288C21 4.52688 20.12 3.98288 19.372 4.35688L15.503 6.29088C15.3469 6.36933 15.1747 6.41019 15 6.41019C14.8253 6.41019 14.6531 6.36933 14.497 6.29088L9.503 3.79488C9.34671 3.71719 9.17454 3.67676 9 3.67676C8.82546 3.67676 8.65329 3.71719 8.497 3.79488L3.622 6.23188C3.43551 6.32574 3.27866 6.46943 3.16887 6.64701C3.05908 6.82458 3.00062 7.02911 3 7.23788V19.7229C3 20.5589 3.88 21.1029 4.628 20.7289L8.497 18.7949C8.65307 18.7164 8.82532 18.6756 9 18.6756C9.17468 18.6756 9.34693 18.7164 9.503 18.7949L14.497 21.2919C14.814 21.4499 15.187 21.4499 15.503 21.2919Z" stroke-width="1.5" stroke-linecap="round" stroke-linejoin="round" />
    </symbol>

    <symbol viewBox="0 0 16 16" id="select-filter-clear">
        <path d="M3.05029 12.9497L12.9498 3.05021" stroke-width="2" stroke-linecap="round" />
        <path d="M12.9497 12.9497L3.05021 3.05021" stroke-width="2" stroke-linecap="round" />
    </symbol>

    <symbol viewBox="0 0 32 32" id="detail-scheme-furniture">
        <path d="M31.072 13.347C30.528 12.1341 29.472 11.3232 28.2176 11.1157C27.6096 9.50054 26.4768 8.0346 24.896 6.82811C22.5088 5.00541 19.3472 4 16 4C12.6528 4 9.4912 5.00541 7.104 6.82162C5.5232 8.02811 4.3968 9.50054 3.7824 11.1092C2.5344 11.3168 1.4784 12.1276 0.928 13.3405C0.3136 14.7157 0 16.1557 0 17.6281C0 19.4054 0.4608 20.9557 1.3696 22.253C2.176 23.3946 3.3408 24.3416 4.832 25.0616C4.4608 25.587 4.1536 26.1384 3.9104 26.7092C3.6544 27.3189 4.096 27.9935 4.7488 27.9935H5.0688C5.4208 27.9935 5.7472 27.7859 5.8944 27.4551C6.144 26.8973 6.4768 26.3654 6.8928 25.8595C9.2736 26.6054 12.2816 26.9622 16 26.9622C19.7184 26.9622 22.7264 26.5989 25.1072 25.8659C25.5232 26.3719 25.856 26.9038 26.1056 27.4616C26.2528 27.7924 26.5728 28 26.9312 28H27.2512C27.904 28 28.3456 27.3189 28.0896 26.7157C27.8464 26.1449 27.5392 25.5935 27.168 25.0681C28.6592 24.3416 29.824 23.4011 30.6304 22.253C31.5392 20.9557 32 19.4054 32 17.6281C32 16.1557 31.6864 14.7157 31.072 13.347ZM8.3648 8.54054C10.3936 6.99676 13.1072 6.14703 16 6.14703C18.8928 6.14703 21.6128 6.99676 23.6352 8.54054C24.7168 9.36432 25.5232 10.3243 26.0288 11.3686C25.0944 11.7643 24.3456 12.5297 23.9424 13.5351L23.0272 15.8378C22.5536 17.0378 21.4208 17.8097 20.1536 17.8097H11.8464C10.5792 17.8097 9.4528 17.0378 8.9728 15.8378L8.0576 13.5351C7.6544 12.5232 6.9056 11.7643 5.9712 11.3686C6.4768 10.3243 7.2832 9.36432 8.3648 8.54054ZM16 24.8151C2.1056 24.8151 2.1056 19.4054 2.1056 17.6281C2.1056 16.467 2.3552 15.3254 2.8416 14.2357C3.136 13.587 3.7248 13.2043 4.4288 13.2043C4.4416 13.2043 4.4608 13.2043 4.4736 13.2043C5.0496 13.2173 5.7728 13.5222 6.0992 14.3395L7.0144 16.6422C7.8144 18.653 9.7088 19.9503 11.84 19.9503H20.1536C22.2848 19.9503 24.1792 18.653 24.9792 16.6422L25.8944 14.3395C26.2208 13.5222 26.9504 13.2173 27.52 13.2043C27.5328 13.2043 27.552 13.2043 27.5648 13.2043C28.2688 13.2043 28.864 13.587 29.152 14.2357C29.6384 15.3254 29.888 16.467 29.888 17.6281C29.8944 19.4054 29.8944 24.8151 16 24.8151Z" />
    </symbol>

    <symbol viewBox="0 0 24 24" id="icon-download">
        <path d="M12.9983 12.7769V18.2487L14.8253 16.4577L16.2396 17.844L11.9987 22L7.75786 17.844L9.17216 16.4577L10.9992 18.2487V12.7769H12.9983ZM11.9987 2C13.7149 1.99987 15.3713 2.61803 16.6529 3.73691C17.9344 4.8558 18.7517 6.39735 18.9493 8.06838C20.193 8.40089 21.2779 9.15123 22.0144 10.1883C22.7509 11.2253 23.0922 12.4831 22.9786 13.7418C22.865 15.0004 22.3038 16.18 21.3929 17.0742C20.4821 17.9684 19.2797 18.5204 17.9958 18.6337V16.6605C18.4514 16.5912 18.8885 16.4343 19.282 16.1989C19.6755 15.9634 20.0177 15.6541 20.2888 15.2885C20.5599 14.923 20.7547 14.5086 20.8618 14.069C20.969 13.6295 20.9864 13.1735 20.9132 12.7273C20.84 12.2811 20.6775 11.8536 20.4351 11.4691C20.1926 11.0847 19.8751 10.7511 19.5007 10.4874C19.1263 10.2237 18.7024 10.0351 18.2534 9.93253C17.8044 9.82996 17.3391 9.8154 16.8843 9.88968C17.0408 9.17536 17.0324 8.43575 16.8595 7.72504C16.6867 7.01434 16.3539 6.35053 15.8854 5.78224C15.417 5.21395 14.8247 4.75557 14.1521 4.44067C13.4796 4.12578 12.7436 3.96235 11.9982 3.96235C11.2529 3.96235 10.5169 4.12578 9.84435 4.44067C9.17176 4.75557 8.57955 5.21395 8.11109 5.78224C7.64263 6.35053 7.30979 7.01434 7.13695 7.72504C6.96411 8.43575 6.95565 9.17536 7.11218 9.88968C6.20029 9.72183 5.25772 9.91593 4.49183 10.4293C3.72594 10.9426 3.19946 11.7332 3.02822 12.627C2.85697 13.5209 3.05499 14.4448 3.5787 15.1955C4.10242 15.9462 4.90894 16.4623 5.82083 16.6302L6.00074 16.6595V18.6327C4.71742 18.5186 3.51578 17.9663 2.60566 17.0721C1.69554 16.178 1.1348 14.9988 1.02135 13.7407C0.90791 12.4825 1.24898 11.2252 1.985 10.1885C2.72102 9.1517 3.8052 8.40133 5.04821 8.06838C5.24582 6.39735 6.06311 4.8558 7.34465 3.73691C8.62618 2.61803 10.2826 1.99987 11.9987 2Z" />
    </symbol>

    <symbol viewBox="0 0 24 24" id="icon-social">
        <path d="M8.68913 4.32174V6.28599H3.91118V20.0357H19.2006V11.1966H21.1118V21.0179C21.1118 21.2784 21.0111 21.5282 20.8319 21.7123C20.6527 21.8965 20.4097 22 20.1562 22H2.95559C2.70215 22 2.45909 21.8965 2.27989 21.7123C2.10068 21.5282 2 21.2784 2 21.0179V5.30387C2 5.04339 2.10068 4.79359 2.27989 4.6094C2.45909 4.42522 2.70215 4.32174 2.95559 4.32174H8.68913ZM18.1973 6.28599L15.3783 3.38873L16.7295 2L21.8323 7.24455C21.9124 7.32696 21.9669 7.43191 21.989 7.54615C22.0111 7.66039 21.9997 7.77879 21.9564 7.88641C21.913 7.99402 21.8396 8.08601 21.7454 8.15077C21.6512 8.21553 21.5405 8.25014 21.4272 8.25025H13.4671C12.9602 8.25025 12.4741 8.45719 12.1157 8.82556C11.7573 9.19393 11.5559 9.69354 11.5559 10.2145V16.1072H9.64472V10.2145C9.64472 9.17259 10.0474 8.17336 10.7643 7.43663C11.4811 6.69989 12.4533 6.28599 13.4671 6.28599H18.1973Z" />
    </symbol>

    <symbol viewBox="0 0 24 24" id="icon-telegram">
        <path d="M2.40046 12.3147L6.91724 13.817C6.99338 13.8306 7.07155 13.8257 7.1455 13.8029L7.14678 13.8021C8.18066 13.1355 17.4828 7.13863 18.0196 6.93701C18.1042 6.91088 18.1671 6.94032 18.1504 6.99998C17.9353 7.77023 9.84963 15.1073 9.84963 15.1073C9.84963 15.1073 9.817 15.1453 9.79761 15.192L9.78902 15.1868L9.36751 19.7601C9.36751 19.7601 9.19106 21.1614 10.5634 19.7601C11.53 18.7731 12.4675 17.9452 12.9373 17.5419C14.4901 18.6364 16.1616 19.8474 16.8827 20.4806C17.0035 20.6003 17.1466 20.6939 17.3036 20.7559C17.4606 20.8179 17.6282 20.847 17.7965 20.8414C18.4811 20.8151 18.6722 20.0474 18.6722 20.0474C18.6722 20.0474 21.866 6.92756 21.9727 5.16964C21.9834 4.99756 21.9974 4.88782 21.9988 4.76941C22.0043 4.63254 21.9911 4.49556 21.9596 4.36241C21.9436 4.28703 21.9082 4.21734 21.8571 4.16049C21.806 4.10365 21.7411 4.06166 21.6689 4.03886C21.3771 3.92564 20.8823 4.09585 20.8823 4.09585C20.8823 4.09585 3.35917 10.5256 2.35837 11.2377C2.14244 11.3906 2.07026 11.4796 2.03449 11.5841C1.86066 12.0911 2.40046 12.3147 2.40046 12.3147Z" />
    </symbol>

    <symbol viewBox="0 0 32 32" id="select-filter-close">
        <path d="M14 26L4 16M4 16L14 6M4 16L28 16" stroke-width="2" stroke-linecap="round" stroke-linejoin="round" />
    </symbol>

    <symbol viewBox="0 0 32 32" id="window-close">
        <line x1="5.39314" y1="3.97844" x2="28.0206" y2="26.6059" stroke-width="2" />
        <line x1="4.97942" y1="26.6054" x2="27.6068" y2="3.97798" stroke-width="2" />
    </symbol>

</svg>