<svg width="445" height="342" viewBox="0 0 445 342" fill="none" xmlns="http://www.w3.org/2000/svg">
<g clip-path="url(#clip0_2109_248)">
<path d="M367.337 171.154H266.27V193.306H367.337V171.154Z" fill="white"/>
<path d="M367.337 171.154H266.27V193.306H367.337V171.154Z" stroke="#BCBEC0" stroke-width="0.283" stroke-miterlimit="10"/>
<path d="M367.337 171.154H266.27V193.306H367.337V171.154Z" stroke="#BCBEC0" stroke-width="0.283" stroke-miterlimit="10"/>
<mask id="mask0_2109_248" style="mask-type:luminance" maskUnits="userSpaceOnUse" x="0" y="0" width="445" height="342">
<path d="M444.749 0H0V341.525H444.749V0Z" fill="white"/>
</mask>
<g mask="url(#mask0_2109_248)">
<path d="M307.15 183.022L293.85 189.104L293.28 187.774L311.905 176.561V175.229C311.902 175.079 311.929 174.929 311.986 174.789C312.042 174.649 312.126 174.523 312.232 174.416C312.339 174.31 312.466 174.226 312.605 174.17C312.745 174.113 312.895 174.086 313.045 174.089H323.308C324.258 174.089 324.448 175.229 324.448 175.229V176.559L343.073 187.772L342.503 189.102L329.203 183.02L307.15 183.022Z" fill="white"/>
<path d="M307.15 183.022L293.85 189.104L293.28 187.774L311.905 176.561V175.229C311.902 175.079 311.929 174.929 311.986 174.789C312.042 174.649 312.126 174.523 312.232 174.416C312.339 174.31 312.466 174.226 312.605 174.17C312.745 174.113 312.895 174.086 313.045 174.089H323.308C324.258 174.089 324.448 175.229 324.448 175.229V176.559L343.073 187.772L342.503 189.102L329.203 183.02L307.15 183.022Z" stroke="#BCBEC0" stroke-width="0.283" stroke-miterlimit="10"/>
<path d="M307.15 183.022L293.85 189.104L293.28 187.774L311.905 176.561V175.229C311.902 175.079 311.929 174.929 311.986 174.789C312.042 174.649 312.126 174.523 312.232 174.416C312.339 174.31 312.466 174.226 312.605 174.17C312.745 174.113 312.895 174.086 313.045 174.089H323.308C324.258 174.089 324.448 175.229 324.448 175.229V176.559L343.073 187.772L342.503 189.102L329.203 183.02L307.15 183.022Z" stroke="#BCBEC0" stroke-width="0.283" stroke-miterlimit="10"/>
<path d="M357.325 181.12H278.643V183.021H357.325V181.12Z" fill="white"/>
<path d="M357.325 181.12H278.643V183.021H357.325V181.12Z" stroke="#BCBEC0" stroke-width="0.283" stroke-miterlimit="10"/>
<path d="M357.325 181.12H278.643V183.021H357.325V181.12Z" stroke="#BCBEC0" stroke-width="0.283" stroke-miterlimit="10"/>
<path d="M334.329 181.12C332.238 181.12 332.429 179.22 329.958 179.22H305.631C303.35 179.22 303.54 181.12 301.26 181.12H334.329Z" fill="white"/>
<path d="M334.329 181.12C332.238 181.12 332.429 179.22 329.958 179.22H305.631C303.35 179.22 303.54 181.12 301.26 181.12H334.329Z" stroke="#BCBEC0" stroke-width="0.283" stroke-miterlimit="10"/>
<path d="M334.329 181.12C332.238 181.12 332.429 179.22 329.958 179.22H305.631C303.35 179.22 303.54 181.12 301.26 181.12H334.329Z" stroke="#BCBEC0" stroke-width="0.283" stroke-miterlimit="10"/>
<path d="M387.733 146.531H290.616V167.817H387.733V146.531Z" fill="white"/>
<path d="M387.733 146.531H290.616V167.817H387.733V146.531Z" stroke="#BCBEC0" stroke-width="0.283" stroke-miterlimit="10"/>
<path d="M387.733 146.531H290.616V167.817H387.733V146.531Z" stroke="#BCBEC0" stroke-width="0.283" stroke-miterlimit="10"/>
<path d="M350.102 156.604L363.402 150.522L363.972 151.852L345.351 163.066V164.396C345.354 164.547 345.327 164.697 345.271 164.836C345.214 164.976 345.131 165.103 345.024 165.21C344.918 165.316 344.791 165.4 344.651 165.456C344.511 165.512 344.362 165.54 344.211 165.536H334.138C333.188 165.536 332.998 164.396 332.998 164.396V163.066L314.372 151.852L314.942 150.522L328.242 156.604H350.102Z" fill="white"/>
<path d="M350.102 156.604L363.402 150.522L363.972 151.852L345.351 163.066V164.396C345.354 164.547 345.327 164.697 345.271 164.836C345.214 164.976 345.131 165.103 345.024 165.21C344.918 165.316 344.791 165.4 344.651 165.456C344.511 165.512 344.362 165.54 344.211 165.536H334.138C333.188 165.536 332.998 164.396 332.998 164.396V163.066L314.372 151.852L314.942 150.522L328.242 156.604H350.102Z" stroke="#BCBEC0" stroke-width="0.283" stroke-miterlimit="10"/>
<path d="M350.102 156.604L363.402 150.522L363.972 151.852L345.351 163.066V164.396C345.354 164.547 345.327 164.697 345.271 164.836C345.214 164.976 345.131 165.103 345.024 165.21C344.918 165.316 344.791 165.4 344.651 165.456C344.511 165.512 344.362 165.54 344.211 165.536H334.138C333.188 165.536 332.998 164.396 332.998 164.396V163.066L314.372 151.852L314.942 150.522L328.242 156.604H350.102Z" stroke="#BCBEC0" stroke-width="0.283" stroke-miterlimit="10"/>
<path d="M378.611 156.604H299.929V158.505H378.611V156.604Z" fill="white"/>
<path d="M378.611 156.604H299.929V158.505H378.611V156.604Z" stroke="#BCBEC0" stroke-width="0.283" stroke-miterlimit="10"/>
<path d="M378.611 156.604H299.929V158.505H378.611V156.604Z" stroke="#BCBEC0" stroke-width="0.283" stroke-miterlimit="10"/>
<path d="M322.926 158.314C325.017 158.314 324.826 160.214 327.297 160.214H351.624C353.905 160.214 353.715 158.314 355.995 158.314H322.926Z" fill="white"/>
<path d="M322.926 158.314C325.017 158.314 324.826 160.214 327.297 160.214H351.624C353.905 160.214 353.715 158.314 355.995 158.314H322.926Z" stroke="#BCBEC0" stroke-width="0.283" stroke-miterlimit="10"/>
<path d="M322.926 158.314C325.017 158.314 324.826 160.214 327.297 160.214H351.624C353.905 160.214 353.715 158.314 355.995 158.314H322.926Z" stroke="#BCBEC0" stroke-width="0.283" stroke-miterlimit="10"/>
<path d="M274.652 279.758V319.479C274.648 319.655 274.679 319.83 274.745 319.993C274.81 320.156 274.908 320.304 275.032 320.429C275.156 320.553 275.305 320.651 275.468 320.716C275.631 320.782 275.806 320.813 275.982 320.809H316.273C316.449 320.813 316.623 320.782 316.787 320.716C316.95 320.651 317.098 320.553 317.222 320.429C317.347 320.304 317.444 320.156 317.51 319.993C317.575 319.83 317.607 319.655 317.603 319.479V314.918C317.607 314.742 317.575 314.568 317.51 314.404C317.444 314.241 317.347 314.093 317.222 313.968C317.098 313.844 316.95 313.746 316.787 313.681C316.623 313.616 316.449 313.584 316.273 313.588H281.873V279.758C281.877 279.582 281.845 279.408 281.78 279.244C281.714 279.081 281.617 278.933 281.492 278.808C281.368 278.684 281.22 278.586 281.057 278.521C280.893 278.456 280.719 278.424 280.543 278.428H275.982C275.637 278.451 275.311 278.599 275.067 278.843C274.822 279.088 274.675 279.413 274.652 279.758Z" fill="white"/>
<path d="M274.652 279.758V319.479C274.648 319.655 274.679 319.83 274.745 319.993C274.81 320.156 274.908 320.304 275.032 320.429C275.156 320.553 275.305 320.651 275.468 320.716C275.631 320.782 275.806 320.813 275.982 320.809H316.273C316.449 320.813 316.623 320.782 316.787 320.716C316.95 320.651 317.098 320.553 317.222 320.429C317.347 320.304 317.444 320.156 317.51 319.993C317.575 319.83 317.607 319.655 317.603 319.479V314.918C317.607 314.742 317.575 314.568 317.51 314.404C317.444 314.241 317.347 314.093 317.222 313.968C317.098 313.844 316.95 313.746 316.787 313.681C316.623 313.616 316.449 313.584 316.273 313.588H281.873V279.758C281.877 279.582 281.845 279.408 281.78 279.244C281.714 279.081 281.617 278.933 281.492 278.808C281.368 278.684 281.22 278.586 281.057 278.521C280.893 278.456 280.719 278.424 280.543 278.428H275.982C275.637 278.451 275.311 278.599 275.067 278.843C274.822 279.088 274.675 279.413 274.652 279.758Z" stroke="#BCBEC0" stroke-width="0.283" stroke-miterlimit="10"/>
<path d="M274.652 279.758V319.479C274.648 319.655 274.679 319.83 274.745 319.993C274.81 320.156 274.908 320.304 275.032 320.429C275.156 320.553 275.305 320.651 275.468 320.716C275.631 320.782 275.806 320.813 275.982 320.809H316.273C316.449 320.813 316.623 320.782 316.787 320.716C316.95 320.651 317.098 320.553 317.222 320.429C317.347 320.304 317.444 320.156 317.51 319.993C317.575 319.83 317.607 319.655 317.603 319.479V314.918C317.607 314.742 317.575 314.568 317.51 314.404C317.444 314.241 317.347 314.093 317.222 313.968C317.098 313.844 316.95 313.746 316.787 313.681C316.623 313.616 316.449 313.584 316.273 313.588H281.873V279.758C281.877 279.582 281.845 279.408 281.78 279.244C281.714 279.081 281.617 278.933 281.492 278.808C281.368 278.684 281.22 278.586 281.057 278.521C280.893 278.456 280.719 278.424 280.543 278.428H275.982C275.637 278.451 275.311 278.599 275.067 278.843C274.822 279.088 274.675 279.413 274.652 279.758Z" stroke="#BCBEC0" stroke-width="0.283" stroke-miterlimit="10"/>
<path d="M269.33 279.758V324.991C269.326 325.167 269.358 325.342 269.423 325.505C269.489 325.668 269.587 325.816 269.711 325.941C269.835 326.065 269.983 326.163 270.147 326.228C270.31 326.294 270.485 326.325 270.66 326.321H316.083C316.259 326.325 316.434 326.294 316.597 326.228C316.76 326.163 316.909 326.065 317.033 325.941C317.157 325.816 317.255 325.668 317.321 325.505C317.386 325.342 317.418 325.167 317.413 324.991V322.52C317.413 321.76 316.843 320.81 316.083 320.81H274.652V279.758C274.657 279.582 274.625 279.408 274.56 279.244C274.494 279.081 274.396 278.933 274.272 278.808C274.148 278.684 273.999 278.586 273.836 278.521C273.673 278.456 273.498 278.424 273.322 278.428H270.851C270.486 278.447 270.137 278.588 269.861 278.83C269.585 279.071 269.399 279.398 269.331 279.758" fill="white"/>
<path d="M269.33 279.758V324.991C269.326 325.167 269.358 325.342 269.423 325.505C269.489 325.668 269.587 325.816 269.711 325.941C269.835 326.065 269.983 326.163 270.147 326.228C270.31 326.294 270.485 326.325 270.66 326.321H316.083C316.259 326.325 316.434 326.294 316.597 326.228C316.76 326.163 316.909 326.065 317.033 325.941C317.157 325.816 317.255 325.668 317.321 325.505C317.386 325.342 317.418 325.167 317.413 324.991V322.52C317.413 321.76 316.843 320.81 316.083 320.81H274.652V279.758C274.657 279.582 274.625 279.408 274.56 279.244C274.494 279.081 274.396 278.933 274.272 278.808C274.148 278.684 273.999 278.586 273.836 278.521C273.673 278.456 273.498 278.424 273.322 278.428H270.851C270.486 278.447 270.137 278.588 269.861 278.83C269.585 279.071 269.399 279.398 269.331 279.758" stroke="#BCBEC0" stroke-width="0.283" stroke-miterlimit="10"/>
<path d="M269.33 279.758V324.991C269.326 325.167 269.358 325.342 269.423 325.505C269.489 325.668 269.587 325.816 269.711 325.941C269.835 326.065 269.983 326.163 270.147 326.228C270.31 326.294 270.485 326.325 270.66 326.321H316.083C316.259 326.325 316.434 326.294 316.597 326.228C316.76 326.163 316.909 326.065 317.033 325.941C317.157 325.816 317.255 325.668 317.321 325.505C317.386 325.342 317.418 325.167 317.413 324.991V322.52C317.413 321.76 316.843 320.81 316.083 320.81H274.652V279.758C274.657 279.582 274.625 279.408 274.56 279.244C274.494 279.081 274.396 278.933 274.272 278.808C274.148 278.684 273.999 278.586 273.836 278.521C273.673 278.456 273.498 278.424 273.322 278.428H270.851C270.485 278.447 270.136 278.588 269.86 278.829C269.584 279.071 269.398 279.398 269.33 279.758Z" stroke="#BCBEC0" stroke-width="0.283" stroke-miterlimit="10"/>
<path d="M281.874 313.587L275.222 320.239" stroke="#BCBEC0" stroke-width="0.283" stroke-miterlimit="10"/>
<path d="M316.902 278.428H282.572C282.185 278.428 281.872 278.741 281.872 279.128V312.888C281.872 313.274 282.185 313.588 282.572 313.588H316.902C317.289 313.588 317.602 313.274 317.602 312.888V279.128C317.602 278.741 317.289 278.428 316.902 278.428Z" fill="white"/>
<path d="M316.902 278.428H282.572C282.185 278.428 281.872 278.741 281.872 279.128V312.888C281.872 313.274 282.185 313.588 282.572 313.588H316.902C317.289 313.588 317.602 313.274 317.602 312.888V279.128C317.602 278.741 317.289 278.428 316.902 278.428Z" stroke="#BCBEC0" stroke-width="0.283" stroke-miterlimit="10"/>
<path d="M316.902 278.428H282.572C282.185 278.428 281.872 278.741 281.872 279.128V312.888C281.872 313.274 282.185 313.588 282.572 313.588H316.902C317.289 313.588 317.602 313.274 317.602 312.888V279.128C317.602 278.741 317.289 278.428 316.902 278.428Z" stroke="#BCBEC0" stroke-width="0.283" stroke-miterlimit="10"/>
<path d="M360.555 279.758V319.479C360.56 319.655 360.528 319.829 360.463 319.993C360.397 320.156 360.299 320.304 360.175 320.428C360.051 320.553 359.902 320.65 359.739 320.716C359.576 320.781 359.401 320.813 359.225 320.809H318.743C318.568 320.813 318.393 320.781 318.23 320.716C318.066 320.65 317.918 320.553 317.794 320.428C317.67 320.304 317.572 320.156 317.506 319.993C317.441 319.829 317.409 319.655 317.413 319.479V314.918C317.409 314.742 317.441 314.567 317.506 314.404C317.572 314.241 317.67 314.092 317.794 313.968C317.918 313.844 318.066 313.746 318.23 313.681C318.393 313.615 318.568 313.584 318.743 313.588H353.143V279.758C353.139 279.582 353.171 279.407 353.236 279.244C353.302 279.081 353.4 278.932 353.524 278.808C353.648 278.684 353.796 278.586 353.96 278.521C354.123 278.455 354.298 278.424 354.473 278.428H359.034C359.41 278.414 359.776 278.544 360.058 278.791C360.341 279.038 360.519 279.384 360.555 279.758Z" fill="white"/>
<path d="M360.555 279.758V319.479C360.56 319.655 360.528 319.829 360.463 319.993C360.397 320.156 360.299 320.304 360.175 320.428C360.051 320.553 359.902 320.65 359.739 320.716C359.576 320.781 359.401 320.813 359.225 320.809H318.743C318.568 320.813 318.393 320.781 318.23 320.716C318.066 320.65 317.918 320.553 317.794 320.428C317.67 320.304 317.572 320.156 317.506 319.993C317.441 319.829 317.409 319.655 317.413 319.479V314.918C317.409 314.742 317.441 314.567 317.506 314.404C317.572 314.241 317.67 314.092 317.794 313.968C317.918 313.844 318.066 313.746 318.23 313.681C318.393 313.615 318.568 313.584 318.743 313.588H353.143V279.758C353.139 279.582 353.171 279.407 353.236 279.244C353.302 279.081 353.4 278.932 353.524 278.808C353.648 278.684 353.796 278.586 353.96 278.521C354.123 278.455 354.298 278.424 354.473 278.428H359.034C359.41 278.414 359.776 278.544 360.058 278.791C360.341 279.038 360.519 279.384 360.555 279.758Z" stroke="#BCBEC0" stroke-width="0.283" stroke-miterlimit="10"/>
<path d="M360.555 279.758V319.479C360.56 319.655 360.528 319.829 360.463 319.993C360.397 320.156 360.299 320.304 360.175 320.428C360.051 320.553 359.902 320.651 359.739 320.716C359.576 320.781 359.401 320.813 359.225 320.809H318.743C318.568 320.813 318.393 320.781 318.23 320.716C318.066 320.651 317.918 320.553 317.794 320.428C317.67 320.304 317.572 320.156 317.506 319.993C317.441 319.829 317.409 319.655 317.413 319.479V314.918C317.409 314.742 317.441 314.567 317.506 314.404C317.572 314.241 317.67 314.093 317.794 313.968C317.918 313.844 318.066 313.746 318.23 313.681C318.393 313.615 318.568 313.584 318.743 313.588H353.143V279.758C353.139 279.582 353.171 279.407 353.236 279.244C353.302 279.081 353.4 278.933 353.524 278.808C353.648 278.684 353.796 278.586 353.96 278.521C354.123 278.455 354.298 278.424 354.473 278.428H359.034C359.41 278.414 359.776 278.544 360.059 278.791C360.342 279.038 360.519 279.384 360.555 279.758Z" stroke="#BCBEC0" stroke-width="0.283" stroke-miterlimit="10"/>
<path d="M365.69 279.758V324.991C365.694 325.167 365.662 325.342 365.597 325.505C365.532 325.668 365.434 325.816 365.309 325.941C365.185 326.065 365.037 326.163 364.874 326.228C364.71 326.294 364.536 326.325 364.36 326.321H318.933C318.757 326.325 318.582 326.294 318.419 326.228C318.256 326.163 318.108 326.065 317.983 325.941C317.859 325.816 317.761 325.668 317.696 325.505C317.63 325.342 317.599 325.167 317.603 324.991V322.52C317.603 321.76 318.173 320.81 318.933 320.81H360.555V279.758C360.551 279.582 360.582 279.408 360.648 279.244C360.713 279.081 360.811 278.933 360.935 278.808C361.06 278.684 361.208 278.586 361.371 278.521C361.534 278.456 361.709 278.424 361.885 278.428H364.356C364.701 278.451 365.026 278.599 365.271 278.843C365.515 279.088 365.663 279.413 365.686 279.758" fill="white"/>
<path d="M365.69 279.758V324.991C365.694 325.167 365.662 325.342 365.597 325.505C365.532 325.668 365.434 325.816 365.309 325.941C365.185 326.065 365.037 326.163 364.874 326.228C364.71 326.294 364.536 326.325 364.36 326.321H318.933C318.757 326.325 318.582 326.294 318.419 326.228C318.256 326.163 318.108 326.065 317.983 325.941C317.859 325.816 317.761 325.668 317.696 325.505C317.63 325.342 317.599 325.167 317.603 324.991V322.52C317.603 321.76 318.173 320.81 318.933 320.81H360.555V279.758C360.551 279.582 360.582 279.408 360.648 279.244C360.713 279.081 360.811 278.933 360.935 278.808C361.06 278.684 361.208 278.586 361.371 278.521C361.534 278.456 361.709 278.424 361.885 278.428H364.356C364.701 278.451 365.026 278.599 365.271 278.843C365.515 279.088 365.663 279.413 365.686 279.758" stroke="#BCBEC0" stroke-width="0.283" stroke-miterlimit="10"/>
<path d="M365.69 279.758V324.991C365.694 325.167 365.662 325.342 365.597 325.505C365.532 325.668 365.434 325.816 365.309 325.941C365.185 326.065 365.037 326.163 364.874 326.228C364.71 326.294 364.536 326.325 364.36 326.321H318.933C318.757 326.325 318.582 326.294 318.419 326.228C318.256 326.163 318.108 326.065 317.983 325.941C317.859 325.816 317.761 325.668 317.696 325.505C317.63 325.342 317.599 325.167 317.603 324.991V322.52C317.603 321.76 318.173 320.81 318.933 320.81H360.555V279.758C360.551 279.582 360.582 279.408 360.648 279.244C360.713 279.081 360.811 278.933 360.935 278.808C361.06 278.684 361.208 278.586 361.371 278.521C361.534 278.456 361.709 278.424 361.885 278.428H364.356C364.702 278.45 365.028 278.597 365.273 278.842C365.519 279.087 365.667 279.412 365.69 279.758Z" stroke="#BCBEC0" stroke-width="0.283" stroke-miterlimit="10"/>
<path d="M353.143 313.587L359.985 320.239" stroke="#BCBEC0" stroke-width="0.283" stroke-miterlimit="10"/>
<path d="M352.443 278.428H318.303C317.916 278.428 317.603 278.741 317.603 279.128V312.888C317.603 313.274 317.916 313.588 318.303 313.588H352.443C352.829 313.588 353.143 313.274 353.143 312.888V279.128C353.143 278.741 352.829 278.428 352.443 278.428Z" fill="white"/>
<path d="M352.443 278.428H318.303C317.916 278.428 317.603 278.741 317.603 279.128V312.888C317.603 313.274 317.916 313.588 318.303 313.588H352.443C352.829 313.588 353.143 313.274 353.143 312.888V279.128C353.143 278.741 352.829 278.428 352.443 278.428Z" stroke="#BCBEC0" stroke-width="0.283" stroke-miterlimit="10"/>
<path d="M352.443 278.428H318.303C317.916 278.428 317.603 278.741 317.603 279.128V312.888C317.603 313.274 317.916 313.588 318.303 313.588H352.443C352.829 313.588 353.143 313.274 353.143 312.888V279.128C353.143 278.741 352.829 278.428 352.443 278.428Z" stroke="#BCBEC0" stroke-width="0.283" stroke-miterlimit="10"/>
<path d="M123.37 91.0351C123.335 95.4986 121.538 99.7675 118.37 102.912C115.201 106.056 110.919 107.82 106.455 107.82C101.991 107.82 97.7088 106.056 94.5404 102.912C91.372 99.7675 89.5749 95.4986 89.5405 91.0351V31.1691C89.5234 28.9369 89.9482 26.7234 90.7906 24.6562C91.6329 22.5889 92.8761 20.7089 94.4484 19.1244C96.0208 17.5399 97.8912 16.2823 99.9519 15.4241C102.013 14.5659 104.223 14.124 106.455 14.124C108.687 14.124 110.897 14.5659 112.958 15.4241C115.019 16.2823 116.889 17.5399 118.462 19.1244C120.034 20.7089 121.277 22.5889 122.12 24.6562C122.962 26.7234 123.387 28.9369 123.37 31.1691V91.0351Z" fill="white"/>
<path d="M123.37 91.0351C123.335 95.4986 121.538 99.7675 118.37 102.912C115.201 106.056 110.919 107.82 106.455 107.82C101.991 107.82 97.7088 106.056 94.5404 102.912C91.372 99.7675 89.5749 95.4986 89.5405 91.0351V31.1691C89.5234 28.9369 89.9482 26.7234 90.7906 24.6562C91.6329 22.5889 92.8761 20.7089 94.4484 19.1244C96.0208 17.5399 97.8912 16.2823 99.9519 15.4241C102.013 14.5659 104.223 14.124 106.455 14.124C108.687 14.124 110.897 14.5659 112.958 15.4241C115.019 16.2823 116.889 17.5399 118.462 19.1244C120.034 20.7089 121.277 22.5889 122.12 24.6562C122.962 26.7234 123.387 28.9369 123.37 31.1691V91.0351Z" stroke="#BCBEC0" stroke-width="0.283" stroke-linecap="round" stroke-linejoin="round"/>
<path d="M120.139 90.6549C120.139 92.4769 119.78 94.281 119.083 95.9643C118.385 97.6475 117.363 99.177 116.075 100.465C114.787 101.754 113.257 102.776 111.574 103.473C109.891 104.17 108.087 104.529 106.265 104.529C104.443 104.529 102.639 104.17 100.955 103.473C99.272 102.776 97.7425 101.754 96.4542 100.465C95.1659 99.177 94.144 97.6475 93.4467 95.9643C92.7495 94.281 92.3906 92.4769 92.3906 90.6549V31.1689C92.3906 29.347 92.7495 27.5428 93.4467 25.8596C94.144 24.1763 95.1659 22.6468 96.4542 21.3585C97.7425 20.0702 99.272 19.0483 100.955 18.351C102.639 17.6538 104.443 17.2949 106.265 17.2949C108.087 17.2949 109.891 17.6538 111.574 18.351C113.257 19.0483 114.787 20.0702 116.075 21.3585C117.363 22.6468 118.385 24.1763 119.083 25.8596C119.78 27.5428 120.139 29.347 120.139 31.1689V90.6549Z" stroke="#BCBEC0" stroke-width="0.283" stroke-linecap="round" stroke-linejoin="round"/>
<path d="M106.265 26.9879C107.067 26.9768 107.863 27.1266 108.606 27.4284C109.348 27.7301 110.023 28.1777 110.59 28.7447C111.157 29.3116 111.605 29.9865 111.907 30.7294C112.208 31.4723 112.358 32.2681 112.347 33.0699V86.8549C112.357 87.6601 112.208 88.4593 111.907 89.2062C111.606 89.9531 111.159 90.6328 110.594 91.2058C110.028 91.7789 109.354 92.2339 108.611 92.5444C107.868 92.8549 107.071 93.0149 106.266 93.0149C105.46 93.0149 104.663 92.8549 103.92 92.5444C103.177 92.2339 102.503 91.7789 101.937 91.2058C101.372 90.6328 100.925 89.9531 100.624 89.2062C100.323 88.4593 100.174 87.6601 100.184 86.8549V33.0699C100.195 31.4604 100.839 29.9199 101.977 28.7818C103.115 27.6436 104.656 26.9991 106.265 26.9879Z" stroke="#BCBEC0" stroke-width="0.283" stroke-linecap="round" stroke-linejoin="round"/>
<path d="M94.0998 61.3857C94.5196 61.3857 94.8598 60.7052 94.8598 59.8657C94.8598 59.0262 94.5196 58.3457 94.0998 58.3457C93.6801 58.3457 93.3398 59.0262 93.3398 59.8657C93.3398 60.7052 93.6801 61.3857 94.0998 61.3857Z" stroke="#BCBEC0" stroke-width="0.283" stroke-linecap="round" stroke-linejoin="round"/>
<path d="M175.254 171.238H67.874V195.755H175.254V171.238Z" fill="white"/>
<path d="M175.254 171.238H67.874V195.755H175.254V171.238Z" stroke="#BCBEC0" stroke-width="0.283" stroke-linecap="round" stroke-linejoin="round"/>
<path d="M122.419 176.939C122.419 176.485 122.239 176.05 121.918 175.73C121.597 175.409 121.162 175.229 120.709 175.229C120.255 175.229 119.82 175.409 119.499 175.73C119.178 176.05 118.998 176.485 118.998 176.939C118.998 178.649 120.708 178.079 120.708 179.6" stroke="#BCBEC0" stroke-width="0.283" stroke-linecap="round" stroke-linejoin="round"/>
<path d="M120.713 179.6L131.923 183.4C132.212 183.533 132.455 183.748 132.624 184.018C132.793 184.288 132.879 184.601 132.873 184.92C132.87 185.06 132.837 185.199 132.776 185.326C132.715 185.453 132.628 185.565 132.52 185.655C132.412 185.745 132.285 185.811 132.15 185.848C132.014 185.885 131.872 185.892 131.733 185.87H109.876C109.736 185.902 109.59 185.902 109.45 185.869C109.31 185.836 109.18 185.77 109.069 185.678C108.959 185.586 108.871 185.47 108.813 185.338C108.755 185.207 108.729 185.063 108.736 184.92C108.691 184.595 108.762 184.265 108.935 183.988C109.109 183.71 109.374 183.502 109.686 183.4L120.713 179.6Z" stroke="#BCBEC0" stroke-width="0.283" stroke-linecap="round" stroke-linejoin="round"/>
<path d="M137.242 184.732H172.972" stroke="#BCBEC0" stroke-width="0.283" stroke-linecap="round" stroke-linejoin="round"/>
<path d="M69.3936 184.732H103.794" stroke="#BCBEC0" stroke-width="0.283" stroke-linecap="round" stroke-linejoin="round"/>
<path d="M254.316 14.0645H221.627V108.14H254.316V14.0645Z" fill="white"/>
<path d="M254.316 14.0645H221.627V108.14H254.316V14.0645Z" stroke="#BCBEC0" stroke-width="0.283" stroke-linecap="round" stroke-linejoin="round"/>
<path d="M239.683 55.4947C239.683 55.041 239.503 54.606 239.182 54.2852C238.861 53.9644 238.426 53.7842 237.972 53.7842C237.519 53.7842 237.083 53.9644 236.763 54.2852C236.442 54.606 236.262 55.041 236.262 55.4947C236.262 57.2047 237.973 56.8247 237.973 58.3457" stroke="#BCBEC0" stroke-width="0.283" stroke-linecap="round" stroke-linejoin="round"/>
<path d="M237.971 58.3457L249.371 62.1457C249.683 62.2479 249.948 62.456 250.122 62.7337C250.295 63.0115 250.366 63.3412 250.321 63.6657C250.319 63.8065 250.286 63.945 250.225 64.0719C250.164 64.1989 250.077 64.3112 249.969 64.4013C249.86 64.4914 249.734 64.5572 249.598 64.5942C249.463 64.6312 249.32 64.6385 249.181 64.6157H226.758C226.618 64.6483 226.473 64.648 226.333 64.6149C226.193 64.5817 226.062 64.5165 225.952 64.4244C225.842 64.3323 225.754 64.2159 225.696 64.0843C225.638 63.9526 225.612 63.8093 225.618 63.6657C225.574 63.3412 225.645 63.0115 225.818 62.7337C225.992 62.456 226.257 62.2479 226.568 62.1457L237.971 58.3457Z" stroke="#BCBEC0" stroke-width="0.283" stroke-linecap="round" stroke-linejoin="round"/>
<path d="M237.971 51.8853V16.1553" stroke="#BCBEC0" stroke-width="0.283" stroke-linecap="round" stroke-linejoin="round"/>
<path d="M237.971 106.62V66.8994" stroke="#BCBEC0" stroke-width="0.283" stroke-linecap="round" stroke-linejoin="round"/>
<path d="M296.568 14.0645H275.542C275.155 14.0645 274.842 14.3779 274.842 14.7645V35.7905C274.842 36.1771 275.155 36.4905 275.542 36.4905H296.568C296.954 36.4905 297.268 36.1771 297.268 35.7905V14.7645C297.268 14.3779 296.954 14.0645 296.568 14.0645Z" fill="white"/>
<path d="M296.568 14.0645H275.542C275.155 14.0645 274.842 14.3779 274.842 14.7645V35.7905C274.842 36.1771 275.155 36.4905 275.542 36.4905H296.568C296.954 36.4905 297.268 36.1771 297.268 35.7905V14.7645C297.268 14.3779 296.954 14.0645 296.568 14.0645Z" stroke="#BCBEC0" stroke-width="0.283" stroke-linecap="round" stroke-linejoin="round"/>
<path d="M402.997 14.0645H381.971C381.584 14.0645 381.271 14.3779 381.271 14.7645V35.7905C381.271 36.1771 381.584 36.4905 381.971 36.4905H402.997C403.383 36.4905 403.697 36.1771 403.697 35.7905V14.7645C403.697 14.3779 403.383 14.0645 402.997 14.0645Z" fill="white"/>
<path d="M402.997 14.0645H381.971C381.584 14.0645 381.271 14.3779 381.271 14.7645V35.7905C381.271 36.1771 381.584 36.4905 381.971 36.4905H402.997C403.383 36.4905 403.697 36.1771 403.697 35.7905V14.7645C403.697 14.3779 403.383 14.0645 402.997 14.0645Z" stroke="#BCBEC0" stroke-width="0.283" stroke-linecap="round" stroke-linejoin="round"/>
<path d="M298.978 17.4849C298.972 17.2088 299.022 16.9342 299.125 16.6779C299.228 16.4216 299.381 16.1887 299.577 15.9933C299.772 15.798 300.005 15.6442 300.261 15.5411C300.517 15.4381 300.792 15.388 301.068 15.3939H377.279C377.561 15.3647 377.845 15.3988 378.112 15.4936C378.379 15.5883 378.622 15.7414 378.822 15.9418C379.022 16.1421 379.176 16.3845 379.27 16.6515C379.365 16.9184 379.399 17.2031 379.37 17.4849V111.751C379.376 112.027 379.326 112.302 379.223 112.558C379.12 112.815 378.966 113.047 378.771 113.243C378.575 113.438 378.343 113.592 378.086 113.695C377.83 113.798 377.555 113.848 377.279 113.842H301.068C300.786 113.871 300.501 113.837 300.234 113.742C299.968 113.647 299.725 113.494 299.525 113.294C299.324 113.094 299.171 112.851 299.077 112.584C298.982 112.317 298.948 112.033 298.977 111.751L298.978 17.4849Z" fill="white"/>
<path d="M298.978 17.4849C298.972 17.2088 299.022 16.9342 299.125 16.6779C299.228 16.4216 299.381 16.1887 299.577 15.9933C299.772 15.798 300.005 15.6442 300.261 15.5411C300.517 15.4381 300.792 15.388 301.068 15.3939H377.279C377.561 15.3647 377.845 15.3988 378.112 15.4936C378.379 15.5883 378.622 15.7414 378.822 15.9418C379.022 16.1421 379.176 16.3845 379.27 16.6515C379.365 16.9184 379.399 17.2031 379.37 17.4849V111.751C379.376 112.027 379.326 112.302 379.223 112.558C379.12 112.815 378.966 113.047 378.771 113.243C378.575 113.438 378.343 113.592 378.086 113.695C377.83 113.798 377.555 113.848 377.279 113.842H301.068C300.786 113.871 300.501 113.837 300.234 113.742C299.968 113.647 299.725 113.494 299.525 113.294C299.324 113.094 299.171 112.851 299.077 112.584C298.982 112.317 298.948 112.033 298.977 111.751L298.978 17.4849Z" stroke="#BCBEC0" stroke-width="0.283" stroke-miterlimit="10"/>
<path d="M337.559 39.151C337.559 39.4005 337.51 39.6476 337.415 39.8781C337.319 40.1086 337.179 40.3181 337.003 40.4945C336.826 40.6709 336.617 40.8109 336.386 40.9064C336.156 41.0019 335.909 41.051 335.659 41.051H305.059C304.555 41.051 304.072 40.8508 303.716 40.4945C303.359 40.1382 303.159 39.6549 303.159 39.151V20.525C303.159 20.0211 303.359 19.5378 303.716 19.1815C304.072 18.8252 304.555 18.625 305.059 18.625H335.846C336.35 18.625 336.833 18.8252 337.19 19.1815C337.546 19.5378 337.746 20.0211 337.746 20.525V39.151H337.559Z" fill="white"/>
<path d="M337.559 39.151C337.559 39.4005 337.51 39.6476 337.415 39.8781C337.319 40.1086 337.179 40.3181 337.003 40.4945C336.826 40.6709 336.617 40.8109 336.386 40.9064C336.156 41.0019 335.909 41.051 335.659 41.051H305.059C304.555 41.051 304.072 40.8508 303.716 40.4945C303.359 40.1382 303.159 39.6549 303.159 39.151V20.525C303.159 20.0211 303.359 19.5378 303.716 19.1815C304.072 18.8252 304.555 18.625 305.059 18.625H335.846C336.35 18.625 336.833 18.8252 337.19 19.1815C337.546 19.5378 337.746 20.0211 337.746 20.525V39.151H337.559Z" stroke="#BCBEC0" stroke-width="0.283" stroke-miterlimit="10"/>
<path d="M375.188 39.151C375.188 39.6549 374.987 40.1382 374.631 40.4945C374.275 40.8508 373.791 41.051 373.288 41.051H342.502C341.998 41.051 341.514 40.8508 341.158 40.4945C340.802 40.1382 340.602 39.6549 340.602 39.151V20.525C340.602 20.0211 340.802 19.5378 341.158 19.1815C341.514 18.8252 341.998 18.625 342.502 18.625H373.288C373.791 18.625 374.275 18.8252 374.631 19.1815C374.987 19.5378 375.188 20.0211 375.188 20.525V39.151Z" fill="white"/>
<path d="M375.188 39.151C375.188 39.6549 374.987 40.1382 374.631 40.4945C374.275 40.8508 373.791 41.051 373.288 41.051H342.502C341.998 41.051 341.514 40.8508 341.158 40.4945C340.802 40.1382 340.602 39.6549 340.602 39.151V20.525C340.602 20.0211 340.802 19.5378 341.158 19.1815C341.514 18.8252 341.998 18.625 342.502 18.625H373.288C373.791 18.625 374.275 18.8252 374.631 19.1815C374.987 19.5378 375.188 20.0211 375.188 20.525V39.151Z" stroke="#BCBEC0" stroke-width="0.283" stroke-miterlimit="10"/>
<path d="M298.978 43.1416H379.56" stroke="#BCBEC0" stroke-width="0.283" stroke-miterlimit="10"/>
<path d="M379.561 25.6573C378.231 25.6573 378.231 24.1373 378.231 24.1373V17.4853C378.231 17.2953 378.231 16.9153 378.041 16.9153C377.966 16.8433 377.876 16.7889 377.777 16.756C377.679 16.7231 377.574 16.7126 377.471 16.7253H301.259C301.069 16.7253 300.689 16.7253 300.689 16.9153C300.565 17.0793 300.498 17.2796 300.499 17.4853V23.9473C300.499 23.9473 300.499 25.4673 299.169 25.4673C297.839 25.4673 297.839 23.9473 297.839 23.9473V17.4853C297.834 16.8938 297.964 16.3089 298.219 15.7753C298.508 15.2285 298.949 14.7766 299.488 14.4734C300.027 14.1702 300.642 14.0285 301.26 14.0653H377.281C377.736 14.0473 378.19 14.1222 378.614 14.2856C379.039 14.4489 379.426 14.6972 379.752 15.0153C380.348 15.7026 380.684 16.5769 380.702 17.4863V23.7583C380.892 23.9483 380.892 25.6583 379.562 25.6583" fill="white"/>
<path d="M379.561 25.6573C378.231 25.6573 378.231 24.1373 378.231 24.1373V17.4853C378.231 17.2953 378.231 16.9153 378.041 16.9153C377.966 16.8433 377.876 16.7889 377.777 16.756C377.679 16.7231 377.574 16.7126 377.471 16.7253H301.259C301.069 16.7253 300.689 16.7253 300.689 16.9153C300.565 17.0793 300.498 17.2796 300.499 17.4853V23.9473C300.499 23.9473 300.499 25.4673 299.169 25.4673C297.839 25.4673 297.839 23.9473 297.839 23.9473V17.4853C297.834 16.8938 297.964 16.3089 298.219 15.7753C298.508 15.2285 298.949 14.7766 299.488 14.4734C300.027 14.1702 300.642 14.0285 301.26 14.0653H377.281C377.736 14.0473 378.19 14.1222 378.614 14.2856C379.039 14.4489 379.426 14.6972 379.752 15.0153C380.348 15.7026 380.684 16.5769 380.702 17.4863V23.7583C380.891 23.9473 380.891 25.6573 379.561 25.6573Z" stroke="#BCBEC0" stroke-width="0.283" stroke-miterlimit="10"/>
<path d="M298.978 23.9459V17.4849C298.972 17.2091 299.022 16.9349 299.125 16.6788C299.228 16.4227 299.381 16.1901 299.576 15.9948C299.771 15.7995 300.003 15.6456 300.259 15.5423C300.515 15.4391 300.789 15.3886 301.065 15.3939H377.276C377.558 15.3647 377.842 15.3988 378.109 15.4936C378.376 15.5883 378.619 15.7414 378.819 15.9418C379.019 16.1421 379.173 16.3845 379.267 16.6515C379.362 16.9184 379.396 17.2031 379.367 17.4849V23.9469" stroke="#BCBEC0" stroke-width="0.283" stroke-miterlimit="10" stroke-linecap="round"/>
<path d="M175.504 14.0645H128.44C128.054 14.0645 127.74 14.3779 127.74 14.7645V37.1215C127.74 37.5081 128.054 37.8215 128.44 37.8215H175.504C175.891 37.8215 176.204 37.5081 176.204 37.1215V14.7645C176.204 14.3779 175.891 14.0645 175.504 14.0645Z" fill="white"/>
<path d="M175.504 14.0645H128.44C128.054 14.0645 127.74 14.3779 127.74 14.7645V37.1215C127.74 37.5081 128.054 37.8215 128.44 37.8215H175.504C175.891 37.8215 176.204 37.5081 176.204 37.1215V14.7645C176.204 14.3779 175.891 14.0645 175.504 14.0645Z" stroke="#BCBEC0" stroke-width="0.283" stroke-linecap="round" stroke-linejoin="round"/>
<path d="M169.363 26.4179C169.363 21.4769 161.571 17.2949 151.878 17.2949C142.185 17.2949 134.393 21.2859 134.393 26.4179C134.393 31.5499 142.185 35.5409 151.878 35.5409C161.571 35.5409 169.363 31.5499 169.363 26.4179Z" fill="white"/>
<path d="M169.363 26.4179C169.363 21.4769 161.571 17.2949 151.878 17.2949C142.185 17.2949 134.393 21.2859 134.393 26.4179C134.393 31.5499 142.185 35.5409 151.878 35.5409C161.571 35.5409 169.363 31.5499 169.363 26.4179Z" stroke="#BCBEC0" stroke-width="0.283" stroke-miterlimit="10"/>
<path d="M151.877 35.5409C161.533 35.5409 169.362 31.4564 169.362 26.4179C169.362 21.3794 161.533 17.2949 151.877 17.2949C142.22 17.2949 134.392 21.3794 134.392 26.4179C134.392 31.4564 142.22 35.5409 151.877 35.5409Z" stroke="#BCBEC0" stroke-width="0.283" stroke-linecap="round" stroke-linejoin="round"/>
<path d="M147.506 16.9141C147.51 16.7384 147.479 16.5636 147.413 16.4003C147.348 16.2371 147.25 16.0889 147.126 15.9645C147.002 15.8402 146.853 15.7424 146.69 15.677C146.527 15.6116 146.352 15.58 146.176 15.5841C145.801 15.5694 145.434 15.6991 145.151 15.9465C144.869 16.1938 144.692 16.5401 144.656 16.9141C144.659 17.1047 144.701 17.2926 144.781 17.4657C144.86 17.6388 144.976 17.7931 145.119 17.9186C145.263 18.0441 145.431 18.1379 145.613 18.194C145.795 18.2501 145.987 18.2672 146.176 18.2441C146.746 18.4341 147.506 17.6741 147.506 16.9141Z" fill="white"/>
<path d="M147.506 16.9141C147.51 16.7384 147.479 16.5636 147.413 16.4003C147.348 16.2371 147.25 16.0889 147.126 15.9645C147.002 15.8402 146.853 15.7424 146.69 15.677C146.527 15.6116 146.352 15.58 146.176 15.5841C145.801 15.5694 145.434 15.6991 145.151 15.9465C144.869 16.1938 144.692 16.5401 144.656 16.9141C144.659 17.1047 144.701 17.2926 144.781 17.4657C144.86 17.6388 144.976 17.7931 145.119 17.9186C145.263 18.0441 145.431 18.1379 145.613 18.194C145.795 18.2501 145.987 18.2672 146.176 18.2441C146.746 18.4341 147.506 17.6741 147.506 16.9141Z" stroke="#BCBEC0" stroke-width="0.283" stroke-miterlimit="10"/>
<path d="M147.506 16.9141C147.51 16.7384 147.479 16.5636 147.413 16.4003C147.348 16.2371 147.25 16.0889 147.126 15.9645C147.002 15.8402 146.853 15.7424 146.69 15.677C146.527 15.6116 146.352 15.58 146.176 15.5841C145.801 15.5694 145.434 15.6991 145.151 15.9465C144.869 16.1938 144.692 16.5401 144.656 16.9141C144.659 17.1047 144.701 17.2926 144.781 17.4657C144.86 17.6388 144.976 17.7931 145.119 17.9186C145.263 18.0441 145.431 18.1379 145.613 18.194C145.795 18.2501 145.987 18.2672 146.176 18.2441C146.742 18.4351 147.506 17.6751 147.506 16.9141Z" stroke="#BCBEC0" stroke-width="0.283" stroke-linecap="round" stroke-linejoin="round"/>
<path d="M159.289 16.9141C159.294 16.7384 159.262 16.5636 159.197 16.4003C159.131 16.2371 159.033 16.0889 158.909 15.9645C158.785 15.8402 158.636 15.7424 158.473 15.677C158.31 15.6116 158.135 15.58 157.959 15.5841C157.584 15.5694 157.217 15.6991 156.935 15.9465C156.652 16.1938 156.475 16.5401 156.439 16.9141C156.442 17.1047 156.484 17.2926 156.564 17.4657C156.644 17.6388 156.759 17.7931 156.902 17.9186C157.046 18.0441 157.214 18.1379 157.396 18.194C157.578 18.2501 157.77 18.2672 157.959 18.2441C158.719 18.4341 159.289 17.6741 159.289 16.9141Z" fill="white"/>
<path d="M159.289 16.9141C159.294 16.7384 159.262 16.5636 159.197 16.4003C159.131 16.2371 159.033 16.0889 158.909 15.9645C158.785 15.8402 158.636 15.7424 158.473 15.677C158.31 15.6116 158.135 15.58 157.959 15.5841C157.584 15.5694 157.217 15.6991 156.935 15.9465C156.652 16.1938 156.475 16.5401 156.439 16.9141C156.442 17.1047 156.484 17.2926 156.564 17.4657C156.644 17.6388 156.759 17.7931 156.902 17.9186C157.046 18.0441 157.214 18.1379 157.396 18.194C157.578 18.2501 157.77 18.2672 157.959 18.2441C158.719 18.4341 159.289 17.6741 159.289 16.9141Z" stroke="#BCBEC0" stroke-width="0.283" stroke-miterlimit="10"/>
<path d="M159.289 16.9141C159.294 16.7384 159.262 16.5636 159.197 16.4003C159.131 16.2371 159.033 16.0889 158.909 15.9645C158.785 15.8402 158.636 15.7424 158.473 15.677C158.31 15.6116 158.135 15.58 157.959 15.5841C157.584 15.5694 157.217 15.6991 156.935 15.9465C156.652 16.1938 156.475 16.5401 156.439 16.9141C156.442 17.1047 156.484 17.2926 156.564 17.4657C156.644 17.6388 156.759 17.7931 156.902 17.9186C157.046 18.0441 157.214 18.1379 157.396 18.194C157.578 18.2501 157.77 18.2672 157.959 18.2441C158.719 18.4351 159.289 17.6751 159.289 16.9141Z" stroke="#BCBEC0" stroke-width="0.283" stroke-linecap="round" stroke-linejoin="round"/>
<path d="M152.638 21.4763C152.638 21.6779 152.558 21.8712 152.415 22.0137C152.273 22.1563 152.079 22.2363 151.878 22.2363C151.676 22.2363 151.483 22.1563 151.34 22.0137C151.198 21.8712 151.118 21.6779 151.118 21.4763L150.928 17.1053C150.928 16.8029 151.048 16.5128 151.262 16.2989C151.476 16.085 151.766 15.9648 152.068 15.9648C152.371 15.9648 152.661 16.085 152.875 16.2989C153.089 16.5128 153.209 16.8029 153.209 17.1053L152.638 21.4763Z" fill="white"/>
<path d="M152.638 21.4763C152.638 21.6779 152.558 21.8712 152.415 22.0137C152.273 22.1563 152.079 22.2363 151.878 22.2363C151.676 22.2363 151.483 22.1563 151.34 22.0137C151.198 21.8712 151.118 21.6779 151.118 21.4763L150.928 17.1053C150.928 16.8029 151.048 16.5128 151.262 16.2989C151.476 16.085 151.766 15.9648 152.068 15.9648C152.371 15.9648 152.661 16.085 152.875 16.2989C153.089 16.5128 153.209 16.8029 153.209 17.1053L152.638 21.4763Z" stroke="#BCBEC0" stroke-width="0.283" stroke-miterlimit="10"/>
<path d="M152.638 21.4763C152.638 21.6779 152.558 21.8712 152.415 22.0137C152.273 22.1563 152.079 22.2363 151.878 22.2363C151.676 22.2363 151.483 22.1563 151.34 22.0137C151.198 21.8712 151.118 21.6779 151.118 21.4763L150.928 17.1053C150.928 16.8029 151.048 16.5128 151.262 16.2989C151.476 16.085 151.766 15.9648 152.068 15.9648C152.371 15.9648 152.661 16.085 152.875 16.2989C153.089 16.5128 153.209 16.8029 153.209 17.1053L152.638 21.4763Z" stroke="#BCBEC0" stroke-width="0.283" stroke-linecap="round" stroke-linejoin="round"/>
<path d="M217.636 84.0029H183.236V107.95H217.636V84.0029Z" fill="white"/>
<path d="M217.636 84.0029H183.236V107.95H217.636V84.0029Z" stroke="#BCBEC0" stroke-width="0.283" stroke-linecap="round" stroke-linejoin="round"/>
<path d="M200.15 104.339C198.496 104.339 196.88 103.849 195.504 102.93C194.129 102.011 193.058 100.705 192.425 99.1772C191.792 97.6493 191.626 95.968 191.949 94.3459C192.271 92.7238 193.068 91.2339 194.237 90.0644C195.407 88.895 196.897 88.0986 198.519 87.7759C200.141 87.4533 201.822 87.6189 203.35 88.2518C204.878 88.8847 206.184 89.9564 207.103 91.3316C208.022 92.7067 208.512 94.3234 208.512 95.9772C208.493 98.1889 207.605 100.304 206.041 101.868C204.477 103.432 202.362 104.32 200.15 104.339Z" fill="white"/>
<path d="M200.149 104.338C204.767 104.338 208.511 100.594 208.511 95.9763C208.511 91.3581 204.767 87.6143 200.149 87.6143C195.531 87.6143 191.787 91.3581 191.787 95.9763C191.787 100.594 195.531 104.338 200.149 104.338Z" stroke="#BCBEC0" stroke-width="0.283" stroke-linecap="round" stroke-linejoin="round"/>
<path d="M200.15 104.339C204.521 104.339 206.992 100.918 206.992 96.5474C206.978 94.8884 206.313 93.3014 205.14 92.1283C203.966 90.9552 202.379 90.2898 200.72 90.2754C199.417 90.2988 198.174 90.8268 197.252 91.7484C196.331 92.67 195.803 93.9133 195.779 95.2164C195.767 95.7436 195.862 96.2678 196.057 96.7573C196.253 97.2469 196.547 97.6917 196.919 98.0647C197.292 98.4378 197.736 98.7314 198.226 98.9278C198.715 99.1242 199.239 99.2193 199.766 99.2074C200.192 99.2115 200.614 99.1308 201.008 98.9699C201.402 98.809 201.759 98.5711 202.06 98.2703C202.361 97.9694 202.599 97.6116 202.76 97.2177C202.921 96.8239 203.002 96.4018 202.997 95.9764C202.986 95.3247 202.722 94.7028 202.261 94.2419C201.8 93.781 201.178 93.5169 200.526 93.5054C199.973 93.5101 199.444 93.7319 199.053 94.123C198.662 94.5142 198.44 95.0433 198.435 95.5964C198.434 95.8213 198.477 96.0443 198.563 96.2523C198.648 96.4604 198.774 96.6494 198.933 96.8085C199.092 96.9676 199.281 97.0935 199.489 97.1789C199.698 97.2644 199.92 97.3077 200.145 97.3064C200.321 97.3105 200.496 97.2789 200.659 97.2135C200.822 97.1481 200.971 97.0503 201.095 96.926C201.219 96.8017 201.317 96.6534 201.383 96.4902C201.448 96.327 201.48 96.1522 201.475 95.9764C201.483 95.8497 201.463 95.723 201.418 95.6044C201.373 95.4859 201.303 95.3782 201.213 95.2885C201.124 95.1988 201.016 95.1291 200.897 95.0839C200.779 95.0387 200.652 95.0191 200.525 95.0264C200.328 95.0399 200.143 95.1244 200.003 95.2641C199.863 95.4038 199.779 95.5893 199.765 95.7864" stroke="#BCBEC0" stroke-width="0.283" stroke-linecap="round" stroke-linejoin="round"/>
<path d="M200.151 97.1169C200.376 97.1169 200.596 97.0501 200.784 96.9248C200.971 96.7995 201.117 96.6215 201.204 96.4132C201.29 96.2049 201.313 95.9756 201.269 95.7545C201.225 95.5334 201.116 95.3302 200.957 95.1708C200.797 95.0114 200.594 94.9028 200.373 94.8588C200.152 94.8148 199.923 94.8374 199.714 94.9237C199.506 95.01 199.328 95.1561 199.203 95.3436C199.077 95.531 199.011 95.7514 199.011 95.9769C199.005 96.1281 199.031 96.2789 199.086 96.4197C199.141 96.5606 199.225 96.6885 199.332 96.7955C199.439 96.9025 199.567 96.9863 199.708 97.0416C199.849 97.0969 199.999 97.1225 200.151 97.1169Z" fill="#4A1815"/>
<path d="M200.151 97.1169C200.376 97.1169 200.596 97.0501 200.784 96.9248C200.971 96.7995 201.117 96.6215 201.204 96.4132C201.29 96.2049 201.313 95.9756 201.269 95.7545C201.225 95.5334 201.116 95.3302 200.957 95.1708C200.797 95.0114 200.594 94.9028 200.373 94.8588C200.152 94.8148 199.923 94.8374 199.714 94.9237C199.506 95.01 199.328 95.1561 199.203 95.3436C199.077 95.531 199.011 95.7514 199.011 95.9769C199.005 96.1281 199.031 96.2789 199.086 96.4197C199.141 96.5606 199.225 96.6885 199.332 96.7955C199.439 96.9025 199.567 96.9863 199.708 97.0416C199.849 97.0969 199.999 97.1225 200.151 97.1169Z" stroke="#BCBEC0" stroke-width="0.283" stroke-miterlimit="10"/>
<path d="M203.191 48.6539C207.752 48.6539 207.752 45.2329 207.752 44.0929V16.1539C207.752 15.65 207.552 15.1667 207.196 14.8104C206.839 14.4541 206.356 14.2539 205.852 14.2539H187.227C186.723 14.2539 186.24 14.4541 185.884 14.8104C185.527 15.1667 185.327 15.65 185.327 16.1539V44.0919C185.327 45.0419 185.327 48.6529 189.888 48.6529L203.191 48.6539Z" fill="white"/>
<path d="M203.191 48.6539C207.752 48.6539 207.752 45.2329 207.752 44.0929V16.1539C207.752 15.65 207.552 15.1667 207.196 14.8104C206.839 14.4541 206.356 14.2539 205.852 14.2539H187.227C186.723 14.2539 186.24 14.4541 185.884 14.8104C185.527 15.1667 185.327 15.65 185.327 16.1539V44.0919C185.327 45.0419 185.327 48.6529 189.888 48.6529L203.191 48.6539Z" stroke="#BCBEC0" stroke-width="0.283" stroke-miterlimit="10"/>
<path d="M203.051 19.3848H190.217C189.72 19.3848 189.317 19.7877 189.317 20.2848V43.5718C189.317 44.0688 189.72 44.4718 190.217 44.4718H203.051C203.548 44.4718 203.951 44.0688 203.951 43.5718V20.2848C203.951 19.7877 203.548 19.3848 203.051 19.3848Z" fill="white"/>
<path d="M203.051 19.3848H190.217C189.72 19.3848 189.317 19.7877 189.317 20.2848V43.5718C189.317 44.0688 189.72 44.4718 190.217 44.4718H203.051C203.548 44.4718 203.951 44.0688 203.951 43.5718V20.2848C203.951 19.7877 203.548 19.3848 203.051 19.3848Z" stroke="#BCBEC0" stroke-width="0.283" stroke-miterlimit="10"/>
<path d="M193.689 19.3848C193.679 19.7654 193.746 20.1442 193.884 20.4988C194.023 20.8534 194.231 21.1766 194.497 21.4494C194.763 21.7221 195.08 21.9389 195.431 22.087C195.782 22.235 196.159 22.3113 196.539 22.3113C196.92 22.3113 197.297 22.235 197.648 22.087C197.999 21.9389 198.316 21.7221 198.582 21.4494C198.848 21.1766 199.056 20.8534 199.195 20.4988C199.333 20.1442 199.4 19.7654 199.389 19.3848" stroke="#BCBEC0" stroke-width="0.283" stroke-miterlimit="10"/>
<path d="M244.241 290.595C245.068 291.264 246.047 291.721 247.092 291.925C247.852 291.925 249.943 290.595 249.943 280.712C249.943 271.019 247.662 269.499 246.902 269.499C245.827 269.604 244.821 270.073 244.051 270.829" fill="white"/>
<path d="M244.241 290.595C245.068 291.264 246.047 291.721 247.092 291.925C247.852 291.925 249.943 290.595 249.943 280.712C249.943 271.019 247.662 269.499 246.902 269.499C245.827 269.604 244.821 270.073 244.051 270.829" stroke="#BCBEC0" stroke-width="0.283" stroke-miterlimit="10"/>
<path d="M226.949 269.685C226.773 269.681 226.598 269.713 226.435 269.778C226.272 269.843 226.123 269.941 225.999 270.065C225.875 270.19 225.777 270.338 225.711 270.501C225.646 270.664 225.614 270.839 225.619 271.015V290.595C225.614 290.771 225.646 290.946 225.711 291.109C225.777 291.272 225.875 291.42 225.999 291.545C226.123 291.669 226.272 291.767 226.435 291.832C226.598 291.898 226.773 291.929 226.949 291.925H242.723C243.483 291.925 245.574 290.595 245.574 280.712C245.574 271.019 243.293 269.499 242.723 269.499L226.949 269.685Z" fill="white"/>
<path d="M226.949 269.685C226.773 269.681 226.598 269.713 226.435 269.778C226.272 269.843 226.123 269.941 225.999 270.065C225.875 270.19 225.777 270.338 225.711 270.501C225.646 270.664 225.614 270.839 225.619 271.015V290.595C225.614 290.771 225.646 290.946 225.711 291.109C225.777 291.272 225.875 291.42 225.999 291.545C226.123 291.669 226.272 291.767 226.435 291.832C226.598 291.898 226.773 291.929 226.949 291.925H242.723C243.483 291.925 245.574 290.595 245.574 280.712C245.574 271.019 243.293 269.499 242.723 269.499L226.949 269.685Z" stroke="#BCBEC0" stroke-width="0.283" stroke-miterlimit="10"/>
<path d="M224.477 254.86C225.146 254.032 225.603 253.054 225.807 252.009C225.807 251.249 224.477 249.158 214.594 249.158C204.901 249.158 203.381 251.439 203.381 252.199C203.486 253.274 203.955 254.28 204.711 255.05" fill="white"/>
<path d="M224.477 254.86C225.146 254.032 225.603 253.054 225.807 252.009C225.807 251.249 224.477 249.158 214.594 249.158C204.901 249.158 203.381 251.439 203.381 252.199C203.486 253.274 203.955 254.28 204.711 255.05" stroke="#BCBEC0" stroke-width="0.283" stroke-miterlimit="10"/>
<path d="M203.568 272.156C203.564 272.332 203.595 272.506 203.661 272.67C203.726 272.833 203.824 272.981 203.948 273.105C204.073 273.23 204.221 273.328 204.384 273.393C204.547 273.458 204.722 273.49 204.898 273.486H224.473C224.649 273.49 224.824 273.458 224.987 273.393C225.15 273.328 225.298 273.23 225.423 273.105C225.547 272.981 225.645 272.833 225.71 272.67C225.775 272.506 225.807 272.332 225.803 272.156V256.382C225.803 255.622 224.473 253.531 214.59 253.341C204.897 253.341 203.377 255.622 203.377 256.192L203.568 272.156Z" fill="white"/>
<path d="M203.568 272.156C203.564 272.332 203.595 272.506 203.661 272.67C203.726 272.833 203.824 272.981 203.948 273.105C204.073 273.23 204.221 273.328 204.384 273.393C204.547 273.458 204.722 273.49 204.898 273.486H224.473C224.649 273.49 224.824 273.458 224.987 273.393C225.15 273.328 225.298 273.23 225.423 273.105C225.547 272.981 225.645 272.833 225.71 272.67C225.775 272.506 225.807 272.332 225.803 272.156V256.382C225.803 255.622 224.473 253.531 214.59 253.341C204.897 253.341 203.377 255.622 203.377 256.192L203.568 272.156Z" stroke="#BCBEC0" stroke-width="0.283" stroke-miterlimit="10"/>
<path d="M244.241 318.153C245.068 318.822 246.047 319.278 247.092 319.483C247.852 319.483 249.943 318.153 249.943 308.27C249.943 298.577 247.662 297.057 246.902 297.057C245.827 297.161 244.821 297.631 244.051 298.387" fill="white"/>
<path d="M244.241 318.153C245.068 318.822 246.047 319.278 247.092 319.483C247.852 319.483 249.943 318.153 249.943 308.27C249.943 298.577 247.662 297.057 246.902 297.057C245.827 297.161 244.821 297.631 244.051 298.387" stroke="#BCBEC0" stroke-width="0.283" stroke-miterlimit="10"/>
<path d="M226.949 297.243C226.773 297.239 226.598 297.27 226.435 297.336C226.272 297.401 226.123 297.499 225.999 297.623C225.875 297.747 225.777 297.896 225.711 298.059C225.646 298.222 225.614 298.397 225.619 298.573V318.153C225.614 318.328 225.646 318.503 225.711 318.666C225.777 318.83 225.875 318.978 225.999 319.102C226.123 319.227 226.272 319.324 226.435 319.39C226.598 319.455 226.773 319.487 226.949 319.483H242.723C243.483 319.483 245.574 318.153 245.574 308.27C245.574 298.577 243.293 297.057 242.723 297.057L226.949 297.243Z" fill="white"/>
<path d="M226.949 297.243C226.773 297.239 226.598 297.27 226.435 297.336C226.272 297.401 226.123 297.499 225.999 297.623C225.875 297.747 225.777 297.896 225.711 298.059C225.646 298.222 225.614 298.397 225.619 298.573V318.153C225.614 318.328 225.646 318.503 225.711 318.666C225.777 318.83 225.875 318.978 225.999 319.102C226.123 319.227 226.272 319.324 226.435 319.39C226.598 319.455 226.773 319.487 226.949 319.483H242.723C243.483 319.483 245.574 318.153 245.574 308.27C245.574 298.577 243.293 297.057 242.723 297.057L226.949 297.243Z" stroke="#BCBEC0" stroke-width="0.283" stroke-miterlimit="10"/>
<path d="M186.088 290.595C185.26 291.264 184.281 291.721 183.237 291.925C182.477 291.925 180.386 290.595 180.386 280.712C180.386 271.019 182.667 269.499 183.427 269.499C184.501 269.604 185.507 270.073 186.278 270.829" fill="white"/>
<path d="M186.088 290.595C185.26 291.264 184.281 291.721 183.237 291.925C182.477 291.925 180.386 290.595 180.386 280.712C180.386 271.019 182.667 269.499 183.427 269.499C184.501 269.604 185.507 270.073 186.278 270.829" stroke="#BCBEC0" stroke-width="0.283" stroke-miterlimit="10"/>
<path d="M203.381 269.685C203.557 269.681 203.731 269.713 203.895 269.778C204.058 269.843 204.206 269.941 204.33 270.065C204.455 270.19 204.553 270.338 204.618 270.501C204.683 270.664 204.715 270.839 204.711 271.015V290.595C204.715 290.771 204.683 290.946 204.618 291.109C204.553 291.272 204.455 291.42 204.33 291.545C204.206 291.669 204.058 291.767 203.895 291.832C203.731 291.898 203.557 291.929 203.381 291.925H187.607C186.847 291.925 184.756 290.595 184.756 280.712C184.756 271.019 187.037 269.499 187.607 269.499L203.381 269.685Z" fill="white"/>
<path d="M203.381 269.685C203.557 269.681 203.731 269.713 203.895 269.778C204.058 269.843 204.206 269.941 204.33 270.065C204.455 270.19 204.553 270.338 204.618 270.501C204.683 270.664 204.715 270.839 204.711 271.015V290.595C204.715 290.771 204.683 290.946 204.618 291.109C204.553 291.272 204.455 291.42 204.33 291.545C204.206 291.669 204.058 291.767 203.895 291.832C203.731 291.898 203.557 291.929 203.381 291.925H187.607C186.847 291.925 184.756 290.595 184.756 280.712C184.756 271.019 187.037 269.499 187.607 269.499L203.381 269.685Z" stroke="#BCBEC0" stroke-width="0.283" stroke-miterlimit="10"/>
<path d="M186.088 318.153C185.26 318.822 184.281 319.278 183.237 319.483C182.477 319.483 180.386 318.153 180.386 308.27C180.386 298.577 182.667 297.057 183.427 297.057C184.501 297.161 185.507 297.631 186.278 298.387" fill="white"/>
<path d="M186.088 318.153C185.26 318.822 184.281 319.278 183.237 319.483C182.477 319.483 180.386 318.153 180.386 308.27C180.386 298.577 182.667 297.057 183.427 297.057C184.501 297.161 185.507 297.631 186.278 298.387" stroke="#BCBEC0" stroke-width="0.283" stroke-miterlimit="10"/>
<path d="M203.381 297.243C203.557 297.239 203.731 297.27 203.895 297.336C204.058 297.401 204.206 297.499 204.33 297.623C204.455 297.747 204.553 297.896 204.618 298.059C204.683 298.222 204.715 298.397 204.711 298.573V318.153C204.715 318.328 204.683 318.503 204.618 318.666C204.553 318.83 204.455 318.978 204.33 319.102C204.206 319.227 204.058 319.324 203.895 319.39C203.731 319.455 203.557 319.487 203.381 319.483H187.607C186.847 319.483 184.756 318.153 184.756 308.27C184.756 298.577 187.037 297.057 187.607 297.057L203.381 297.243Z" fill="white"/>
<path d="M203.381 297.243C203.557 297.239 203.731 297.27 203.895 297.336C204.058 297.401 204.206 297.499 204.33 297.623C204.455 297.747 204.553 297.896 204.618 298.059C204.683 298.222 204.715 298.397 204.711 298.573V318.153C204.715 318.328 204.683 318.503 204.618 318.666C204.553 318.83 204.455 318.978 204.33 319.102C204.206 319.227 204.058 319.324 203.895 319.39C203.731 319.455 203.557 319.487 203.381 319.483H187.607C186.847 319.483 184.756 318.153 184.756 308.27C184.756 298.577 187.037 297.057 187.607 297.057L203.381 297.243Z" stroke="#BCBEC0" stroke-width="0.283" stroke-miterlimit="10"/>
<path d="M236.071 262.843H193.499V326.321H236.071V262.843Z" fill="white"/>
<path d="M236.071 262.843H193.499V326.321H236.071V262.843Z" stroke="#BCBEC0" stroke-width="0.283" stroke-miterlimit="10"/>
<path d="M145.795 199.936H90.8701V233.005H145.795V199.936Z" fill="white"/>
<path d="M145.795 199.936H90.8701V233.005H145.795V199.936Z" stroke="#BCBEC0" stroke-width="0.283" stroke-miterlimit="10"/>
<path d="M123.749 285.65H90.4902V318.909H123.749V285.65Z" fill="white"/>
<path d="M123.749 285.65H90.4902V318.909H123.749V285.65Z" stroke="#BCBEC0" stroke-width="0.283" stroke-miterlimit="10"/>
<path d="M123.749 285.65H90.4902V318.909H123.749V285.65Z" stroke="#BCBEC0" stroke-width="0.283" stroke-miterlimit="10"/>
<path d="M119.298 288.5H94.9398C94.0562 288.5 93.3398 289.216 93.3398 290.1V314.458C93.3398 315.342 94.0562 316.058 94.9398 316.058H119.298C120.181 316.058 120.898 315.342 120.898 314.458V290.1C120.898 289.216 120.181 288.5 119.298 288.5Z" fill="white"/>
<path d="M119.298 288.5H94.9398C94.0562 288.5 93.3398 289.216 93.3398 290.1V314.458C93.3398 315.342 94.0562 316.058 94.9398 316.058H119.298C120.181 316.058 120.898 315.342 120.898 314.458V290.1C120.898 289.216 120.181 288.5 119.298 288.5Z" stroke="#BCBEC0" stroke-width="0.283" stroke-miterlimit="10"/>
<path d="M119.298 288.5H94.9398C94.0562 288.5 93.3398 289.216 93.3398 290.1V314.458C93.3398 315.342 94.0562 316.058 94.9398 316.058H119.298C120.181 316.058 120.898 315.342 120.898 314.458V290.1C120.898 289.216 120.181 288.5 119.298 288.5Z" stroke="#BCBEC0" stroke-width="0.283" stroke-miterlimit="10"/>
<path d="M99.422 292.682C99.422 293.02 99.3217 293.351 99.1338 293.632C98.9459 293.913 98.6788 294.132 98.3663 294.262C98.0539 294.391 97.7101 294.425 97.3784 294.359C97.0466 294.293 96.7419 294.13 96.5028 293.891C96.2637 293.652 96.1008 293.347 96.0348 293.015C95.9688 292.684 96.0027 292.34 96.1321 292.027C96.2615 291.715 96.4807 291.448 96.7619 291.26C97.0431 291.072 97.3737 290.972 97.712 290.972C98.472 290.782 99.422 291.732 99.422 292.682Z" stroke="#BCBEC0" stroke-width="0.283" stroke-miterlimit="10"/>
<path d="M102.464 300.854H92.3906V303.515H102.464V300.854Z" fill="white"/>
<path d="M102.464 300.854H92.3906V303.515H102.464V300.854Z" stroke="#BCBEC0" stroke-width="0.283" stroke-miterlimit="10"/>
<path d="M123.749 233.005H90.8701V285.65H123.749V233.005Z" fill="white"/>
<path d="M123.749 233.005H90.8701V285.65H123.749V233.005Z" stroke="#BCBEC0" stroke-width="0.283" stroke-miterlimit="10"/>
<path d="M123.749 318.719H90.8701V326.511H123.749V318.719Z" fill="white"/>
<path d="M123.749 318.719H90.8701V326.511H123.749V318.719Z" stroke="#BCBEC0" stroke-width="0.283" stroke-miterlimit="10"/>
<path d="M113.676 236.236C114.654 236.236 115.609 236.526 116.421 237.069C117.234 237.612 117.867 238.384 118.241 239.286C118.615 240.189 118.713 241.183 118.522 242.141C118.332 243.1 117.861 243.98 117.17 244.671C116.479 245.362 115.599 245.833 114.64 246.023C113.682 246.214 112.688 246.116 111.786 245.742C110.883 245.368 110.111 244.735 109.568 243.922C109.025 243.11 108.735 242.155 108.735 241.177C108.735 239.867 109.256 238.61 110.183 237.684C111.109 236.757 112.366 236.236 113.676 236.236Z" fill="white"/>
<path d="M113.675 246.118C116.404 246.118 118.616 243.906 118.616 241.177C118.616 238.448 116.404 236.236 113.675 236.236C110.947 236.236 108.734 238.448 108.734 241.177C108.734 243.906 110.947 246.118 113.675 246.118Z" stroke="#BCBEC0" stroke-width="0.283" stroke-miterlimit="10"/>
<path d="M100.562 246.119C99.5849 246.119 98.6296 245.83 97.817 245.287C97.0045 244.744 96.3712 243.972 95.9972 243.069C95.6232 242.166 95.5254 241.173 95.716 240.214C95.9067 239.256 96.3773 238.376 97.0683 237.684C97.7593 236.993 98.6397 236.523 99.5982 236.332C100.557 236.142 101.55 236.239 102.453 236.613C103.356 236.987 104.127 237.621 104.67 238.433C105.213 239.246 105.503 240.201 105.503 241.178C105.508 241.828 105.383 242.473 105.136 243.074C104.889 243.676 104.526 244.222 104.066 244.682C103.606 245.142 103.06 245.506 102.458 245.752C101.857 245.999 101.212 246.124 100.562 246.119Z" fill="white"/>
<path d="M100.562 246.118C103.291 246.118 105.503 243.906 105.503 241.177C105.503 238.448 103.291 236.236 100.562 236.236C97.8333 236.236 95.6211 238.448 95.6211 241.177C95.6211 243.906 97.8333 246.118 100.562 246.118Z" stroke="#BCBEC0" stroke-width="0.283" stroke-miterlimit="10"/>
<path d="M113.676 249.92C114.654 249.92 115.609 250.21 116.421 250.753C117.234 251.296 117.867 252.067 118.241 252.97C118.615 253.873 118.713 254.866 118.522 255.825C118.332 256.783 117.861 257.664 117.17 258.355C116.479 259.046 115.599 259.516 114.64 259.707C113.682 259.898 112.688 259.8 111.786 259.426C110.883 259.052 110.111 258.419 109.568 257.606C109.025 256.793 108.735 255.838 108.735 254.861C108.735 253.55 109.256 252.294 110.183 251.367C111.109 250.44 112.366 249.92 113.676 249.92Z" fill="white"/>
<path d="M113.675 259.802C116.404 259.802 118.616 257.59 118.616 254.861C118.616 252.132 116.404 249.92 113.675 249.92C110.947 249.92 108.734 252.132 108.734 254.861C108.734 257.59 110.947 259.802 113.675 259.802Z" stroke="#BCBEC0" stroke-width="0.283" stroke-miterlimit="10"/>
<path d="M100.562 259.803C99.5849 259.803 98.6296 259.513 97.817 258.97C97.0045 258.427 96.3712 257.656 95.9972 256.753C95.6232 255.85 95.5254 254.856 95.716 253.898C95.9067 252.939 96.3773 252.059 97.0683 251.368C97.7593 250.677 98.6397 250.206 99.5982 250.016C100.557 249.825 101.55 249.923 102.453 250.297C103.356 250.671 104.127 251.304 104.67 252.117C105.213 252.929 105.503 253.885 105.503 254.862C105.508 255.512 105.383 256.157 105.136 256.758C104.889 257.36 104.526 257.906 104.066 258.366C103.606 258.826 103.06 259.189 102.458 259.436C101.857 259.683 101.212 259.807 100.562 259.803Z" fill="white"/>
<path d="M100.562 259.802C103.291 259.802 105.503 257.59 105.503 254.861C105.503 252.132 103.291 249.92 100.562 249.92C97.8333 249.92 95.6211 252.132 95.6211 254.861C95.6211 257.59 97.8333 259.802 100.562 259.802Z" stroke="#BCBEC0" stroke-width="0.283" stroke-miterlimit="10"/>
<path d="M123.749 263.413H91.0596" stroke="#BCBEC0" stroke-width="0.283" stroke-miterlimit="10"/>
<path d="M179.054 199.936H145.795V233.195H179.054V199.936Z" fill="white"/>
<path d="M179.054 199.936H145.795V233.195H179.054V199.936Z" stroke="#BCBEC0" stroke-width="0.283" stroke-miterlimit="10"/>
<path d="M165.18 218.37L159.859 213.239" stroke="#BCBEC0" stroke-width="0.283" stroke-miterlimit="10" stroke-linecap="round"/>
<path d="M165.18 213.239L159.859 218.37" stroke="#BCBEC0" stroke-width="0.283" stroke-miterlimit="10" stroke-linecap="round"/>
<path d="M162.52 209.628V221.981" stroke="#BCBEC0" stroke-width="0.283" stroke-miterlimit="10" stroke-linecap="round"/>
<path d="M156.438 215.9H168.601" stroke="#BCBEC0" stroke-width="0.283" stroke-miterlimit="10" stroke-linecap="round"/>
<path d="M153.357 68.4087H151.587V70.6967H150.297V68.4087H145.122V67.4777L149.885 61.3857H151.322L146.763 67.2647H150.342V65.2427H151.593V67.2647H153.362L153.357 68.4087Z" fill="black"/>
<path d="M155.932 69.2126C156.013 69.2986 156.076 69.3997 156.118 69.5102C156.16 69.6207 156.18 69.7384 156.177 69.8566C156.178 69.9867 156.162 70.1164 156.131 70.2426C156.101 70.3666 156.04 70.5576 155.952 70.8166L155.327 72.6636H154.489L154.981 70.6816C154.815 70.6241 154.671 70.5156 154.571 70.3716C154.467 70.2217 154.414 70.0427 154.419 69.8606C154.414 69.7404 154.434 69.6205 154.478 69.5084C154.521 69.3963 154.587 69.2942 154.672 69.2086C154.755 69.1247 154.855 69.0589 154.965 69.0154C155.075 68.9719 155.192 68.9515 155.311 68.9556C155.426 68.9528 155.541 68.9745 155.648 69.0193C155.754 69.0641 155.85 69.131 155.929 69.2156" fill="black"/>
<path d="M160.155 61.3857V70.6987H158.837V62.5417H156.737V61.3857H160.155Z" fill="black"/>
<path d="M164.034 70.2356C163.436 69.8272 162.968 69.256 162.685 68.5896C162.028 66.9505 162.028 65.1217 162.685 63.4826C162.968 62.8174 163.436 62.2474 164.034 61.8406C164.619 61.4707 165.297 61.2744 165.989 61.2744C166.681 61.2744 167.359 61.4707 167.945 61.8406C168.542 62.2479 169.011 62.8176 169.296 63.4826C169.952 65.1217 169.952 66.9505 169.296 68.5896C169.011 69.2558 168.543 69.8269 167.945 70.2356C167.359 70.6031 166.681 70.798 165.989 70.798C165.297 70.798 164.62 70.6031 164.034 70.2356ZM167.786 68.6976C168.284 67.9034 168.52 66.9723 168.459 66.0366C168.52 65.1009 168.285 64.1696 167.786 63.3756C167.58 63.0914 167.31 62.86 166.998 62.7005C166.686 62.5409 166.34 62.4577 165.99 62.4577C165.639 62.4577 165.293 62.5409 164.981 62.7005C164.669 62.86 164.399 63.0914 164.194 63.3756C163.696 64.1702 163.461 65.1012 163.523 66.0366C163.462 66.972 163.697 67.9028 164.194 68.6976C164.399 68.9812 164.669 69.2121 164.982 69.3712C165.294 69.5304 165.639 69.6134 165.99 69.6134C166.34 69.6134 166.685 69.5304 166.998 69.3712C167.31 69.2121 167.58 68.9812 167.786 68.6976Z" fill="black"/>
<path d="M115.795 155.309H114.026V157.597H112.736V155.309H107.56V154.378L112.323 148.285H113.76L109.197 154.162H112.776V152.143H114.026V154.162H115.795V155.309Z" fill="black"/>
<path d="M118.371 156.115C118.452 156.201 118.516 156.302 118.558 156.413C118.6 156.523 118.619 156.641 118.616 156.759C118.617 156.889 118.602 157.019 118.57 157.145C118.54 157.269 118.479 157.46 118.391 157.719L117.766 159.566H116.928L117.42 157.584C117.255 157.525 117.112 157.415 117.013 157.27C116.909 157.12 116.856 156.941 116.861 156.759C116.856 156.639 116.877 156.519 116.92 156.407C116.964 156.295 117.03 156.193 117.114 156.107C117.197 156.023 117.297 155.957 117.407 155.914C117.517 155.87 117.635 155.85 117.753 155.854C117.869 155.851 117.983 155.873 118.09 155.918C118.196 155.963 118.292 156.03 118.371 156.115Z" fill="black"/>
<path d="M125.472 152.747C125.779 152.992 126.024 153.306 126.188 153.663C126.351 154.02 126.427 154.411 126.411 154.803C126.418 155.324 126.282 155.837 126.018 156.285C125.736 156.742 125.324 157.104 124.834 157.323C124.221 157.593 123.555 157.722 122.886 157.701C122.24 157.704 121.599 157.602 120.986 157.401C120.428 157.232 119.911 156.949 119.469 156.57L120.081 155.519C120.435 155.842 120.852 156.088 121.305 156.243C121.808 156.426 122.339 156.519 122.875 156.515C123.452 156.551 124.025 156.394 124.504 156.07C124.692 155.929 124.843 155.745 124.944 155.533C125.045 155.321 125.093 155.087 125.084 154.852C125.097 154.603 125.045 154.355 124.933 154.133C124.821 153.91 124.652 153.72 124.445 153.582C123.771 153.239 123.016 153.09 122.263 153.151H120.145L120.637 148.28H125.892V149.439H121.754L121.501 151.991H122.539C123.573 151.909 124.605 152.174 125.472 152.744" fill="black"/>
<path d="M129.356 157.14C128.758 156.732 128.29 156.16 128.007 155.494C127.351 153.855 127.351 152.026 128.007 150.387C128.29 149.722 128.758 149.152 129.356 148.745C129.941 148.375 130.619 148.179 131.311 148.179C132.004 148.179 132.682 148.375 133.267 148.745C133.865 149.152 134.335 149.722 134.62 150.387C135.276 152.026 135.276 153.855 134.62 155.494C134.336 156.16 133.867 156.731 133.269 157.14C132.683 157.507 132.005 157.702 131.313 157.702C130.622 157.702 129.944 157.507 129.358 157.14M133.11 155.602C133.551 154.785 133.782 153.87 133.782 152.941C133.782 152.013 133.551 151.098 133.11 150.281C132.905 149.997 132.635 149.765 132.322 149.606C132.01 149.446 131.665 149.363 131.314 149.363C130.963 149.363 130.618 149.446 130.305 149.606C129.993 149.765 129.723 149.997 129.518 150.281C129.078 151.099 128.847 152.013 128.847 152.941C128.847 153.87 129.078 154.784 129.518 155.602C129.724 155.886 129.994 156.116 130.306 156.276C130.618 156.435 130.963 156.518 131.314 156.518C131.664 156.518 132.01 156.435 132.322 156.276C132.634 156.116 132.904 155.886 133.11 155.602Z" fill="black"/>
<path d="M143.756 259.915C143.994 260.152 144.181 260.436 144.304 260.748C144.428 261.06 144.486 261.395 144.474 261.73C144.48 262.24 144.341 262.74 144.074 263.174C143.785 263.624 143.372 263.98 142.884 264.198C142.275 264.467 141.613 264.596 140.947 264.576C140.297 264.578 139.65 264.477 139.031 264.276C138.478 264.109 137.966 263.825 137.531 263.444L138.143 262.395C138.498 262.717 138.914 262.964 139.367 263.119C139.875 263.302 140.411 263.394 140.95 263.391C141.522 263.426 142.09 263.272 142.567 262.954C142.755 262.815 142.905 262.631 143.006 262.42C143.107 262.209 143.155 261.977 143.145 261.743C143.157 261.512 143.111 261.281 143.011 261.071C142.911 260.862 142.761 260.68 142.573 260.543C142.056 260.224 141.451 260.075 140.844 260.117H140.099V259.186L142.44 256.312H137.956V255.155H144.102V256.062L141.666 259.071C142.44 259.101 143.179 259.4 143.756 259.915Z" fill="black"/>
<path d="M147.222 262.988C147.303 263.074 147.366 263.175 147.408 263.286C147.45 263.396 147.47 263.514 147.467 263.632C147.468 263.762 147.452 263.892 147.421 264.018C147.391 264.142 147.33 264.334 147.242 264.592L146.617 266.439H145.779L146.271 264.457C146.105 264.398 145.963 264.288 145.864 264.143C145.76 263.993 145.707 263.814 145.712 263.632C145.707 263.512 145.727 263.392 145.771 263.28C145.814 263.168 145.88 263.066 145.965 262.98C146.048 262.896 146.148 262.83 146.258 262.787C146.368 262.743 146.485 262.723 146.604 262.727C146.719 262.724 146.834 262.746 146.94 262.791C147.047 262.836 147.143 262.902 147.222 262.987" fill="black"/>
<path d="M155.781 260.466C156.071 260.864 156.22 261.346 156.207 261.838C156.219 262.36 156.061 262.872 155.755 263.296C155.424 263.729 154.977 264.058 154.465 264.246C153.836 264.48 153.168 264.592 152.496 264.577C151.832 264.592 151.171 264.479 150.548 264.246C150.039 264.057 149.593 263.728 149.263 263.296C148.958 262.872 148.799 262.36 148.811 261.838C148.798 261.347 148.945 260.866 149.229 260.466C149.542 260.062 149.965 259.757 150.447 259.588C150.055 259.412 149.719 259.132 149.476 258.778C149.249 258.42 149.133 258.002 149.143 257.578C149.133 257.096 149.281 256.624 149.563 256.234C149.865 255.836 150.272 255.532 150.739 255.356C151.299 255.141 151.896 255.037 152.495 255.05C153.102 255.037 153.705 255.141 154.272 255.356C154.742 255.53 155.153 255.835 155.456 256.234C155.738 256.624 155.885 257.096 155.874 257.578C155.883 258 155.765 258.415 155.536 258.77C155.291 259.126 154.952 259.408 154.557 259.585C155.041 259.755 155.466 260.059 155.781 260.463M154.238 263.038C154.441 262.901 154.606 262.716 154.717 262.498C154.829 262.281 154.884 262.039 154.877 261.795C154.884 261.554 154.828 261.316 154.716 261.103C154.605 260.889 154.44 260.708 154.238 260.577C153.716 260.254 153.108 260.099 152.495 260.132C151.887 260.097 151.283 260.253 150.766 260.577C150.568 260.711 150.407 260.893 150.297 261.106C150.188 261.319 150.134 261.556 150.141 261.795C150.134 262.038 150.187 262.278 150.296 262.496C150.405 262.713 150.567 262.899 150.766 263.038C151.279 263.372 151.885 263.533 152.495 263.498C153.11 263.531 153.72 263.37 154.238 263.038ZM151.005 256.532C150.831 256.656 150.69 256.822 150.595 257.013C150.5 257.205 150.454 257.418 150.46 257.632C150.453 257.844 150.499 258.054 150.593 258.244C150.687 258.435 150.827 258.598 151 258.721C151.444 259.013 151.97 259.153 152.5 259.121C153.037 259.152 153.57 259.012 154.022 258.721C154.199 258.6 154.342 258.438 154.438 258.247C154.535 258.057 154.582 257.845 154.575 257.632C154.581 257.416 154.533 257.202 154.434 257.01C154.336 256.817 154.19 256.653 154.011 256.532C153.562 256.244 153.033 256.104 152.5 256.132C151.974 256.101 151.451 256.242 151.01 256.532" fill="black"/>
<path d="M165.533 262.183H163.764V264.471H162.474V262.183H157.299V261.252L162.062 255.159H163.499L158.936 261.039H162.515V259.017H163.766V261.039H165.533V262.183Z" fill="black"/>
<path d="M314.167 260.323V269.636H312.85V261.481H310.75V260.324L314.167 260.323Z" fill="black"/>
<path d="M318.043 269.18C317.446 268.771 316.978 268.2 316.694 267.534C316.038 265.895 316.038 264.066 316.694 262.427C316.978 261.762 317.446 261.192 318.043 260.785C318.629 260.415 319.307 260.219 319.999 260.219C320.691 260.219 321.369 260.415 321.954 260.785C322.553 261.192 323.022 261.762 323.305 262.427C323.962 264.066 323.962 265.895 323.305 267.534C323.022 268.2 322.553 268.772 321.954 269.18C321.368 269.548 320.691 269.743 319.999 269.743C319.307 269.743 318.629 269.548 318.043 269.18ZM321.795 267.642C322.237 266.825 322.468 265.91 322.468 264.981C322.468 264.053 322.237 263.138 321.795 262.321C321.59 262.037 321.32 261.805 321.008 261.646C320.696 261.486 320.35 261.403 319.999 261.403C319.649 261.403 319.303 261.486 318.991 261.646C318.679 261.805 318.409 262.037 318.203 262.321C317.763 263.139 317.533 264.053 317.533 264.981C317.533 265.91 317.763 266.824 318.203 267.642C318.409 267.926 318.679 268.157 318.991 268.316C319.304 268.475 319.649 268.558 319.999 268.558C320.35 268.558 320.695 268.475 321.008 268.316C321.32 268.157 321.59 267.926 321.795 267.642Z" fill="black"/>
<path d="M326.426 268.153C326.508 268.239 326.571 268.34 326.613 268.451C326.655 268.561 326.675 268.679 326.671 268.797C326.672 268.927 326.656 269.057 326.623 269.183C326.594 269.307 326.534 269.498 326.446 269.757L325.821 271.604H324.981L325.473 269.622C325.311 269.562 325.171 269.452 325.073 269.308C324.969 269.158 324.915 268.979 324.919 268.797C324.915 268.677 324.936 268.557 324.98 268.445C325.023 268.333 325.09 268.231 325.174 268.145C325.258 268.061 325.358 267.995 325.468 267.952C325.578 267.908 325.695 267.888 325.813 267.892C325.929 267.889 326.044 267.911 326.15 267.956C326.257 268.001 326.353 268.068 326.431 268.152" fill="black"/>
<path d="M329.618 269.18C329.02 268.771 328.552 268.2 328.268 267.534C327.611 265.895 327.611 264.066 328.268 262.427C328.552 261.762 329.02 261.192 329.618 260.785C330.203 260.415 330.881 260.219 331.573 260.219C332.265 260.219 332.944 260.415 333.529 260.785C334.127 261.192 334.596 261.762 334.88 262.427C335.536 264.066 335.536 265.895 334.88 267.534C334.596 268.201 334.127 268.772 333.529 269.18C332.943 269.548 332.265 269.743 331.573 269.743C330.881 269.743 330.204 269.548 329.618 269.18ZM333.37 267.642C333.811 266.825 334.042 265.91 334.042 264.982C334.042 264.053 333.811 263.138 333.37 262.321C333.164 262.037 332.894 261.806 332.582 261.646C332.27 261.486 331.924 261.403 331.574 261.403C331.223 261.403 330.877 261.486 330.565 261.646C330.253 261.806 329.983 262.037 329.778 262.321C329.337 263.139 329.107 264.053 329.107 264.982C329.107 265.91 329.337 266.824 329.778 267.642C329.983 267.926 330.253 268.157 330.565 268.316C330.878 268.476 331.223 268.559 331.574 268.559C331.924 268.559 332.27 268.476 332.582 268.316C332.894 268.157 333.164 267.926 333.37 267.642Z" fill="black"/>
<path d="M342.308 264.33C342.781 264.544 343.18 264.893 343.455 265.333C343.731 265.773 343.871 266.284 343.857 266.803C343.869 267.349 343.72 267.887 343.426 268.348C343.135 268.794 342.725 269.151 342.242 269.378C341.717 269.627 341.142 269.752 340.56 269.743C340.018 269.775 339.475 269.683 338.974 269.473C338.472 269.263 338.025 268.941 337.667 268.532C336.93 267.546 336.569 266.33 336.648 265.102C336.621 264.186 336.811 263.276 337.201 262.447C337.536 261.75 338.073 261.17 338.742 260.784C339.449 260.396 340.245 260.201 341.051 260.218C341.481 260.216 341.91 260.263 342.328 260.359C342.694 260.439 343.044 260.576 343.366 260.766L342.861 261.802C342.323 261.485 341.703 261.333 341.078 261.365C340.657 261.342 340.235 261.411 339.843 261.566C339.45 261.722 339.096 261.96 338.803 262.265C338.206 263 337.911 263.935 337.978 264.88C337.977 264.99 337.981 265.101 337.991 265.211C338.263 264.808 338.645 264.492 339.091 264.301C339.589 264.087 340.125 263.981 340.666 263.989C341.233 263.979 341.794 264.097 342.308 264.335M341.996 268.18C342.185 268.017 342.334 267.815 342.433 267.587C342.532 267.359 342.578 267.111 342.568 266.863C342.578 266.615 342.531 266.367 342.431 266.14C342.33 265.913 342.179 265.711 341.988 265.552C341.547 265.209 340.997 265.037 340.439 265.066C340.056 265.058 339.676 265.14 339.329 265.305C339.022 265.45 338.76 265.675 338.569 265.957C338.394 266.227 338.3 266.542 338.298 266.863C338.295 267.185 338.385 267.501 338.556 267.774C338.743 268.058 339.006 268.283 339.314 268.426C339.687 268.599 340.095 268.684 340.506 268.673C341.047 268.697 341.577 268.522 341.996 268.181" fill="black"/>
<path d="M390.983 255.54V256.697H384.291V255.797L388.083 252.137C388.455 251.808 388.769 251.419 389.014 250.987C389.169 250.684 389.251 250.349 389.253 250.008C389.264 249.792 389.223 249.576 389.134 249.378C389.045 249.18 388.91 249.007 388.74 248.871C388.31 248.574 387.793 248.431 387.271 248.464C386.823 248.439 386.375 248.517 385.962 248.693C385.549 248.868 385.183 249.137 384.89 249.477L383.99 248.692C384.373 248.233 384.864 247.876 385.419 247.654C386.046 247.398 386.719 247.271 387.396 247.28C388.23 247.236 389.053 247.484 389.724 247.98C390.008 248.207 390.234 248.497 390.384 248.827C390.534 249.157 390.605 249.518 390.589 249.88C390.591 250.369 390.482 250.851 390.27 251.29C389.957 251.862 389.547 252.376 389.059 252.807L386.212 255.546L390.983 255.54Z" fill="black"/>
<path d="M393.717 255.214C393.798 255.3 393.861 255.401 393.903 255.511C393.945 255.622 393.965 255.739 393.962 255.858C393.962 255.988 393.946 256.118 393.914 256.244C393.885 256.368 393.825 256.56 393.737 256.818L393.112 258.665H392.272L392.764 256.683C392.601 256.622 392.461 256.512 392.364 256.369C392.259 256.219 392.205 256.04 392.21 255.858C392.205 255.737 392.226 255.617 392.27 255.505C392.313 255.393 392.38 255.291 392.465 255.206C392.548 255.122 392.648 255.056 392.758 255.012C392.868 254.969 392.985 254.949 393.104 254.953C393.219 254.95 393.334 254.972 393.44 255.017C393.547 255.061 393.643 255.128 393.722 255.213" fill="black"/>
<path d="M401.838 247.385V248.292L398.075 256.698H396.665L400.35 248.543H396.093V250.206H394.816V247.386L401.838 247.385Z" fill="black"/>
<path d="M409.554 255.54V256.697H402.862V255.797L406.655 252.137C407.026 251.807 407.34 251.418 407.586 250.987C407.741 250.683 407.823 250.348 407.826 250.008C407.836 249.791 407.796 249.575 407.706 249.377C407.617 249.179 407.482 249.006 407.313 248.871C406.883 248.573 406.365 248.43 405.844 248.464C405.396 248.438 404.948 248.516 404.535 248.692C404.122 248.867 403.755 249.136 403.463 249.477L402.556 248.692C402.94 248.233 403.431 247.876 403.987 247.654C404.613 247.397 405.285 247.27 405.962 247.28C406.796 247.235 407.62 247.482 408.292 247.98C408.575 248.206 408.8 248.496 408.95 248.827C409.1 249.157 409.17 249.517 409.155 249.88C409.156 250.368 409.047 250.85 408.836 251.29C408.523 251.862 408.114 252.375 407.625 252.807L404.778 255.546L409.554 255.54Z" fill="black"/>
<path d="M323.987 126.045V135.358H322.672V127.202H320.572V126.045H323.987Z" fill="black"/>
<path d="M327.865 134.9C327.267 134.491 326.798 133.92 326.514 133.254C325.86 131.614 325.86 129.786 326.514 128.147C326.798 127.482 327.267 126.912 327.865 126.505C328.45 126.135 329.128 125.938 329.82 125.938C330.513 125.938 331.191 126.135 331.776 126.505C332.374 126.912 332.842 127.482 333.127 128.147C333.783 129.786 333.783 131.615 333.127 133.254C332.843 133.92 332.374 134.491 331.776 134.9C331.19 135.267 330.512 135.462 329.82 135.462C329.129 135.462 328.451 135.267 327.865 134.9ZM331.617 133.362C332.058 132.544 332.289 131.63 332.289 130.701C332.289 129.772 332.058 128.858 331.617 128.041C331.411 127.756 331.142 127.525 330.829 127.366C330.517 127.206 330.171 127.123 329.821 127.123C329.47 127.123 329.125 127.206 328.812 127.366C328.5 127.525 328.23 127.756 328.025 128.041C327.585 128.858 327.354 129.772 327.354 130.701C327.354 131.63 327.585 132.544 328.025 133.362C328.231 133.645 328.501 133.876 328.813 134.035C329.125 134.194 329.47 134.277 329.821 134.277C330.171 134.277 330.517 134.194 330.829 134.035C331.141 133.876 331.411 133.645 331.617 133.362Z" fill="black"/>
<path d="M336.246 133.875C336.327 133.961 336.391 134.062 336.434 134.172C336.476 134.283 336.496 134.4 336.493 134.519C336.494 134.649 336.477 134.779 336.445 134.905C336.415 135.029 336.356 135.22 336.266 135.479L335.641 137.326H334.803L335.295 135.344C335.13 135.285 334.987 135.175 334.888 135.03C334.784 134.88 334.731 134.701 334.736 134.519C334.731 134.399 334.752 134.279 334.795 134.167C334.839 134.054 334.905 133.952 334.989 133.867C335.072 133.783 335.172 133.717 335.282 133.674C335.392 133.63 335.51 133.61 335.628 133.614C335.744 133.611 335.858 133.632 335.965 133.677C336.072 133.722 336.167 133.79 336.246 133.875Z" fill="black"/>
<path d="M339.439 134.9C338.841 134.491 338.372 133.92 338.088 133.254C337.434 131.614 337.434 129.786 338.088 128.147C338.372 127.482 338.841 126.912 339.439 126.505C340.024 126.135 340.702 125.938 341.395 125.938C342.087 125.938 342.765 126.135 343.35 126.505C343.948 126.912 344.417 127.482 344.701 128.147C345.357 129.786 345.357 131.615 344.701 133.254C344.417 133.92 343.948 134.491 343.35 134.9C342.764 135.267 342.086 135.462 341.395 135.462C340.703 135.462 340.025 135.267 339.439 134.9ZM343.191 133.362C343.632 132.545 343.863 131.63 343.863 130.701C343.863 129.772 343.632 128.858 343.191 128.041C342.986 127.757 342.716 127.525 342.404 127.366C342.091 127.206 341.746 127.123 341.395 127.123C341.044 127.123 340.699 127.206 340.387 127.366C340.074 127.525 339.804 127.757 339.599 128.041C339.159 128.859 338.928 129.773 338.928 130.701C338.928 131.63 339.159 132.544 339.599 133.362C339.805 133.645 340.075 133.876 340.387 134.035C340.699 134.195 341.045 134.278 341.395 134.278C341.745 134.278 342.091 134.195 342.403 134.035C342.715 133.876 342.985 133.645 343.191 133.362Z" fill="black"/>
<path d="M348.312 134.9C347.714 134.491 347.245 133.92 346.961 133.254C346.307 131.614 346.307 129.786 346.961 128.147C347.246 127.482 347.714 126.912 348.312 126.505C348.897 126.135 349.575 125.938 350.268 125.938C350.96 125.938 351.638 126.135 352.223 126.505C352.821 126.912 353.29 127.482 353.574 128.147C354.23 129.786 354.23 131.615 353.574 133.254C353.29 133.92 352.821 134.491 352.223 134.9C351.637 135.267 350.959 135.462 350.268 135.462C349.576 135.462 348.898 135.267 348.312 134.9ZM352.064 133.362C352.505 132.545 352.736 131.63 352.736 130.701C352.736 129.772 352.505 128.858 352.064 128.041C351.859 127.757 351.589 127.525 351.277 127.366C350.964 127.206 350.619 127.123 350.268 127.123C349.917 127.123 349.572 127.206 349.26 127.366C348.947 127.525 348.678 127.757 348.472 128.041C348.032 128.859 347.801 129.773 347.801 130.701C347.801 131.63 348.032 132.544 348.472 133.362C348.678 133.645 348.948 133.876 349.26 134.035C349.572 134.195 349.918 134.278 350.268 134.278C350.619 134.278 350.964 134.195 351.276 134.035C351.588 133.876 351.858 133.645 352.064 133.362Z" fill="black"/>
<path d="M268.724 213.886V215.043H262.032V214.143L265.824 210.483C266.196 210.154 266.511 209.765 266.755 209.333C266.91 209.03 266.993 208.695 266.995 208.354C267.006 208.138 266.965 207.921 266.876 207.724C266.787 207.526 266.652 207.352 266.482 207.217C266.053 206.92 265.535 206.777 265.013 206.81C264.565 206.785 264.118 206.863 263.705 207.039C263.292 207.214 262.925 207.483 262.632 207.823L261.732 207.038C262.115 206.579 262.606 206.222 263.161 206C263.789 205.744 264.461 205.617 265.138 205.626C265.972 205.582 266.795 205.829 267.466 206.326C267.75 206.553 267.976 206.843 268.126 207.173C268.277 207.503 268.347 207.864 268.331 208.226C268.333 208.714 268.224 209.196 268.012 209.636C267.699 210.208 267.29 210.721 266.801 211.153L263.954 213.892L268.724 213.886Z" fill="#4A1815"/>
<path d="M271.618 214.587C271.021 214.178 270.553 213.607 270.269 212.941C269.612 211.302 269.612 209.473 270.269 207.834C270.553 207.17 271.021 206.6 271.618 206.192C272.203 205.822 272.882 205.626 273.574 205.626C274.267 205.626 274.945 205.822 275.531 206.192C276.128 206.6 276.597 207.17 276.882 207.834C277.536 209.474 277.536 211.302 276.882 212.941C276.597 213.607 276.128 214.178 275.531 214.587C274.944 214.955 274.266 215.15 273.574 215.15C272.882 215.15 272.204 214.955 271.618 214.587ZM275.372 213.049C275.812 212.232 276.042 211.317 276.042 210.389C276.042 209.46 275.812 208.546 275.372 207.728C275.166 207.444 274.896 207.213 274.584 207.053C274.271 206.894 273.925 206.81 273.575 206.81C273.224 206.81 272.878 206.894 272.566 207.053C272.253 207.213 271.983 207.444 271.778 207.728C271.337 208.546 271.107 209.46 271.107 210.389C271.107 211.317 271.337 212.232 271.778 213.049C271.984 213.333 272.254 213.564 272.566 213.723C272.878 213.883 273.224 213.966 273.575 213.966C273.925 213.966 274.271 213.883 274.583 213.723C274.896 213.564 275.166 213.333 275.372 213.049Z" fill="#4A1815"/>
<path d="M280 213.56C280.163 213.735 280.251 213.967 280.245 214.206C280.245 214.336 280.229 214.466 280.197 214.592C280.168 214.716 280.108 214.906 280.02 215.166L279.395 217.013H278.555L279.047 215.031C278.884 214.971 278.744 214.861 278.647 214.717C278.543 214.568 278.489 214.389 278.493 214.206C278.488 214.086 278.509 213.966 278.553 213.854C278.597 213.742 278.663 213.64 278.748 213.554C278.831 213.47 278.931 213.405 279.041 213.361C279.151 213.318 279.269 213.297 279.387 213.301C279.502 213.299 279.617 213.32 279.723 213.365C279.83 213.409 279.926 213.475 280.005 213.559" fill="#4A1815"/>
<path d="M283.191 214.587C282.594 214.178 282.126 213.607 281.842 212.941C281.185 211.302 281.185 209.473 281.842 207.834C282.126 207.169 282.594 206.6 283.191 206.192C283.776 205.822 284.454 205.626 285.146 205.626C285.839 205.626 286.517 205.822 287.102 206.192C287.7 206.599 288.169 207.169 288.453 207.834C289.109 209.473 289.109 211.302 288.453 212.941C288.169 213.608 287.7 214.179 287.102 214.587C286.516 214.955 285.838 215.15 285.146 215.15C284.455 215.15 283.777 214.955 283.191 214.587ZM286.943 213.049C287.384 212.232 287.615 211.318 287.615 210.389C287.615 209.46 287.384 208.546 286.943 207.728C286.738 207.444 286.468 207.213 286.155 207.053C285.843 206.893 285.498 206.81 285.147 206.81C284.796 206.81 284.451 206.893 284.138 207.053C283.826 207.213 283.556 207.444 283.351 207.728C282.911 208.546 282.68 209.46 282.68 210.389C282.68 211.317 282.911 212.232 283.351 213.049C283.557 213.333 283.827 213.564 284.139 213.723C284.451 213.882 284.797 213.965 285.147 213.965C285.497 213.965 285.843 213.882 286.155 213.723C286.467 213.564 286.737 213.333 286.943 213.049Z" fill="#4A1815"/>
<path d="M295.883 209.737C296.355 209.952 296.754 210.301 297.029 210.74C297.305 211.18 297.445 211.691 297.432 212.21C297.444 212.756 297.294 213.294 297.001 213.755C296.709 214.202 296.299 214.558 295.817 214.785C295.292 215.035 294.716 215.159 294.135 215.15C293.592 215.182 293.049 215.09 292.548 214.88C292.046 214.67 291.6 214.348 291.242 213.939C290.505 212.953 290.143 211.737 290.223 210.509C290.195 209.593 290.385 208.683 290.776 207.854C291.11 207.157 291.647 206.578 292.317 206.191C293.023 205.803 293.82 205.608 294.626 205.625C295.055 205.623 295.484 205.67 295.903 205.766C296.268 205.846 296.618 205.983 296.941 206.173L296.435 207.209C295.896 206.892 295.276 206.74 294.652 206.772C294.23 206.75 293.809 206.818 293.416 206.974C293.023 207.129 292.669 207.367 292.377 207.672C291.78 208.407 291.485 209.342 291.552 210.287C291.55 210.398 291.554 210.508 291.565 210.618C291.836 210.215 292.218 209.9 292.665 209.708C293.162 209.494 293.699 209.388 294.24 209.396C294.806 209.386 295.368 209.504 295.882 209.742M295.57 213.587C295.758 213.425 295.907 213.222 296.006 212.994C296.105 212.766 296.151 212.518 296.142 212.27C296.152 212.022 296.105 211.774 296.004 211.547C295.904 211.32 295.752 211.119 295.562 210.959C295.121 210.616 294.571 210.443 294.013 210.472C293.629 210.465 293.249 210.546 292.903 210.711C292.596 210.857 292.333 211.082 292.143 211.363C291.968 211.633 291.873 211.948 291.871 212.27C291.869 212.592 291.958 212.907 292.13 213.18C292.317 213.464 292.579 213.69 292.888 213.832C293.261 214.005 293.669 214.09 294.08 214.079C294.62 214.103 295.15 213.928 295.57 213.587Z" fill="#4A1815"/>
<path d="M267.834 228.444C268.072 228.682 268.259 228.965 268.382 229.277C268.506 229.589 268.564 229.924 268.552 230.259C268.558 230.769 268.419 231.269 268.152 231.703C267.862 232.153 267.447 232.509 266.958 232.728C266.349 232.998 265.687 233.127 265.021 233.106C264.372 233.108 263.726 233.007 263.107 232.806C262.554 232.639 262.042 232.356 261.607 231.974L262.219 230.927C262.574 231.248 262.99 231.493 263.441 231.649C263.949 231.832 264.485 231.924 265.024 231.921C265.597 231.956 266.165 231.803 266.641 231.484C266.829 231.345 266.98 231.162 267.081 230.951C267.183 230.74 267.231 230.507 267.221 230.273C267.232 230.042 267.186 229.811 267.086 229.602C266.986 229.392 266.836 229.211 266.649 229.073C266.132 228.754 265.527 228.605 264.92 228.647H264.175V227.716L266.516 224.842H262.031V223.69H268.179V224.597L265.742 227.606C266.516 227.634 267.256 227.932 267.833 228.448" fill="#4A1815"/>
<path d="M276.268 231.84V232.997H269.576V232.097L273.369 228.437C273.74 228.107 274.054 227.719 274.3 227.287C274.454 226.984 274.536 226.649 274.539 226.308C274.549 226.092 274.509 225.876 274.419 225.678C274.33 225.48 274.195 225.307 274.026 225.171C273.596 224.874 273.078 224.731 272.557 224.764C272.109 224.739 271.661 224.817 271.248 224.992C270.835 225.168 270.468 225.437 270.176 225.777L269.269 224.992C269.653 224.533 270.144 224.177 270.7 223.954C271.326 223.698 271.998 223.571 272.675 223.58C273.509 223.536 274.333 223.783 275.005 224.28C275.287 224.507 275.513 224.797 275.663 225.127C275.813 225.457 275.883 225.818 275.868 226.18C275.869 226.668 275.76 227.15 275.549 227.59C275.236 228.163 274.826 228.676 274.338 229.107L271.489 231.84H276.268Z" fill="#4A1815"/>
<path d="M279.002 231.518C279.083 231.604 279.147 231.705 279.189 231.816C279.232 231.926 279.252 232.044 279.249 232.162C279.249 232.292 279.233 232.422 279.201 232.548C279.171 232.672 279.112 232.863 279.022 233.122L278.397 234.969H277.559L278.051 232.987C277.885 232.928 277.743 232.818 277.644 232.673C277.54 232.523 277.487 232.344 277.492 232.162C277.487 232.042 277.507 231.922 277.551 231.81C277.594 231.698 277.66 231.596 277.745 231.51C277.828 231.427 277.928 231.361 278.038 231.317C278.148 231.274 278.266 231.253 278.384 231.257C278.499 231.254 278.614 231.276 278.721 231.321C278.827 231.366 278.923 231.434 279.002 231.518Z" fill="#4A1815"/>
<path d="M286.107 228.151C286.414 228.395 286.659 228.709 286.821 229.066C286.984 229.424 287.06 229.814 287.044 230.207C287.052 230.727 286.917 231.24 286.653 231.689C286.37 232.145 285.958 232.507 285.469 232.727C284.856 232.996 284.19 233.126 283.521 233.105C282.875 233.107 282.234 233.006 281.621 232.805C281.063 232.636 280.546 232.353 280.104 231.974L280.714 230.923C281.068 231.245 281.486 231.492 281.94 231.647C282.443 231.83 282.974 231.922 283.51 231.919C284.087 231.954 284.659 231.797 285.139 231.474C285.327 231.333 285.478 231.148 285.579 230.936C285.68 230.724 285.728 230.49 285.719 230.256C285.732 230.007 285.679 229.758 285.567 229.536C285.455 229.313 285.286 229.123 285.079 228.986C284.406 228.643 283.651 228.494 282.899 228.555H280.782L281.274 223.684H286.531V224.843H282.394L282.139 227.395H283.177C284.211 227.312 285.243 227.577 286.111 228.148" fill="#4A1815"/>
<path d="M289.989 232.54C289.391 232.132 288.922 231.561 288.638 230.894C287.984 229.255 287.984 227.427 288.638 225.787C288.922 225.122 289.391 224.553 289.989 224.145C290.574 223.775 291.252 223.579 291.944 223.579C292.637 223.579 293.315 223.775 293.9 224.145C294.498 224.553 294.966 225.122 295.251 225.787C295.907 227.426 295.907 229.255 295.251 230.894C294.967 231.561 294.498 232.132 293.9 232.54C293.314 232.908 292.636 233.103 291.944 233.103C291.253 233.103 290.575 232.908 289.989 232.54ZM293.741 231.002C294.182 230.185 294.413 229.271 294.413 228.342C294.413 227.413 294.182 226.499 293.741 225.681C293.535 225.397 293.266 225.166 292.953 225.006C292.641 224.847 292.296 224.763 291.945 224.763C291.594 224.763 291.249 224.847 290.936 225.006C290.624 225.166 290.354 225.397 290.149 225.681C289.709 226.499 289.478 227.413 289.478 228.342C289.478 229.27 289.709 230.185 290.149 231.002C290.355 231.286 290.625 231.517 290.937 231.676C291.249 231.835 291.594 231.918 291.945 231.918C292.295 231.918 292.641 231.835 292.953 231.676C293.265 231.517 293.535 231.286 293.741 231.002Z" fill="#4A1815"/>
<path d="M221.29 218.103V235.844H218.781V220.308H214.775V218.108L221.29 218.103Z" fill="#4A1815"/>
<path d="M238.252 231.412H228.822L226.87 235.848H224.261L232.296 218.103H234.807L242.861 235.844H240.2L238.252 231.412ZM237.364 229.384L233.536 220.689L229.708 229.384H237.364Z" fill="#4A1815"/>
<path d="M267.834 245.758C268.072 245.995 268.259 246.279 268.382 246.591C268.506 246.903 268.564 247.237 268.552 247.573C268.558 248.082 268.419 248.583 268.152 249.017C267.862 249.467 267.447 249.823 266.958 250.042C266.349 250.311 265.687 250.44 265.021 250.42C264.372 250.422 263.726 250.321 263.107 250.12C262.554 249.953 262.042 249.669 261.607 249.288L262.219 248.239C262.573 248.561 262.989 248.807 263.441 248.963C263.949 249.146 264.485 249.238 265.024 249.235C265.597 249.27 266.165 249.117 266.641 248.798C266.829 248.658 266.98 248.475 267.081 248.264C267.182 248.053 267.23 247.821 267.221 247.587C267.232 247.355 267.186 247.125 267.086 246.915C266.986 246.706 266.836 246.524 266.649 246.387C266.132 246.068 265.527 245.919 264.92 245.961H264.175V245.03L266.516 242.156H262.031V240.999H268.179V241.906L265.742 244.913C266.516 244.943 267.256 245.241 267.833 245.757" fill="#4A1815"/>
<path d="M275.25 245.465C275.557 245.71 275.802 246.023 275.965 246.381C276.128 246.738 276.204 247.129 276.187 247.521C276.195 248.042 276.059 248.554 275.795 249.003C275.513 249.46 275.101 249.821 274.611 250.041C273.998 250.311 273.333 250.44 272.663 250.419C272.018 250.421 271.376 250.32 270.763 250.119C270.205 249.95 269.689 249.667 269.246 249.288L269.856 248.237C270.211 248.56 270.628 248.806 271.082 248.961C271.585 249.144 272.117 249.236 272.652 249.233C273.229 249.268 273.802 249.112 274.281 248.788C274.469 248.647 274.62 248.463 274.721 248.25C274.822 248.038 274.87 247.805 274.861 247.57C274.874 247.321 274.822 247.073 274.709 246.85C274.597 246.627 274.428 246.438 274.22 246.3C273.547 245.957 272.793 245.808 272.04 245.869H269.923L270.415 240.998H275.672V242.157H271.535L271.28 244.709H272.318C273.353 244.627 274.385 244.892 275.252 245.462" fill="#4A1815"/>
<path d="M278.802 248.83C278.884 248.916 278.947 249.017 278.989 249.127C279.031 249.238 279.051 249.356 279.047 249.474C279.048 249.604 279.032 249.734 278.999 249.86C278.971 249.984 278.91 250.175 278.822 250.434L278.197 252.281H277.357L277.849 250.299C277.687 250.238 277.547 250.129 277.449 249.985C277.345 249.835 277.291 249.656 277.295 249.474C277.291 249.354 277.312 249.234 277.355 249.121C277.399 249.009 277.466 248.907 277.55 248.822C277.634 248.738 277.734 248.672 277.844 248.629C277.954 248.585 278.071 248.565 278.189 248.569C278.305 248.566 278.42 248.588 278.526 248.633C278.633 248.678 278.729 248.744 278.807 248.829" fill="#4A1815"/>
<path d="M286.99 249.156V250.313H280.298V249.413L284.091 245.753C284.462 245.423 284.777 245.034 285.022 244.603C285.177 244.299 285.259 243.964 285.261 243.624C285.272 243.407 285.231 243.191 285.142 242.993C285.053 242.796 284.918 242.622 284.748 242.487C284.318 242.19 283.801 242.046 283.279 242.08C282.831 242.054 282.383 242.132 281.97 242.308C281.557 242.484 281.19 242.752 280.898 243.093L279.991 242.308C280.375 241.849 280.867 241.492 281.422 241.27C282.049 241.014 282.72 240.886 283.397 240.896C284.232 240.851 285.056 241.099 285.727 241.596C286.01 241.823 286.236 242.113 286.385 242.443C286.535 242.773 286.606 243.134 286.59 243.496C286.592 243.984 286.483 244.466 286.271 244.906C285.959 245.478 285.549 245.991 285.06 246.423L282.213 249.162L286.99 249.156Z" fill="#4A1815"/>
<path d="M294.627 249.156V250.313H287.935V249.413L291.727 245.753C292.098 245.423 292.413 245.035 292.658 244.603C292.813 244.299 292.895 243.964 292.898 243.624C292.909 243.407 292.868 243.191 292.779 242.993C292.689 242.796 292.554 242.622 292.385 242.487C291.955 242.189 291.437 242.046 290.916 242.08C290.468 242.054 290.02 242.132 289.607 242.308C289.194 242.484 288.827 242.752 288.535 243.093L287.635 242.308C288.018 241.848 288.509 241.492 289.064 241.27C289.691 241.014 290.363 240.886 291.041 240.896C291.875 240.851 292.698 241.099 293.369 241.596C293.652 241.822 293.878 242.112 294.029 242.442C294.179 242.772 294.249 243.133 294.234 243.496C294.235 243.984 294.126 244.466 293.915 244.906C293.602 245.478 293.192 245.991 292.704 246.423L289.857 249.162L294.627 249.156Z" fill="#4A1815"/>
<path d="M253.176 256.952V195.755" stroke="#4A1815" stroke-width="0.425" stroke-miterlimit="10"/>
<path d="M444.749 0H439.428V44.472H444.749V0Z" fill="#4A1815"/>
<path d="M444.559 0H425.934V41.051H444.559V0Z" fill="#4A1815"/>
<path d="M444.749 128.476H439.428V194.424H444.749V128.476Z" fill="#4A1815"/>
<path d="M444.559 131.897H425.934V191.003H444.559V131.897Z" fill="#4A1815"/>
<path d="M444.749 300.094H439.428V341.526H444.749V300.094Z" fill="#4A1815"/>
<path d="M444.559 303.515H425.934V341.526H444.559V303.515Z" fill="#4A1815"/>
<path d="M430.495 0H53.6201V13.494H430.495V0Z" fill="#4A1815"/>
<path d="M435.626 168.007H252.415V172.378H435.626V168.007Z" fill="#4A1815"/>
<path d="M429.354 327.841H80.9873V341.335H429.354V327.841Z" fill="#4A1815"/>
<path d="M372.909 264.554H366.447V330.312H372.909V264.554Z" fill="#4A1815"/>
<path d="M221.816 12.7344H217.445V112.132H221.816V12.7344Z" fill="#4A1815"/>
<path d="M256.406 107.95H175.063V112.131H256.406V107.95Z" fill="#4A1815"/>
<path d="M131.731 107.95H63.3125V112.131H131.731V107.95Z" fill="#4A1815"/>
<path d="M256.596 107.95H252.415V119.163H256.596V107.95Z" fill="#4A1815"/>
<path d="M88.7801 11.2129H53.6201V112.131H88.7801V11.2129Z" fill="#4A1815"/>
<path d="M57.9911 105.479H53.6201V114.982H57.9911V105.479Z" fill="#4A1815"/>
<path d="M57.9911 168.387H53.6201V177.89H57.9911V168.387Z" fill="#4A1815"/>
<path d="M66.9241 171.238H53.6201V200.696H66.9241V171.238Z" fill="#4A1815"/>
<path d="M90.1101 196.135H53.6201V341.335H90.1101V196.135Z" fill="#4A1815"/>
<path d="M53.6193 115.172H0.404297" stroke="#4A1815" stroke-width="0.85" stroke-miterlimit="10"/>
<path d="M0.405346 115.172C0.393756 122.163 1.76229 129.089 4.43249 135.55C7.10269 142.012 11.022 147.883 15.9658 152.826C20.9096 157.77 26.7806 161.69 33.2421 164.36C39.7037 167.03 46.6288 168.398 53.6203 168.387" stroke="#4A1815" stroke-width="0.425" stroke-miterlimit="10"/>
<path d="M439.427 128.475V44.4717" stroke="#4A1815" stroke-width="0.425" stroke-miterlimit="10"/>
<path d="M425.934 131.896V41.0508" stroke="#4A1815" stroke-width="0.425" stroke-miterlimit="10"/>
<path d="M436.196 131.896V41.0508" stroke="#4A1815" stroke-width="0.425" stroke-miterlimit="10"/>
<path d="M439.427 300.093V194.424" stroke="#4A1815" stroke-width="0.425" stroke-miterlimit="10"/>
<path d="M425.934 303.514V191.003" stroke="#4A1815" stroke-width="0.425" stroke-miterlimit="10"/>
<path d="M436.196 303.514V191.003" stroke="#4A1815" stroke-width="0.425" stroke-miterlimit="10"/>
<path d="M367.586 172.378V199.556" stroke="#4A1815" stroke-width="0.425" stroke-miterlimit="10"/>
<path d="M369.678 172.378V199.556" stroke="#4A1815" stroke-width="0.425" stroke-miterlimit="10"/>
<path d="M371.769 172.378V199.556" stroke="#4A1815" stroke-width="0.425" stroke-miterlimit="10"/>
<path d="M367.586 199.556H371.767" stroke="#4A1815" stroke-width="0.425" stroke-miterlimit="10"/>
<path d="M367.586 264.554V237.186" stroke="#4A1815" stroke-width="0.425" stroke-miterlimit="10"/>
<path d="M369.678 264.554V237.186" stroke="#4A1815" stroke-width="0.425" stroke-miterlimit="10"/>
<path d="M371.769 264.554V237.186" stroke="#4A1815" stroke-width="0.425" stroke-miterlimit="10"/>
<path d="M367.586 237.186H371.767" stroke="#4A1815" stroke-width="0.425" stroke-miterlimit="10"/>
<path d="M179.244 196.325H87.8291V200.506H179.244V196.325Z" fill="#4A1815"/>
<path d="M179.434 168.007H175.063V200.696H179.434V168.007Z" fill="#4A1815"/>
<path d="M254.315 119.163L235.88 157.554" stroke="#4A1815" stroke-width="0.85" stroke-miterlimit="10"/>
<path d="M129.641 110.041L166.131 128.476" stroke="#4A1815" stroke-width="0.85" stroke-miterlimit="10"/>
<path d="M371.009 199.556H368.348V202.597H371.009V199.556Z" fill="#4A1815"/>
<path d="M371.009 234.145H368.348V237.186H371.009V234.145Z" fill="#4A1815"/>
<path d="M368.347 234.145H336.608" stroke="#4A1815" stroke-width="0.85" stroke-miterlimit="10"/>
<path d="M336.609 234.145C336.625 225.732 339.975 217.669 345.923 211.72C351.872 205.771 359.936 202.422 368.348 202.406" stroke="#4A1815" stroke-width="0.425" stroke-miterlimit="10"/>
</g>
</g>
<defs>
<clipPath id="clip0_2109_248">
<rect width="444.749" height="341.525" fill="white"/>
</clipPath>
</defs>
</svg>
